<svg width="19" height="19" viewBox="0 0 19 19" fill="none" xmlns="http://www.w3.org/2000/svg">
<path d="M9.27268 0.872742L9.76077 0.303299C9.47991 0.0625558 9.06545 0.0625558 8.78459 0.303299L9.27268 0.872742ZM0.872681 8.07274L0.384587 7.5033C0.218353 7.64579 0.122681 7.8538 0.122681 8.07274H0.872681ZM6.87268 17.6727V18.4227C7.28689 18.4227 7.62268 18.087 7.62268 17.6727H6.87268ZM11.6727 17.6727H10.9227C10.9227 18.087 11.2585 18.4227 11.6727 18.4227V17.6727ZM17.6727 8.07274H18.4227C18.4227 7.8538 18.327 7.64579 18.1608 7.5033L17.6727 8.07274ZM2.07268 18.4227H6.87268V16.9227H2.07268V18.4227ZM18.1608 7.5033L9.76077 0.303299L8.78459 1.44218L17.1846 8.64218L18.1608 7.5033ZM8.78459 0.303299L0.384587 7.5033L1.36077 8.64218L9.76077 1.44218L8.78459 0.303299ZM7.62268 17.6727V14.0727H6.12268V17.6727H7.62268ZM10.9227 14.0727V17.6727H12.4227V14.0727H10.9227ZM11.6727 18.4227H16.4727V16.9227H11.6727V18.4227ZM18.4227 16.4727V8.07274H16.9227V16.4727H18.4227ZM0.122681 8.07274V16.4727H1.62268V8.07274H0.122681ZM9.27268 12.4227C10.1839 12.4227 10.9227 13.1615 10.9227 14.0727H12.4227C12.4227 12.333 11.0124 10.9227 9.27268 10.9227V12.4227ZM9.27268 10.9227C7.53298 10.9227 6.12268 12.333 6.12268 14.0727H7.62268C7.62268 13.1615 8.36141 12.4227 9.27268 12.4227V10.9227ZM16.4727 18.4227C17.5496 18.4227 18.4227 17.5497 18.4227 16.4727H16.9227C16.9227 16.7213 16.7212 16.9227 16.4727 16.9227V18.4227ZM2.07268 16.9227C1.82415 16.9227 1.62268 16.7213 1.62268 16.4727H0.122681C0.122681 17.5497 0.995725 18.4227 2.07268 18.4227V16.9227Z" fill="#0DB1A1"/>
</svg>
