<svg width="17" height="19" viewBox="0 0 17 19" fill="none" xmlns="http://www.w3.org/2000/svg">
<path d="M2.125 5.25H3.54167H14.875" stroke="#FF3C30" stroke-linecap="round" stroke-linejoin="round"/>
<path d="M5.6665 5.24984V3.83317C5.6665 3.45745 5.81576 3.09711 6.08144 2.83144C6.34711 2.56576 6.70745 2.4165 7.08317 2.4165H9.9165C10.2922 2.4165 10.6526 2.56576 10.9182 2.83144C11.1839 3.09711 11.3332 3.45745 11.3332 3.83317V5.24984M13.4582 5.24984V15.1665C13.4582 15.5422 13.3089 15.9026 13.0432 16.1682C12.7776 16.4339 12.4172 16.5832 12.0415 16.5832H4.95817C4.58245 16.5832 4.22211 16.4339 3.95644 16.1682C3.69076 15.9026 3.5415 15.5422 3.5415 15.1665V5.24984H13.4582Z" stroke="#FF3C30" stroke-linecap="round" stroke-linejoin="round"/>
<path d="M9.9165 8.7915V13.0415" stroke="#FF3C30" stroke-linecap="round" stroke-linejoin="round"/>
<path d="M7.0835 8.7915V13.0415" stroke="#FF3C30" stroke-linecap="round" stroke-linejoin="round"/>
</svg>
