<svg width="18" height="18" viewBox="0 0 18 18" fill="none" xmlns="http://www.w3.org/2000/svg">
<path d="M11.6249 11.625L6.37493 6.375L2.49993 10.5C2.1666 11.3333 1.79993 13.2 2.99993 14C4.49993 15 6.5 16 9 14C11 12.4 11.5833 11.75 11.6249 11.625Z" fill="#87D40E" fill-opacity="0.3"/>
<path d="M3.37503 9.375L9.37503 3.375C10.0712 2.67881 11.0155 2.28769 12 2.28769C12.9846 2.28769 13.9288 2.67881 14.625 3.375C15.3212 4.07119 15.7123 5.01543 15.7123 6C15.7123 6.98457 15.3212 7.92881 14.625 8.625L8.62503 14.625C7.92884 15.3212 6.9846 15.7123 6.00003 15.7123C5.01546 15.7123 4.07122 15.3212 3.37503 14.625C2.67884 13.9288 2.28772 12.9846 2.28772 12C2.28772 11.0154 2.67884 10.0712 3.37503 9.375" stroke="#87D40E" stroke-linecap="round" stroke-linejoin="round"/>
<path d="M6.375 6.37498L11.625 11.625" stroke="#87D40E" stroke-linecap="round" stroke-linejoin="round"/>
</svg>
