<svg width="25" height="25" viewBox="0 0 25 25" fill="none" xmlns="http://www.w3.org/2000/svg">
<circle cx="12.5" cy="12.5" r="12.5" fill="#F3FDE2"/>
<path d="M16.6667 18.4299V18.9299C16.9428 18.9299 17.1667 18.7061 17.1667 18.4299H16.6667ZM8.33337 18.4299H7.83337C7.83337 18.7061 8.05723 18.9299 8.33337 18.9299V18.4299ZM14.5 9.26924C14.5 10.3727 13.605 11.2676 12.5 11.2676V12.2676C14.1567 12.2676 15.5 10.9256 15.5 9.26924H14.5ZM12.5 11.2676C11.395 11.2676 10.5 10.3727 10.5 9.26924H9.50004C9.50004 10.9256 10.8434 12.2676 12.5 12.2676V11.2676ZM10.5 9.26924C10.5 8.16576 11.395 7.27087 12.5 7.27087V6.27087C10.8434 6.27087 9.50004 7.61286 9.50004 9.26924H10.5ZM12.5 7.27087C13.605 7.27087 14.5 8.16576 14.5 9.26924H15.5C15.5 7.61286 14.1567 6.27087 12.5 6.27087V7.27087ZM16.6667 17.9299H8.33337V18.9299H16.6667V17.9299ZM8.83337 18.4299C8.83337 18.4288 8.83337 18.4276 8.83337 18.4265C8.83337 18.4253 8.83337 18.4242 8.83337 18.423C8.83337 18.4219 8.83337 18.4207 8.83337 18.4195C8.83337 18.4184 8.83337 18.4172 8.83337 18.4161C8.83337 18.4149 8.83337 18.4138 8.83337 18.4126C8.83337 18.4115 8.83337 18.4103 8.83337 18.4091C8.83337 18.408 8.83337 18.4068 8.83337 18.4057C8.83337 18.4045 8.83337 18.4034 8.83337 18.4022C8.83337 18.4011 8.83337 18.3999 8.83337 18.3988C8.83337 18.3976 8.83337 18.3965 8.83337 18.3953C8.83337 18.3941 8.83337 18.393 8.83337 18.3918C8.83337 18.3907 8.83337 18.3895 8.83337 18.3884C8.83337 18.3872 8.83337 18.3861 8.83337 18.3849C8.83337 18.3838 8.83337 18.3826 8.83337 18.3815C8.83337 18.3803 8.83337 18.3792 8.83337 18.378C8.83337 18.3769 8.83337 18.3757 8.83337 18.3746C8.83337 18.3734 8.83337 18.3722 8.83337 18.3711C8.83337 18.3699 8.83337 18.3688 8.83337 18.3676C8.83337 18.3665 8.83337 18.3653 8.83337 18.3642C8.83337 18.363 8.83337 18.3619 8.83337 18.3607C8.83337 18.3596 8.83337 18.3584 8.83337 18.3573C8.83337 18.3561 8.83337 18.355 8.83337 18.3538C8.83337 18.3527 8.83337 18.3515 8.83337 18.3504C8.83337 18.3492 8.83337 18.3481 8.83337 18.3469C8.83337 18.3458 8.83337 18.3446 8.83337 18.3435C8.83337 18.3423 8.83337 18.3412 8.83337 18.34C8.83337 18.3389 8.83337 18.3377 8.83337 18.3366C8.83337 18.3354 8.83337 18.3343 8.83337 18.3331C8.83337 18.332 8.83337 18.3308 8.83337 18.3297C8.83337 18.3285 8.83337 18.3274 8.83337 18.3262C8.83337 18.3251 8.83337 18.3239 8.83337 18.3228C8.83337 18.3216 8.83337 18.3205 8.83337 18.3193C8.83337 18.3182 8.83337 18.317 8.83337 18.3159C8.83337 18.3147 8.83337 18.3136 8.83337 18.3124C8.83337 18.3113 8.83337 18.3102 8.83337 18.309C8.83337 18.3079 8.83337 18.3067 8.83337 18.3056C8.83337 18.3044 8.83337 18.3033 8.83337 18.3021C8.83337 18.301 8.83337 18.2998 8.83337 18.2987C8.83337 18.2975 8.83337 18.2964 8.83337 18.2952C8.83337 18.2941 8.83337 18.2929 8.83337 18.2918C8.83337 18.2907 8.83337 18.2895 8.83337 18.2884C8.83337 18.2872 8.83337 18.2861 8.83337 18.2849C8.83337 18.2838 8.83337 18.2826 8.83337 18.2815C8.83337 18.2803 8.83337 18.2792 8.83337 18.278C8.83337 18.2769 8.83337 18.2758 8.83337 18.2746C8.83337 18.2735 8.83337 18.2723 8.83337 18.2712C8.83337 18.27 8.83337 18.2689 8.83337 18.2677C8.83337 18.2666 8.83337 18.2654 8.83337 18.2643C8.83337 18.2632 8.83337 18.262 8.83337 18.2609C8.83337 18.2597 8.83337 18.2586 8.83337 18.2574C8.83337 18.2563 8.83337 18.2551 8.83337 18.254C8.83337 18.2529 8.83337 18.2517 8.83337 18.2506C8.83337 18.2494 8.83337 18.2483 8.83337 18.2471C8.83337 18.246 8.83337 18.2449 8.83337 18.2437C8.83337 18.2426 8.83337 18.2414 8.83337 18.2403C8.83337 18.2391 8.83337 18.238 8.83337 18.2369C8.83337 18.2357 8.83337 18.2346 8.83337 18.2334C8.83337 18.2323 8.83337 18.2311 8.83337 18.23C8.83337 18.2289 8.83337 18.2277 8.83337 18.2266C8.83337 18.2254 8.83337 18.2243 8.83337 18.2231C8.83337 18.222 8.83337 18.2209 8.83337 18.2197C8.83337 18.2186 8.83337 18.2174 8.83337 18.2163C8.83337 18.2152 8.83337 18.214 8.83337 18.2129C8.83337 18.2117 8.83337 18.2106 8.83337 18.2094C8.83337 18.2083 8.83337 18.2072 8.83337 18.206C8.83337 18.2049 8.83337 18.2037 8.83337 18.2026C8.83337 18.2015 8.83337 18.2003 8.83337 18.1992C8.83337 18.198 8.83337 18.1969 8.83337 18.1958C8.83337 18.1946 8.83337 18.1935 8.83337 18.1923C8.83337 18.1912 8.83337 18.1901 8.83337 18.1889C8.83337 18.1878 8.83337 18.1866 8.83337 18.1855C8.83337 18.1844 8.83337 18.1832 8.83337 18.1821C8.83337 18.181 8.83337 18.1798 8.83337 18.1787C8.83337 18.1775 8.83337 18.1764 8.83337 18.1753C8.83337 18.1741 8.83337 18.173 8.83337 18.1718C8.83337 18.1707 8.83337 18.1696 8.83337 18.1684C8.83337 18.1673 8.83337 18.1662 8.83337 18.165C8.83337 18.1639 8.83337 18.1627 8.83337 18.1616C8.83337 18.1605 8.83337 18.1593 8.83337 18.1582C8.83337 18.1571 8.83337 18.1559 8.83337 18.1548C8.83337 18.1536 8.83337 18.1525 8.83337 18.1514C8.83337 18.1502 8.83337 18.1491 8.83337 18.148C8.83337 18.1468 8.83337 18.1457 8.83337 18.1446C8.83337 18.1434 8.83337 18.1423 8.83337 18.1411C8.83337 18.14 8.83337 18.1389 8.83337 18.1377C8.83337 18.1366 8.83337 18.1355 8.83337 18.1343C8.83337 18.1332 8.83337 18.1321 8.83337 18.1309C8.83337 18.1298 8.83337 18.1287 8.83337 18.1275C8.83337 18.1264 8.83337 18.1252 8.83337 18.1241C8.83337 18.123 8.83337 18.1218 8.83337 18.1207C8.83337 18.1196 8.83337 18.1184 8.83337 18.1173C8.83337 18.1162 8.83337 18.115 8.83337 18.1139C8.83337 18.1128 8.83337 18.1116 8.83337 18.1105C8.83337 18.1094 8.83337 18.1082 8.83337 18.1071C8.83337 18.106 8.83337 18.1048 8.83337 18.1037C8.83337 18.1026 8.83337 18.1014 8.83337 18.1003C8.83337 18.0992 8.83337 18.098 8.83337 18.0969C8.83337 18.0958 8.83337 18.0946 8.83337 18.0935C8.83337 18.0924 8.83337 18.0912 8.83337 18.0901C8.83337 18.089 8.83337 18.0878 8.83337 18.0867C8.83337 18.0856 8.83337 18.0845 8.83337 18.0833C8.83337 18.0822 8.83337 18.0811 8.83337 18.0799C8.83337 18.0788 8.83337 18.0777 8.83337 18.0765C8.83337 18.0754 8.83337 18.0743 8.83337 18.0731C8.83337 18.072 8.83337 18.0709 8.83337 18.0697C8.83337 18.0686 8.83337 18.0675 8.83337 18.0664C8.83337 18.0652 8.83337 18.0641 8.83337 18.063C8.83337 18.0618 8.83337 18.0607 8.83337 18.0596C8.83337 18.0584 8.83337 18.0573 8.83337 18.0562C8.83337 18.0551 8.83337 18.0539 8.83337 18.0528C8.83337 18.0517 8.83337 18.0505 8.83337 18.0494C8.83337 18.0483 8.83337 18.0472 8.83337 18.046C8.83337 18.0449 8.83337 18.0438 8.83337 18.0426C8.83337 18.0415 8.83337 18.0404 8.83337 18.0393C8.83337 18.0381 8.83337 18.037 8.83337 18.0359C8.83337 18.0347 8.83337 18.0336 8.83337 18.0325C8.83337 18.0314 8.83337 18.0302 8.83337 18.0291C8.83337 18.028 8.83337 18.0268 8.83337 18.0257C8.83337 18.0246 8.83337 18.0235 8.83337 18.0223C8.83337 18.0212 8.83337 18.0201 8.83337 18.019C8.83337 18.0178 8.83337 18.0167 8.83337 18.0156C8.83337 18.0144 8.83337 18.0133 8.83337 18.0122C8.83337 18.0111 8.83337 18.0099 8.83337 18.0088C8.83337 18.0077 8.83337 18.0066 8.83337 18.0054C8.83337 18.0043 8.83337 18.0032 8.83337 18.0021C8.83337 18.0009 8.83337 17.9998 8.83337 17.9987C8.83337 17.9976 8.83337 17.9964 8.83337 17.9953C8.83337 17.9942 8.83337 17.9931 8.83337 17.9919C8.83337 17.9908 8.83337 17.9897 8.83337 17.9886C8.83337 17.9874 8.83337 17.9863 8.83337 17.9852C8.83337 17.9841 8.83337 17.9829 8.83337 17.9818C8.83337 17.9807 8.83337 17.9796 8.83337 17.9785C8.83337 17.9773 8.83337 17.9762 8.83337 17.9751C8.83337 17.974 8.83337 17.9728 8.83337 17.9717C8.83337 17.9706 8.83337 17.9695 8.83337 17.9683C8.83337 17.9672 8.83337 17.9661 8.83337 17.965C8.83337 17.9639 8.83337 17.9627 8.83337 17.9616C8.83337 17.9605 8.83337 17.9594 8.83337 17.9582C8.83337 17.9571 8.83337 17.956 8.83337 17.9549C8.83337 17.9538 8.83337 17.9526 8.83337 17.9515C8.83337 17.9504 8.83337 17.9493 8.83337 17.9481C8.83337 17.947 8.83337 17.9459 8.83337 17.9448C8.83337 17.9437 8.83337 17.9425 8.83337 17.9414C8.83337 17.9403 8.83337 17.9392 8.83337 17.9381C8.83337 17.9369 8.83337 17.9358 8.83337 17.9347C8.83337 17.9336 8.83337 17.9325 8.83337 17.9313C8.83337 17.9302 8.83337 17.9291 8.83337 17.928C8.83337 17.9269 8.83337 17.9257 8.83337 17.9246C8.83337 17.9235 8.83337 17.9224 8.83337 17.9213C8.83337 17.9202 8.83337 17.919 8.83337 17.9179C8.83337 17.9168 8.83337 17.9157 8.83337 17.9146C8.83337 17.9134 8.83337 17.9123 8.83337 17.9112C8.83337 17.9101 8.83337 17.909 8.83337 17.9078C8.83337 17.9067 8.83337 17.9056 8.83337 17.9045C8.83337 17.9034 8.83337 17.9023 8.83337 17.9011C8.83337 17.9 8.83337 17.8989 8.83337 17.8978C8.83337 17.8967 8.83337 17.8956 8.83337 17.8944C8.83337 17.8933 8.83337 17.8922 8.83337 17.8911C8.83337 17.89 8.83337 17.8889 8.83337 17.8877C8.83337 17.8866 8.83337 17.8855 8.83337 17.8844C8.83337 17.8833 8.83337 17.8822 8.83337 17.881C8.83337 17.8799 8.83337 17.8788 8.83337 17.8777C8.83337 17.8766 8.83337 17.8755 8.83337 17.8744C8.83337 17.8732 8.83337 17.8721 8.83337 17.871C8.83337 17.8699 8.83337 17.8688 8.83337 17.8677C8.83337 17.8666 8.83337 17.8654 8.83337 17.8643C8.83337 17.8632 8.83337 17.8621 8.83337 17.861C8.83337 17.8599 8.83337 17.8588 8.83337 17.8576C8.83337 17.8565 8.83337 17.8554 8.83337 17.8543C8.83337 17.8532 8.83337 17.8521 8.83337 17.851C8.83337 17.8498 8.83337 17.8487 8.83337 17.8476C8.83337 17.8465 8.83337 17.8454 8.83337 17.8443C8.83337 17.8432 8.83337 17.8421 8.83337 17.8409C8.83337 17.8398 8.83337 17.8387 8.83337 17.8376C8.83337 17.8365 8.83337 17.8354 8.83337 17.8343C8.83337 17.8332 8.83337 17.8321 8.83337 17.8309C8.83337 17.8298 8.83337 17.8287 8.83337 17.8276C8.83337 17.8265 8.83337 17.8254 8.83337 17.8243C8.83337 17.8232 8.83337 17.8221 8.83337 17.8209C8.83337 17.8198 8.83337 17.8187 8.83337 17.8176C8.83337 17.8165 8.83337 17.8154 8.83337 17.8143C8.83337 17.8132 8.83337 17.8121 8.83337 17.811C8.83337 17.8098 8.83337 17.8087 8.83337 17.8076C8.83337 17.8065 8.83337 17.8054 8.83337 17.8043C8.83337 17.8032 8.83337 17.8021 8.83337 17.801C8.83337 17.7999 8.83337 17.7987 8.83337 17.7976C8.83337 17.7965 8.83337 17.7954 8.83337 17.7943C8.83337 17.7932 8.83337 17.7921 8.83337 17.791C8.83337 17.7899 8.83337 17.7888 8.83337 17.7877C8.83337 17.7866 8.83337 17.7855 8.83337 17.7843C8.83337 17.7832 8.83337 17.7821 8.83337 17.781C8.83337 17.7799 8.83337 17.7788 8.83337 17.7777C8.83337 17.7766 8.83337 17.7755 8.83337 17.7744C8.83337 17.7733 8.83337 17.7722 8.83337 17.7711C8.83337 17.77 8.83337 17.7689 8.83337 17.7677C8.83337 17.7666 8.83337 17.7655 8.83337 17.7644C8.83337 17.7633 8.83337 17.7622 8.83337 17.7611C8.83337 17.76 8.83337 17.7589 8.83337 17.7578C8.83337 17.7567 8.83337 17.7556 8.83337 17.7545C8.83337 17.7534 8.83337 17.7523 8.83337 17.7512C8.83337 17.7501 8.83337 17.749 8.83337 17.7479C8.83337 17.7468 8.83337 17.7456 8.83337 17.7445C8.83337 17.7434 8.83337 17.7423 8.83337 17.7412C8.83337 17.7401 8.83337 17.739 8.83337 17.7379C8.83337 17.7368 8.83337 17.7357 8.83337 17.7346C8.83337 17.7335 8.83337 17.7324 8.83337 17.7313C8.83337 17.7302 8.83337 17.7291 8.83337 17.728C8.83337 17.7269 8.83337 17.7258 8.83337 17.7247C8.83337 17.7236 8.83337 17.7225 8.83337 17.7214C8.83337 17.7203 8.83337 17.7192 8.83337 17.7181C8.83337 17.717 8.83337 17.7159 8.83337 17.7148C8.83337 17.7137 8.83337 17.7126 8.83337 17.7115C8.83337 17.7104 8.83337 17.7093 8.83337 17.7082C8.83337 17.7071 8.83337 17.706 8.83337 17.7049C8.83337 17.7038 8.83337 17.7027 8.83337 17.7016C8.83337 17.7005 8.83337 17.6994 8.83337 17.6983C8.83337 17.6972 8.83337 17.6961 8.83337 17.695C8.83337 17.6939 8.83337 17.6928 8.83337 17.6917C8.83337 17.6906 8.83337 17.6895 8.83337 17.6884C8.83337 17.6873 8.83337 17.6862 8.83337 17.6851C8.83337 17.684 8.83337 17.6829 8.83337 17.6818C8.83337 17.6807 8.83337 17.6796 8.83337 17.6785C8.83337 17.6774 8.83337 17.6763 8.83337 17.6752C8.83337 17.6741 8.83337 17.673 8.83337 17.6719C8.83337 17.6708 8.83337 17.6697 8.83337 17.6686C8.83337 17.6675 8.83337 17.6664 8.83337 17.6653C8.83337 17.6642 8.83337 17.6631 8.83337 17.662C8.83337 17.6609 8.83337 17.6598 8.83337 17.6587C8.83337 17.6576 8.83337 17.6565 8.83337 17.6555C8.83337 17.6544 8.83337 17.6533 8.83337 17.6522C8.83337 17.6511 8.83337 17.65 8.83337 17.6489C8.83337 17.6478 8.83337 17.6467 8.83337 17.6456C8.83337 17.6445 8.83337 17.6434 8.83337 17.6423C8.83337 17.6412 8.83337 17.6401 8.83337 17.639C8.83337 17.6379 8.83337 17.6368 8.83337 17.6357C8.83337 17.6346 8.83337 17.6336 8.83337 17.6325C8.83337 17.6314 8.83337 17.6303 8.83337 17.6292C8.83337 17.6281 8.83337 17.627 8.83337 17.6259C8.83337 17.6248 8.83337 17.6237 8.83337 17.6226C8.83337 17.6215 8.83337 17.6204 8.83337 17.6193C8.83337 17.6183 8.83337 17.6172 8.83337 17.6161C8.83337 17.615 8.83337 17.6139 8.83337 17.6128C8.83337 17.6117 8.83337 17.6106 8.83337 17.6095C8.83337 17.6084 8.83337 17.6073 8.83337 17.6062C8.83337 17.6051 8.83337 17.6041 8.83337 17.603C8.83337 17.6019 8.83337 17.6008 8.83337 17.5997C8.83337 17.5986 8.83337 17.5975 8.83337 17.5964C8.83337 17.5953 8.83337 17.5942 8.83337 17.5932C8.83337 17.5921 8.83337 17.591 8.83337 17.5899C8.83337 17.5888 8.83337 17.5877 8.83337 17.5866C8.83337 17.5855 8.83337 17.5844 8.83337 17.5833C8.83337 17.5823 8.83337 17.5812 8.83337 17.5801C8.83337 17.579 8.83337 17.5779 8.83337 17.5768C8.83337 17.5757 8.83337 17.5746 8.83337 17.5735C8.83337 17.5725 8.83337 17.5714 8.83337 17.5703C8.83337 17.5692 8.83337 17.5681 8.83337 17.567C8.83337 17.5659 8.83337 17.5648 8.83337 17.5638C8.83337 17.5627 8.83337 17.5616 8.83337 17.5605C8.83337 17.5594 8.83337 17.5583 8.83337 17.5572C8.83337 17.5562 8.83337 17.5551 8.83337 17.554C8.83337 17.5529 8.83337 17.5518 8.83337 17.5507C8.83337 17.5496 8.83337 17.5485 8.83337 17.5475C8.83337 17.5464 8.83337 17.5453 8.83337 17.5442C8.83337 17.5431 8.83337 17.542 8.83337 17.541C8.83337 17.5399 8.83337 17.5388 8.83337 17.5377C8.83337 17.5366 8.83337 17.5355 8.83337 17.5344C8.83337 17.5334 8.83337 17.5323 8.83337 17.5312C8.83337 17.5301 8.83337 17.529 8.83337 17.5279C8.83337 17.5269 8.83337 17.5258 8.83337 17.5247C8.83337 17.5236 8.83337 17.5225 8.83337 17.5214C8.83337 17.5204 8.83337 17.5193 8.83337 17.5182C8.83337 17.5171 8.83337 17.516 8.83337 17.5149C8.83337 17.5139 8.83337 17.5128 8.83337 17.5117C8.83337 17.5106 8.83337 17.5095 8.83337 17.5084C8.83337 17.5074 8.83337 17.5063 8.83337 17.5052C8.83337 17.5041 8.83337 17.503 8.83337 17.502C8.83337 17.5009 8.83337 17.4998 8.83337 17.4987C8.83337 17.4976 8.83337 17.4966 8.83337 17.4955C8.83337 17.4944 8.83337 17.4933 8.83337 17.4922C8.83337 17.4912 8.83337 17.4901 8.83337 17.489C8.83337 17.4879 8.83337 17.4868 8.83337 17.4858C8.83337 17.4847 8.83337 17.4836 8.83337 17.4825C8.83337 17.4814 8.83337 17.4804 8.83337 17.4793C8.83337 17.4782 8.83337 17.4771 8.83337 17.476C8.83337 17.475 8.83337 17.4739 8.83337 17.4728C8.83337 17.4717 8.83337 17.4706 8.83337 17.4696C8.83337 17.4685 8.83337 17.4674 8.83337 17.4663C8.83337 17.4653 8.83337 17.4642 8.83337 17.4631C8.83337 17.462 8.83337 17.4609 8.83337 17.4599C8.83337 17.4588 8.83337 17.4577 8.83337 17.4566C8.83337 17.4556 8.83337 17.4545 8.83337 17.4534C8.83337 17.4523 8.83337 17.4513 8.83337 17.4502C8.83337 17.4491 8.83337 17.448 8.83337 17.447C8.83337 17.4459 8.83337 17.4448 8.83337 17.4437C8.83337 17.4427 8.83337 17.4416 8.83337 17.4405C8.83337 17.4394 8.83337 17.4384 8.83337 17.4373C8.83337 17.4362 8.83337 17.4351 8.83337 17.4341C8.83337 17.433 8.83337 17.4319 8.83337 17.4308C8.83337 17.4298 8.83337 17.4287 8.83337 17.4276C8.83337 17.4265 8.83337 17.4255 8.83337 17.4244C8.83337 17.4233 8.83337 17.4222 8.83337 17.4212C8.83337 17.4201 8.83337 17.419 8.83337 17.4179C8.83337 17.4169 8.83337 17.4158 8.83337 17.4147C8.83337 17.4137 8.83337 17.4126 8.83337 17.4115C8.83337 17.4104 8.83337 17.4094 8.83337 17.4083C8.83337 17.4072 8.83337 17.4062 8.83337 17.4051C8.83337 17.404 8.83337 17.4029 8.83337 17.4019C8.83337 17.4008 8.83337 17.3997 8.83337 17.3987C8.83337 17.3976 8.83337 17.3965 8.83337 17.3954C8.83337 17.3944 8.83337 17.3933 8.83337 17.3922C8.83337 17.3912 8.83337 17.3901 8.83337 17.389C8.83337 17.388 8.83337 17.3869 8.83337 17.3858C8.83337 17.3847 8.83337 17.3837 8.83337 17.3826C8.83337 17.3815 8.83337 17.3805 8.83337 17.3794C8.83337 17.3783 8.83337 17.3773 8.83337 17.3762C8.83337 17.3751 8.83337 17.3741 8.83337 17.373C8.83337 17.3719 8.83337 17.3709 8.83337 17.3698C8.83337 17.3687 8.83337 17.3677 8.83337 17.3666C8.83337 17.3655 8.83337 17.3644 8.83337 17.3634C8.83337 17.3623 8.83337 17.3612 8.83337 17.3602C8.83337 17.3591 8.83337 17.358 8.83337 17.357C8.83337 17.3559 8.83337 17.3548 8.83337 17.3538C8.83337 17.3527 8.83337 17.3517 8.83337 17.3506C8.83337 17.3495 8.83337 17.3485 8.83337 17.3474C8.83337 17.3463 8.83337 17.3453 8.83337 17.3442C8.83337 17.3431 8.83337 17.3421 8.83337 17.341C8.83337 17.3399 8.83337 17.3389 8.83337 17.3378C8.83337 17.3367 8.83337 17.3357 8.83337 17.3346C8.83337 17.3335 8.83337 17.3325 8.83337 17.3314C8.83337 17.3304 8.83337 17.3293 8.83337 17.3282C8.83337 17.3272 8.83337 17.3261 8.83337 17.325C8.83337 17.324 8.83337 17.3229 8.83337 17.3218C8.83337 17.3208 8.83337 17.3197 8.83337 17.3187C8.83337 17.3176 8.83337 17.3165 8.83337 17.3155C8.83337 17.3144 8.83337 17.3134 8.83337 17.3123C8.83337 17.3112 8.83337 17.3102 8.83337 17.3091C8.83337 17.308 8.83337 17.307 8.83337 17.3059C8.83337 17.3049 8.83337 17.3038 8.83337 17.3027C8.83337 17.3017 8.83337 17.3006 8.83337 17.2996C8.83337 17.2985 8.83337 17.2974 8.83337 17.2964C8.83337 17.2953 8.83337 17.2943 8.83337 17.2932C8.83337 17.2921 8.83337 17.2911 8.83337 17.29C8.83337 17.289 8.83337 17.2879 8.83337 17.2868C8.83337 17.2858 8.83337 17.2847 8.83337 17.2837C8.83337 17.2826 8.83337 17.2815 8.83337 17.2805C8.83337 17.2794 8.83337 17.2784 8.83337 17.2773C8.83337 17.2763 8.83337 17.2752 8.83337 17.2741C8.83337 17.2731 8.83337 17.272 8.83337 17.271C8.83337 17.2699 8.83337 17.2689 8.83337 17.2678C8.83337 17.2667 8.83337 17.2657 8.83337 17.2646C8.83337 17.2636 8.83337 17.2625 8.83337 17.2615C8.83337 17.2604 8.83337 17.2593 8.83337 17.2583C8.83337 17.2572 8.83337 17.2562 8.83337 17.2551C8.83337 17.2541 8.83337 17.253 8.83337 17.252C8.83337 17.2509 8.83337 17.2498 8.83337 17.2488C8.83337 17.2477 8.83337 17.2467 8.83337 17.2456C8.83337 17.2446 8.83337 17.2435 8.83337 17.2425C8.83337 17.2414 8.83337 17.2404 8.83337 17.2393C8.83337 17.2382 8.83337 17.2372 8.83337 17.2361C8.83337 17.2351 8.83337 17.234 8.83337 17.233C8.83337 17.2319 8.83337 17.2309 8.83337 17.2298C8.83337 17.2288 8.83337 17.2277 8.83337 17.2267C8.83337 17.2256 8.83337 17.2246 8.83337 17.2235C8.83337 17.2225 8.83337 17.2214 8.83337 17.2204C8.83337 17.2193 8.83337 17.2183 8.83337 17.2172C8.83337 17.2161 8.83337 17.2151 8.83337 17.214C8.83337 17.213 8.83337 17.2119 8.83337 17.2109C8.83337 17.2098 8.83337 17.2088 8.83337 17.2077C8.83337 17.2067 8.83337 17.2056 8.83337 17.2046C8.83337 17.2035 8.83337 17.2025 8.83337 17.2014C8.83337 17.2004 8.83337 17.1993 8.83337 17.1983C8.83337 17.1972 8.83337 17.1962 8.83337 17.1951C8.83337 17.1941 8.83337 17.1931 8.83337 17.192C8.83337 17.191 8.83337 17.1899 8.83337 17.1889C8.83337 17.1878 8.83337 17.1868 8.83337 17.1857C8.83337 17.1847 8.83337 17.1836 8.83337 17.1826C8.83337 17.1815 8.83337 17.1805 8.83337 17.1794C8.83337 17.1784 8.83337 17.1773 8.83337 17.1763C8.83337 17.1752 8.83337 17.1742 8.83337 17.1731C8.83337 17.1721 8.83337 17.1711 8.83337 17.17C8.83337 17.169 8.83337 17.1679 8.83337 17.1669C8.83337 17.1658 8.83337 17.1648 8.83337 17.1637C8.83337 17.1627 8.83337 17.1616 8.83337 17.1606C8.83337 17.1596 8.83337 17.1585 8.83337 17.1575C8.83337 17.1564 8.83337 17.1554 8.83337 17.1543C8.83337 17.1533 8.83337 17.1522 8.83337 17.1512C8.83337 17.1502 8.83337 17.1491 8.83337 17.1481C8.83337 17.147 8.83337 17.146 8.83337 17.1449C8.83337 17.1439 8.83337 17.1429 8.83337 17.1418C8.83337 17.1408 8.83337 17.1397 8.83337 17.1387C8.83337 17.1376 8.83337 17.1366 8.83337 17.1356C8.83337 17.1345 8.83337 17.1335 8.83337 17.1324C8.83337 17.1314 8.83337 17.1303 8.83337 17.1293C8.83337 17.1283 8.83337 17.1272 8.83337 17.1262C8.83337 17.1251 8.83337 17.1241 8.83337 17.1231C8.83337 17.122 8.83337 17.121 8.83337 17.1199C8.83337 17.1189 8.83337 17.1179 8.83337 17.1168C8.83337 17.1158 8.83337 17.1147 8.83337 17.1137C8.83337 17.1127 8.83337 17.1116 8.83337 17.1106C8.83337 17.1095 8.83337 17.1085 8.83337 17.1075C8.83337 17.1064 8.83337 17.1054 8.83337 17.1044C8.83337 17.1033 8.83337 17.1023 8.83337 17.1012C8.83337 17.1002 8.83337 17.0992 8.83337 17.0981C8.83337 17.0971 8.83337 17.096 8.83337 17.095C8.83337 17.094 8.83337 17.0929 8.83337 17.0919C8.83337 17.0909 8.83337 17.0898 8.83337 17.0888C8.83337 17.0878 8.83337 17.0867 8.83337 17.0857C8.83337 17.0846 8.83337 17.0836 8.83337 17.0826C8.83337 17.0815 8.83337 17.0805 8.83337 17.0795C8.83337 17.0784 8.83337 17.0774 8.83337 17.0764C8.83337 17.0753 8.83337 17.0743 8.83337 17.0733C8.83337 17.0722 8.83337 17.0712 8.83337 17.0702C8.83337 17.0691 8.83337 17.0681 8.83337 17.067C8.83337 17.066 8.83337 17.065 8.83337 17.0639C8.83337 17.0629 8.83337 17.0619 8.83337 17.0608C8.83337 17.0598 8.83337 17.0588 8.83337 17.0577C8.83337 17.0567 8.83337 17.0557 8.83337 17.0546C8.83337 17.0536 8.83337 17.0526 8.83337 17.0516C8.83337 17.0505 8.83337 17.0495 8.83337 17.0485C8.83337 17.0474 8.83337 17.0464 8.83337 17.0454C8.83337 17.0443 8.83337 17.0433 8.83337 17.0423C8.83337 17.0412 8.83337 17.0402 8.83337 17.0392C8.83337 17.0381 8.83337 17.0371 8.83337 17.0361C8.83337 17.0351 8.83337 17.034 8.83337 17.033C8.83337 17.032 8.83337 17.0309 8.83337 17.0299C8.83337 17.0289 8.83337 17.0278 8.83337 17.0268C8.83337 17.0258 8.83337 17.0248 8.83337 17.0237C8.83337 17.0227 8.83337 17.0217 8.83337 17.0206C8.83337 17.0196 8.83337 17.0186 8.83337 17.0176C8.83337 17.0165 8.83337 17.0155 8.83337 17.0145C8.83337 17.0134 8.83337 17.0124 8.83337 17.0114C8.83337 17.0104 8.83337 17.0093 8.83337 17.0083C8.83337 17.0073 8.83337 17.0063 8.83337 17.0052C8.83337 17.0042 8.83337 17.0032 8.83337 17.0022C8.83337 17.0011 8.83337 17.0001 8.83337 16.9991C8.83337 16.998 8.83337 16.997 8.83337 16.996C8.83337 16.995 8.83337 16.9939 8.83337 16.9929C8.83337 16.9919 8.83337 16.9909 8.83337 16.9898C8.83337 16.9888 8.83337 16.9878 8.83337 16.9868C8.83337 16.9858 8.83337 16.9847 8.83337 16.9837C8.83337 16.9827 8.83337 16.9817 8.83337 16.9806C8.83337 16.9796 8.83337 16.9786 8.83337 16.9776C8.83337 16.9765 8.83337 16.9755 8.83337 16.9745C8.83337 16.9735 8.83337 16.9724 8.83337 16.9714C8.83337 16.9704 8.83337 16.9694 8.83337 16.9684C8.83337 16.9673 8.83337 16.9663 8.83337 16.9653C8.83337 16.9643 8.83337 16.9633 8.83337 16.9622C8.83337 16.9612 8.83337 16.9602 8.83337 16.9592C8.83337 16.9581 8.83337 16.9571 8.83337 16.9561C8.83337 16.9551 8.83337 16.9541 8.83337 16.953C8.83337 16.952 8.83337 16.951 8.83337 16.95C8.83337 16.949 8.83337 16.9479 8.83337 16.9469C8.83337 16.9459 8.83337 16.9449 8.83337 16.9439C8.83337 16.9428 8.83337 16.9418 8.83337 16.9408C8.83337 16.9398 8.83337 16.9388 8.83337 16.9378C8.83337 16.9367 8.83337 16.9357 8.83337 16.9347C8.83337 16.9337 8.83337 16.9327 8.83337 16.9316C8.83337 16.9306 8.83337 16.9296 8.83337 16.9286C8.83337 16.9276 8.83337 16.9266 8.83337 16.9255C8.83337 16.9245 8.83337 16.9235 8.83337 16.9225C8.83337 16.9215 8.83337 16.9205 8.83337 16.9194C8.83337 16.9184 8.83337 16.9174 8.83337 16.9164C8.83337 16.9154 8.83337 16.9144 8.83337 16.9134C8.83337 16.9123 8.83337 16.9113 8.83337 16.9103C8.83337 16.9093 8.83337 16.9083 8.83337 16.9073C8.83337 16.9063 8.83337 16.9052 8.83337 16.9042C8.83337 16.9032 8.83337 16.9022 8.83337 16.9012C8.83337 16.9002 8.83337 16.8992 8.83337 16.8981C8.83337 16.8971 8.83337 16.8961 8.83337 16.8951C8.83337 16.8941 8.83337 16.8931 8.83337 16.8921C8.83337 16.8911 8.83337 16.89 8.83337 16.889C8.83337 16.888 8.83337 16.887 8.83337 16.886C8.83337 16.885 8.83337 16.884 8.83337 16.883C8.83337 16.882 8.83337 16.8809 8.83337 16.8799C8.83337 16.8789 8.83337 16.8779 8.83337 16.8769C8.83337 16.8759 8.83337 16.8749 8.83337 16.8739C8.83337 16.8729 8.83337 16.8718 8.83337 16.8708C8.83337 16.8698 8.83337 16.8688 8.83337 16.8678C8.83337 16.8668 8.83337 16.8658 8.83337 16.8648C8.83337 16.8638 8.83337 16.8628 8.83337 16.8618C8.83337 16.8608 8.83337 16.8597 8.83337 16.8587C8.83337 16.8577 8.83337 16.8567 8.83337 16.8557C8.83337 16.8547 8.83337 16.8537 8.83337 16.8527C8.83337 16.8517 8.83337 16.8507 8.83337 16.8497C8.83337 16.8487 8.83337 16.8477 8.83337 16.8466C8.83337 16.8456 8.83337 16.8446 8.83337 16.8436C8.83337 16.8426 8.83337 16.8416 8.83337 16.8406C8.83337 16.8396 8.83337 16.8386 8.83337 16.8376C8.83337 16.8366 8.83337 16.8356 8.83337 16.8346C8.83337 16.8336 8.83337 16.8326 8.83337 16.8316C8.83337 16.8306 8.83337 16.8296 8.83337 16.8286C8.83337 16.8275 8.83337 16.8265 8.83337 16.8255C8.83337 16.8245 8.83337 16.8235 8.83337 16.8225C8.83337 16.8215 8.83337 16.8205 8.83337 16.8195C8.83337 16.8185 8.83337 16.8175 8.83337 16.8165C8.83337 16.8155 8.83337 16.8145 8.83337 16.8135C8.83337 16.8125 8.83337 16.8115 8.83337 16.8105C8.83337 16.8095 8.83337 16.8085 8.83337 16.8075C8.83337 16.8065 8.83337 16.8055 8.83337 16.8045C8.83337 16.8035 8.83337 16.8025 8.83337 16.8015C8.83337 16.8005 8.83337 16.7995 8.83337 16.7985C8.83337 16.7975 8.83337 16.7965 8.83337 16.7955C8.83337 16.7945 8.83337 16.7935 8.83337 16.7925C8.83337 16.7915 8.83337 16.7905 8.83337 16.7895C8.83337 16.7885 8.83337 16.7875 8.83337 16.7865C8.83337 16.7855 8.83337 16.7845 8.83337 16.7835C8.83337 16.7825 8.83337 16.7815 8.83337 16.7805C8.83337 16.7795 8.83337 16.7785 8.83337 16.7775C8.83337 16.7765 8.83337 16.7755 8.83337 16.7745C8.83337 16.7735 8.83337 16.7725 8.83337 16.7715C8.83337 16.7705 8.83337 16.7695 8.83337 16.7685C8.83337 16.7676 8.83337 16.7666 8.83337 16.7656H7.83337C7.83337 16.7666 7.83337 16.7676 7.83337 16.7685C7.83337 16.7695 7.83337 16.7705 7.83337 16.7715C7.83337 16.7725 7.83337 16.7735 7.83337 16.7745C7.83337 16.7755 7.83337 16.7765 7.83337 16.7775C7.83337 16.7785 7.83337 16.7795 7.83337 16.7805C7.83337 16.7815 7.83337 16.7825 7.83337 16.7835C7.83337 16.7845 7.83337 16.7855 7.83337 16.7865C7.83337 16.7875 7.83337 16.7885 7.83337 16.7895C7.83337 16.7905 7.83337 16.7915 7.83337 16.7925C7.83337 16.7935 7.83337 16.7945 7.83337 16.7955C7.83337 16.7965 7.83337 16.7975 7.83337 16.7985C7.83337 16.7995 7.83337 16.8005 7.83337 16.8015C7.83337 16.8025 7.83337 16.8035 7.83337 16.8045C7.83337 16.8055 7.83337 16.8065 7.83337 16.8075C7.83337 16.8085 7.83337 16.8095 7.83337 16.8105C7.83337 16.8115 7.83337 16.8125 7.83337 16.8135C7.83337 16.8145 7.83337 16.8155 7.83337 16.8165C7.83337 16.8175 7.83337 16.8185 7.83337 16.8195C7.83337 16.8205 7.83337 16.8215 7.83337 16.8225C7.83337 16.8235 7.83337 16.8245 7.83337 16.8255C7.83337 16.8265 7.83337 16.8275 7.83337 16.8286C7.83337 16.8296 7.83337 16.8306 7.83337 16.8316C7.83337 16.8326 7.83337 16.8336 7.83337 16.8346C7.83337 16.8356 7.83337 16.8366 7.83337 16.8376C7.83337 16.8386 7.83337 16.8396 7.83337 16.8406C7.83337 16.8416 7.83337 16.8426 7.83337 16.8436C7.83337 16.8446 7.83337 16.8456 7.83337 16.8466C7.83337 16.8477 7.83337 16.8487 7.83337 16.8497C7.83337 16.8507 7.83337 16.8517 7.83337 16.8527C7.83337 16.8537 7.83337 16.8547 7.83337 16.8557C7.83337 16.8567 7.83337 16.8577 7.83337 16.8587C7.83337 16.8597 7.83337 16.8608 7.83337 16.8618C7.83337 16.8628 7.83337 16.8638 7.83337 16.8648C7.83337 16.8658 7.83337 16.8668 7.83337 16.8678C7.83337 16.8688 7.83337 16.8698 7.83337 16.8708C7.83337 16.8718 7.83337 16.8729 7.83337 16.8739C7.83337 16.8749 7.83337 16.8759 7.83337 16.8769C7.83337 16.8779 7.83337 16.8789 7.83337 16.8799C7.83337 16.8809 7.83337 16.882 7.83337 16.883C7.83337 16.884 7.83337 16.885 7.83337 16.886C7.83337 16.887 7.83337 16.888 7.83337 16.889C7.83337 16.89 7.83337 16.8911 7.83337 16.8921C7.83337 16.8931 7.83337 16.8941 7.83337 16.8951C7.83337 16.8961 7.83337 16.8971 7.83337 16.8981C7.83337 16.8992 7.83337 16.9002 7.83337 16.9012C7.83337 16.9022 7.83337 16.9032 7.83337 16.9042C7.83337 16.9052 7.83337 16.9063 7.83337 16.9073C7.83337 16.9083 7.83337 16.9093 7.83337 16.9103C7.83337 16.9113 7.83337 16.9123 7.83337 16.9134C7.83337 16.9144 7.83337 16.9154 7.83337 16.9164C7.83337 16.9174 7.83337 16.9184 7.83337 16.9194C7.83337 16.9205 7.83337 16.9215 7.83337 16.9225C7.83337 16.9235 7.83337 16.9245 7.83337 16.9255C7.83337 16.9266 7.83337 16.9276 7.83337 16.9286C7.83337 16.9296 7.83337 16.9306 7.83337 16.9316C7.83337 16.9327 7.83337 16.9337 7.83337 16.9347C7.83337 16.9357 7.83337 16.9367 7.83337 16.9378C7.83337 16.9388 7.83337 16.9398 7.83337 16.9408C7.83337 16.9418 7.83337 16.9428 7.83337 16.9439C7.83337 16.9449 7.83337 16.9459 7.83337 16.9469C7.83337 16.9479 7.83337 16.949 7.83337 16.95C7.83337 16.951 7.83337 16.952 7.83337 16.953C7.83337 16.9541 7.83337 16.9551 7.83337 16.9561C7.83337 16.9571 7.83337 16.9581 7.83337 16.9592C7.83337 16.9602 7.83337 16.9612 7.83337 16.9622C7.83337 16.9633 7.83337 16.9643 7.83337 16.9653C7.83337 16.9663 7.83337 16.9673 7.83337 16.9684C7.83337 16.9694 7.83337 16.9704 7.83337 16.9714C7.83337 16.9724 7.83337 16.9735 7.83337 16.9745C7.83337 16.9755 7.83337 16.9765 7.83337 16.9776C7.83337 16.9786 7.83337 16.9796 7.83337 16.9806C7.83337 16.9817 7.83337 16.9827 7.83337 16.9837C7.83337 16.9847 7.83337 16.9858 7.83337 16.9868C7.83337 16.9878 7.83337 16.9888 7.83337 16.9898C7.83337 16.9909 7.83337 16.9919 7.83337 16.9929C7.83337 16.9939 7.83337 16.995 7.83337 16.996C7.83337 16.997 7.83337 16.998 7.83337 16.9991C7.83337 17.0001 7.83337 17.0011 7.83337 17.0022C7.83337 17.0032 7.83337 17.0042 7.83337 17.0052C7.83337 17.0063 7.83337 17.0073 7.83337 17.0083C7.83337 17.0093 7.83337 17.0104 7.83337 17.0114C7.83337 17.0124 7.83337 17.0134 7.83337 17.0145C7.83337 17.0155 7.83337 17.0165 7.83337 17.0176C7.83337 17.0186 7.83337 17.0196 7.83337 17.0206C7.83337 17.0217 7.83337 17.0227 7.83337 17.0237C7.83337 17.0248 7.83337 17.0258 7.83337 17.0268C7.83337 17.0278 7.83337 17.0289 7.83337 17.0299C7.83337 17.0309 7.83337 17.032 7.83337 17.033C7.83337 17.034 7.83337 17.0351 7.83337 17.0361C7.83337 17.0371 7.83337 17.0381 7.83337 17.0392C7.83337 17.0402 7.83337 17.0412 7.83337 17.0423C7.83337 17.0433 7.83337 17.0443 7.83337 17.0454C7.83337 17.0464 7.83337 17.0474 7.83337 17.0485C7.83337 17.0495 7.83337 17.0505 7.83337 17.0516C7.83337 17.0526 7.83337 17.0536 7.83337 17.0546C7.83337 17.0557 7.83337 17.0567 7.83337 17.0577C7.83337 17.0588 7.83337 17.0598 7.83337 17.0608C7.83337 17.0619 7.83337 17.0629 7.83337 17.0639C7.83337 17.065 7.83337 17.066 7.83337 17.067C7.83337 17.0681 7.83337 17.0691 7.83337 17.0702C7.83337 17.0712 7.83337 17.0722 7.83337 17.0733C7.83337 17.0743 7.83337 17.0753 7.83337 17.0764C7.83337 17.0774 7.83337 17.0784 7.83337 17.0795C7.83337 17.0805 7.83337 17.0815 7.83337 17.0826C7.83337 17.0836 7.83337 17.0846 7.83337 17.0857C7.83337 17.0867 7.83337 17.0878 7.83337 17.0888C7.83337 17.0898 7.83337 17.0909 7.83337 17.0919C7.83337 17.0929 7.83337 17.094 7.83337 17.095C7.83337 17.096 7.83337 17.0971 7.83337 17.0981C7.83337 17.0992 7.83337 17.1002 7.83337 17.1012C7.83337 17.1023 7.83337 17.1033 7.83337 17.1044C7.83337 17.1054 7.83337 17.1064 7.83337 17.1075C7.83337 17.1085 7.83337 17.1095 7.83337 17.1106C7.83337 17.1116 7.83337 17.1127 7.83337 17.1137C7.83337 17.1147 7.83337 17.1158 7.83337 17.1168C7.83337 17.1179 7.83337 17.1189 7.83337 17.1199C7.83337 17.121 7.83337 17.122 7.83337 17.1231C7.83337 17.1241 7.83337 17.1251 7.83337 17.1262C7.83337 17.1272 7.83337 17.1283 7.83337 17.1293C7.83337 17.1303 7.83337 17.1314 7.83337 17.1324C7.83337 17.1335 7.83337 17.1345 7.83337 17.1356C7.83337 17.1366 7.83337 17.1376 7.83337 17.1387C7.83337 17.1397 7.83337 17.1408 7.83337 17.1418C7.83337 17.1429 7.83337 17.1439 7.83337 17.1449C7.83337 17.146 7.83337 17.147 7.83337 17.1481C7.83337 17.1491 7.83337 17.1502 7.83337 17.1512C7.83337 17.1522 7.83337 17.1533 7.83337 17.1543C7.83337 17.1554 7.83337 17.1564 7.83337 17.1575C7.83337 17.1585 7.83337 17.1596 7.83337 17.1606C7.83337 17.1616 7.83337 17.1627 7.83337 17.1637C7.83337 17.1648 7.83337 17.1658 7.83337 17.1669C7.83337 17.1679 7.83337 17.169 7.83337 17.17C7.83337 17.1711 7.83337 17.1721 7.83337 17.1731C7.83337 17.1742 7.83337 17.1752 7.83337 17.1763C7.83337 17.1773 7.83337 17.1784 7.83337 17.1794C7.83337 17.1805 7.83337 17.1815 7.83337 17.1826C7.83337 17.1836 7.83337 17.1847 7.83337 17.1857C7.83337 17.1868 7.83337 17.1878 7.83337 17.1889C7.83337 17.1899 7.83337 17.191 7.83337 17.192C7.83337 17.1931 7.83337 17.1941 7.83337 17.1951C7.83337 17.1962 7.83337 17.1972 7.83337 17.1983C7.83337 17.1993 7.83337 17.2004 7.83337 17.2014C7.83337 17.2025 7.83337 17.2035 7.83337 17.2046C7.83337 17.2056 7.83337 17.2067 7.83337 17.2077C7.83337 17.2088 7.83337 17.2098 7.83337 17.2109C7.83337 17.2119 7.83337 17.213 7.83337 17.214C7.83337 17.2151 7.83337 17.2161 7.83337 17.2172C7.83337 17.2183 7.83337 17.2193 7.83337 17.2204C7.83337 17.2214 7.83337 17.2225 7.83337 17.2235C7.83337 17.2246 7.83337 17.2256 7.83337 17.2267C7.83337 17.2277 7.83337 17.2288 7.83337 17.2298C7.83337 17.2309 7.83337 17.2319 7.83337 17.233C7.83337 17.234 7.83337 17.2351 7.83337 17.2361C7.83337 17.2372 7.83337 17.2382 7.83337 17.2393C7.83337 17.2404 7.83337 17.2414 7.83337 17.2425C7.83337 17.2435 7.83337 17.2446 7.83337 17.2456C7.83337 17.2467 7.83337 17.2477 7.83337 17.2488C7.83337 17.2498 7.83337 17.2509 7.83337 17.252C7.83337 17.253 7.83337 17.2541 7.83337 17.2551C7.83337 17.2562 7.83337 17.2572 7.83337 17.2583C7.83337 17.2593 7.83337 17.2604 7.83337 17.2615C7.83337 17.2625 7.83337 17.2636 7.83337 17.2646C7.83337 17.2657 7.83337 17.2667 7.83337 17.2678C7.83337 17.2689 7.83337 17.2699 7.83337 17.271C7.83337 17.272 7.83337 17.2731 7.83337 17.2741C7.83337 17.2752 7.83337 17.2763 7.83337 17.2773C7.83337 17.2784 7.83337 17.2794 7.83337 17.2805C7.83337 17.2815 7.83337 17.2826 7.83337 17.2837C7.83337 17.2847 7.83337 17.2858 7.83337 17.2868C7.83337 17.2879 7.83337 17.289 7.83337 17.29C7.83337 17.2911 7.83337 17.2921 7.83337 17.2932C7.83337 17.2943 7.83337 17.2953 7.83337 17.2964C7.83337 17.2974 7.83337 17.2985 7.83337 17.2996C7.83337 17.3006 7.83337 17.3017 7.83337 17.3027C7.83337 17.3038 7.83337 17.3049 7.83337 17.3059C7.83337 17.307 7.83337 17.308 7.83337 17.3091C7.83337 17.3102 7.83337 17.3112 7.83337 17.3123C7.83337 17.3134 7.83337 17.3144 7.83337 17.3155C7.83337 17.3165 7.83337 17.3176 7.83337 17.3187C7.83337 17.3197 7.83337 17.3208 7.83337 17.3218C7.83337 17.3229 7.83337 17.324 7.83337 17.325C7.83337 17.3261 7.83337 17.3272 7.83337 17.3282C7.83337 17.3293 7.83337 17.3304 7.83337 17.3314C7.83337 17.3325 7.83337 17.3335 7.83337 17.3346C7.83337 17.3357 7.83337 17.3367 7.83337 17.3378C7.83337 17.3389 7.83337 17.3399 7.83337 17.341C7.83337 17.3421 7.83337 17.3431 7.83337 17.3442C7.83337 17.3453 7.83337 17.3463 7.83337 17.3474C7.83337 17.3485 7.83337 17.3495 7.83337 17.3506C7.83337 17.3517 7.83337 17.3527 7.83337 17.3538C7.83337 17.3548 7.83337 17.3559 7.83337 17.357C7.83337 17.358 7.83337 17.3591 7.83337 17.3602C7.83337 17.3612 7.83337 17.3623 7.83337 17.3634C7.83337 17.3644 7.83337 17.3655 7.83337 17.3666C7.83337 17.3677 7.83337 17.3687 7.83337 17.3698C7.83337 17.3709 7.83337 17.3719 7.83337 17.373C7.83337 17.3741 7.83337 17.3751 7.83337 17.3762C7.83337 17.3773 7.83337 17.3783 7.83337 17.3794C7.83337 17.3805 7.83337 17.3815 7.83337 17.3826C7.83337 17.3837 7.83337 17.3847 7.83337 17.3858C7.83337 17.3869 7.83337 17.388 7.83337 17.389C7.83337 17.3901 7.83337 17.3912 7.83337 17.3922C7.83337 17.3933 7.83337 17.3944 7.83337 17.3954C7.83337 17.3965 7.83337 17.3976 7.83337 17.3987C7.83337 17.3997 7.83337 17.4008 7.83337 17.4019C7.83337 17.4029 7.83337 17.404 7.83337 17.4051C7.83337 17.4062 7.83337 17.4072 7.83337 17.4083C7.83337 17.4094 7.83337 17.4104 7.83337 17.4115C7.83337 17.4126 7.83337 17.4137 7.83337 17.4147C7.83337 17.4158 7.83337 17.4169 7.83337 17.4179C7.83337 17.419 7.83337 17.4201 7.83337 17.4212C7.83337 17.4222 7.83337 17.4233 7.83337 17.4244C7.83337 17.4255 7.83337 17.4265 7.83337 17.4276C7.83337 17.4287 7.83337 17.4298 7.83337 17.4308C7.83337 17.4319 7.83337 17.433 7.83337 17.4341C7.83337 17.4351 7.83337 17.4362 7.83337 17.4373C7.83337 17.4384 7.83337 17.4394 7.83337 17.4405C7.83337 17.4416 7.83337 17.4427 7.83337 17.4437C7.83337 17.4448 7.83337 17.4459 7.83337 17.447C7.83337 17.448 7.83337 17.4491 7.83337 17.4502C7.83337 17.4513 7.83337 17.4523 7.83337 17.4534C7.83337 17.4545 7.83337 17.4556 7.83337 17.4566C7.83337 17.4577 7.83337 17.4588 7.83337 17.4599C7.83337 17.4609 7.83337 17.462 7.83337 17.4631C7.83337 17.4642 7.83337 17.4653 7.83337 17.4663C7.83337 17.4674 7.83337 17.4685 7.83337 17.4696C7.83337 17.4706 7.83337 17.4717 7.83337 17.4728C7.83337 17.4739 7.83337 17.475 7.83337 17.476C7.83337 17.4771 7.83337 17.4782 7.83337 17.4793C7.83337 17.4804 7.83337 17.4814 7.83337 17.4825C7.83337 17.4836 7.83337 17.4847 7.83337 17.4858C7.83337 17.4868 7.83337 17.4879 7.83337 17.489C7.83337 17.4901 7.83337 17.4912 7.83337 17.4922C7.83337 17.4933 7.83337 17.4944 7.83337 17.4955C7.83337 17.4966 7.83337 17.4976 7.83337 17.4987C7.83337 17.4998 7.83337 17.5009 7.83337 17.502C7.83337 17.503 7.83337 17.5041 7.83337 17.5052C7.83337 17.5063 7.83337 17.5074 7.83337 17.5084C7.83337 17.5095 7.83337 17.5106 7.83337 17.5117C7.83337 17.5128 7.83337 17.5139 7.83337 17.5149C7.83337 17.516 7.83337 17.5171 7.83337 17.5182C7.83337 17.5193 7.83337 17.5204 7.83337 17.5214C7.83337 17.5225 7.83337 17.5236 7.83337 17.5247C7.83337 17.5258 7.83337 17.5269 7.83337 17.5279C7.83337 17.529 7.83337 17.5301 7.83337 17.5312C7.83337 17.5323 7.83337 17.5334 7.83337 17.5344C7.83337 17.5355 7.83337 17.5366 7.83337 17.5377C7.83337 17.5388 7.83337 17.5399 7.83337 17.541C7.83337 17.542 7.83337 17.5431 7.83337 17.5442C7.83337 17.5453 7.83337 17.5464 7.83337 17.5475C7.83337 17.5485 7.83337 17.5496 7.83337 17.5507C7.83337 17.5518 7.83337 17.5529 7.83337 17.554C7.83337 17.5551 7.83337 17.5562 7.83337 17.5572C7.83337 17.5583 7.83337 17.5594 7.83337 17.5605C7.83337 17.5616 7.83337 17.5627 7.83337 17.5638C7.83337 17.5648 7.83337 17.5659 7.83337 17.567C7.83337 17.5681 7.83337 17.5692 7.83337 17.5703C7.83337 17.5714 7.83337 17.5725 7.83337 17.5735C7.83337 17.5746 7.83337 17.5757 7.83337 17.5768C7.83337 17.5779 7.83337 17.579 7.83337 17.5801C7.83337 17.5812 7.83337 17.5823 7.83337 17.5833C7.83337 17.5844 7.83337 17.5855 7.83337 17.5866C7.83337 17.5877 7.83337 17.5888 7.83337 17.5899C7.83337 17.591 7.83337 17.5921 7.83337 17.5932C7.83337 17.5942 7.83337 17.5953 7.83337 17.5964C7.83337 17.5975 7.83337 17.5986 7.83337 17.5997C7.83337 17.6008 7.83337 17.6019 7.83337 17.603C7.83337 17.6041 7.83337 17.6051 7.83337 17.6062C7.83337 17.6073 7.83337 17.6084 7.83337 17.6095C7.83337 17.6106 7.83337 17.6117 7.83337 17.6128C7.83337 17.6139 7.83337 17.615 7.83337 17.6161C7.83337 17.6172 7.83337 17.6183 7.83337 17.6193C7.83337 17.6204 7.83337 17.6215 7.83337 17.6226C7.83337 17.6237 7.83337 17.6248 7.83337 17.6259C7.83337 17.627 7.83337 17.6281 7.83337 17.6292C7.83337 17.6303 7.83337 17.6314 7.83337 17.6325C7.83337 17.6336 7.83337 17.6346 7.83337 17.6357C7.83337 17.6368 7.83337 17.6379 7.83337 17.639C7.83337 17.6401 7.83337 17.6412 7.83337 17.6423C7.83337 17.6434 7.83337 17.6445 7.83337 17.6456C7.83337 17.6467 7.83337 17.6478 7.83337 17.6489C7.83337 17.65 7.83337 17.6511 7.83337 17.6522C7.83337 17.6533 7.83337 17.6544 7.83337 17.6555C7.83337 17.6565 7.83337 17.6576 7.83337 17.6587C7.83337 17.6598 7.83337 17.6609 7.83337 17.662C7.83337 17.6631 7.83337 17.6642 7.83337 17.6653C7.83337 17.6664 7.83337 17.6675 7.83337 17.6686C7.83337 17.6697 7.83337 17.6708 7.83337 17.6719C7.83337 17.673 7.83337 17.6741 7.83337 17.6752C7.83337 17.6763 7.83337 17.6774 7.83337 17.6785C7.83337 17.6796 7.83337 17.6807 7.83337 17.6818C7.83337 17.6829 7.83337 17.684 7.83337 17.6851C7.83337 17.6862 7.83337 17.6873 7.83337 17.6884C7.83337 17.6895 7.83337 17.6906 7.83337 17.6917C7.83337 17.6928 7.83337 17.6939 7.83337 17.695C7.83337 17.6961 7.83337 17.6972 7.83337 17.6983C7.83337 17.6994 7.83337 17.7005 7.83337 17.7016C7.83337 17.7027 7.83337 17.7038 7.83337 17.7049C7.83337 17.706 7.83337 17.7071 7.83337 17.7082C7.83337 17.7093 7.83337 17.7104 7.83337 17.7115C7.83337 17.7126 7.83337 17.7137 7.83337 17.7148C7.83337 17.7159 7.83337 17.717 7.83337 17.7181C7.83337 17.7192 7.83337 17.7203 7.83337 17.7214C7.83337 17.7225 7.83337 17.7236 7.83337 17.7247C7.83337 17.7258 7.83337 17.7269 7.83337 17.728C7.83337 17.7291 7.83337 17.7302 7.83337 17.7313C7.83337 17.7324 7.83337 17.7335 7.83337 17.7346C7.83337 17.7357 7.83337 17.7368 7.83337 17.7379C7.83337 17.739 7.83337 17.7401 7.83337 17.7412C7.83337 17.7423 7.83337 17.7434 7.83337 17.7445C7.83337 17.7456 7.83337 17.7468 7.83337 17.7479C7.83337 17.749 7.83337 17.7501 7.83337 17.7512C7.83337 17.7523 7.83337 17.7534 7.83337 17.7545C7.83337 17.7556 7.83337 17.7567 7.83337 17.7578C7.83337 17.7589 7.83337 17.76 7.83337 17.7611C7.83337 17.7622 7.83337 17.7633 7.83337 17.7644C7.83337 17.7655 7.83337 17.7666 7.83337 17.7677C7.83337 17.7689 7.83337 17.77 7.83337 17.7711C7.83337 17.7722 7.83337 17.7733 7.83337 17.7744C7.83337 17.7755 7.83337 17.7766 7.83337 17.7777C7.83337 17.7788 7.83337 17.7799 7.83337 17.781C7.83337 17.7821 7.83337 17.7832 7.83337 17.7843C7.83337 17.7855 7.83337 17.7866 7.83337 17.7877C7.83337 17.7888 7.83337 17.7899 7.83337 17.791C7.83337 17.7921 7.83337 17.7932 7.83337 17.7943C7.83337 17.7954 7.83337 17.7965 7.83337 17.7976C7.83337 17.7987 7.83337 17.7999 7.83337 17.801C7.83337 17.8021 7.83337 17.8032 7.83337 17.8043C7.83337 17.8054 7.83337 17.8065 7.83337 17.8076C7.83337 17.8087 7.83337 17.8098 7.83337 17.811C7.83337 17.8121 7.83337 17.8132 7.83337 17.8143C7.83337 17.8154 7.83337 17.8165 7.83337 17.8176C7.83337 17.8187 7.83337 17.8198 7.83337 17.8209C7.83337 17.8221 7.83337 17.8232 7.83337 17.8243C7.83337 17.8254 7.83337 17.8265 7.83337 17.8276C7.83337 17.8287 7.83337 17.8298 7.83337 17.8309C7.83337 17.8321 7.83337 17.8332 7.83337 17.8343C7.83337 17.8354 7.83337 17.8365 7.83337 17.8376C7.83337 17.8387 7.83337 17.8398 7.83337 17.8409C7.83337 17.8421 7.83337 17.8432 7.83337 17.8443C7.83337 17.8454 7.83337 17.8465 7.83337 17.8476C7.83337 17.8487 7.83337 17.8498 7.83337 17.851C7.83337 17.8521 7.83337 17.8532 7.83337 17.8543C7.83337 17.8554 7.83337 17.8565 7.83337 17.8576C7.83337 17.8588 7.83337 17.8599 7.83337 17.861C7.83337 17.8621 7.83337 17.8632 7.83337 17.8643C7.83337 17.8654 7.83337 17.8666 7.83337 17.8677C7.83337 17.8688 7.83337 17.8699 7.83337 17.871C7.83337 17.8721 7.83337 17.8732 7.83337 17.8744C7.83337 17.8755 7.83337 17.8766 7.83337 17.8777C7.83337 17.8788 7.83337 17.8799 7.83337 17.881C7.83337 17.8822 7.83337 17.8833 7.83337 17.8844C7.83337 17.8855 7.83337 17.8866 7.83337 17.8877C7.83337 17.8889 7.83337 17.89 7.83337 17.8911C7.83337 17.8922 7.83337 17.8933 7.83337 17.8944C7.83337 17.8956 7.83337 17.8967 7.83337 17.8978C7.83337 17.8989 7.83337 17.9 7.83337 17.9011C7.83337 17.9023 7.83337 17.9034 7.83337 17.9045C7.83337 17.9056 7.83337 17.9067 7.83337 17.9078C7.83337 17.909 7.83337 17.9101 7.83337 17.9112C7.83337 17.9123 7.83337 17.9134 7.83337 17.9146C7.83337 17.9157 7.83337 17.9168 7.83337 17.9179C7.83337 17.919 7.83337 17.9202 7.83337 17.9213C7.83337 17.9224 7.83337 17.9235 7.83337 17.9246C7.83337 17.9257 7.83337 17.9269 7.83337 17.928C7.83337 17.9291 7.83337 17.9302 7.83337 17.9313C7.83337 17.9325 7.83337 17.9336 7.83337 17.9347C7.83337 17.9358 7.83337 17.9369 7.83337 17.9381C7.83337 17.9392 7.83337 17.9403 7.83337 17.9414C7.83337 17.9425 7.83337 17.9437 7.83337 17.9448C7.83337 17.9459 7.83337 17.947 7.83337 17.9481C7.83337 17.9493 7.83337 17.9504 7.83337 17.9515C7.83337 17.9526 7.83337 17.9538 7.83337 17.9549C7.83337 17.956 7.83337 17.9571 7.83337 17.9582C7.83337 17.9594 7.83337 17.9605 7.83337 17.9616C7.83337 17.9627 7.83337 17.9639 7.83337 17.965C7.83337 17.9661 7.83337 17.9672 7.83337 17.9683C7.83337 17.9695 7.83337 17.9706 7.83337 17.9717C7.83337 17.9728 7.83337 17.974 7.83337 17.9751C7.83337 17.9762 7.83337 17.9773 7.83337 17.9785C7.83337 17.9796 7.83337 17.9807 7.83337 17.9818C7.83337 17.9829 7.83337 17.9841 7.83337 17.9852C7.83337 17.9863 7.83337 17.9874 7.83337 17.9886C7.83337 17.9897 7.83337 17.9908 7.83337 17.9919C7.83337 17.9931 7.83337 17.9942 7.83337 17.9953C7.83337 17.9964 7.83337 17.9976 7.83337 17.9987C7.83337 17.9998 7.83337 18.0009 7.83337 18.0021C7.83337 18.0032 7.83337 18.0043 7.83337 18.0054C7.83337 18.0066 7.83337 18.0077 7.83337 18.0088C7.83337 18.0099 7.83337 18.0111 7.83337 18.0122C7.83337 18.0133 7.83337 18.0144 7.83337 18.0156C7.83337 18.0167 7.83337 18.0178 7.83337 18.019C7.83337 18.0201 7.83337 18.0212 7.83337 18.0223C7.83337 18.0235 7.83337 18.0246 7.83337 18.0257C7.83337 18.0268 7.83337 18.028 7.83337 18.0291C7.83337 18.0302 7.83337 18.0314 7.83337 18.0325C7.83337 18.0336 7.83337 18.0347 7.83337 18.0359C7.83337 18.037 7.83337 18.0381 7.83337 18.0393C7.83337 18.0404 7.83337 18.0415 7.83337 18.0426C7.83337 18.0438 7.83337 18.0449 7.83337 18.046C7.83337 18.0472 7.83337 18.0483 7.83337 18.0494C7.83337 18.0505 7.83337 18.0517 7.83337 18.0528C7.83337 18.0539 7.83337 18.0551 7.83337 18.0562C7.83337 18.0573 7.83337 18.0584 7.83337 18.0596C7.83337 18.0607 7.83337 18.0618 7.83337 18.063C7.83337 18.0641 7.83337 18.0652 7.83337 18.0664C7.83337 18.0675 7.83337 18.0686 7.83337 18.0697C7.83337 18.0709 7.83337 18.072 7.83337 18.0731C7.83337 18.0743 7.83337 18.0754 7.83337 18.0765C7.83337 18.0777 7.83337 18.0788 7.83337 18.0799C7.83337 18.0811 7.83337 18.0822 7.83337 18.0833C7.83337 18.0845 7.83337 18.0856 7.83337 18.0867C7.83337 18.0878 7.83337 18.089 7.83337 18.0901C7.83337 18.0912 7.83337 18.0924 7.83337 18.0935C7.83337 18.0946 7.83337 18.0958 7.83337 18.0969C7.83337 18.098 7.83337 18.0992 7.83337 18.1003C7.83337 18.1014 7.83337 18.1026 7.83337 18.1037C7.83337 18.1048 7.83337 18.106 7.83337 18.1071C7.83337 18.1082 7.83337 18.1094 7.83337 18.1105C7.83337 18.1116 7.83337 18.1128 7.83337 18.1139C7.83337 18.115 7.83337 18.1162 7.83337 18.1173C7.83337 18.1184 7.83337 18.1196 7.83337 18.1207C7.83337 18.1218 7.83337 18.123 7.83337 18.1241C7.83337 18.1252 7.83337 18.1264 7.83337 18.1275C7.83337 18.1287 7.83337 18.1298 7.83337 18.1309C7.83337 18.1321 7.83337 18.1332 7.83337 18.1343C7.83337 18.1355 7.83337 18.1366 7.83337 18.1377C7.83337 18.1389 7.83337 18.14 7.83337 18.1411C7.83337 18.1423 7.83337 18.1434 7.83337 18.1446C7.83337 18.1457 7.83337 18.1468 7.83337 18.148C7.83337 18.1491 7.83337 18.1502 7.83337 18.1514C7.83337 18.1525 7.83337 18.1536 7.83337 18.1548C7.83337 18.1559 7.83337 18.1571 7.83337 18.1582C7.83337 18.1593 7.83337 18.1605 7.83337 18.1616C7.83337 18.1627 7.83337 18.1639 7.83337 18.165C7.83337 18.1662 7.83337 18.1673 7.83337 18.1684C7.83337 18.1696 7.83337 18.1707 7.83337 18.1718C7.83337 18.173 7.83337 18.1741 7.83337 18.1753C7.83337 18.1764 7.83337 18.1775 7.83337 18.1787C7.83337 18.1798 7.83337 18.181 7.83337 18.1821C7.83337 18.1832 7.83337 18.1844 7.83337 18.1855C7.83337 18.1866 7.83337 18.1878 7.83337 18.1889C7.83337 18.1901 7.83337 18.1912 7.83337 18.1923C7.83337 18.1935 7.83337 18.1946 7.83337 18.1958C7.83337 18.1969 7.83337 18.198 7.83337 18.1992C7.83337 18.2003 7.83337 18.2015 7.83337 18.2026C7.83337 18.2037 7.83337 18.2049 7.83337 18.206C7.83337 18.2072 7.83337 18.2083 7.83337 18.2094C7.83337 18.2106 7.83337 18.2117 7.83337 18.2129C7.83337 18.214 7.83337 18.2152 7.83337 18.2163C7.83337 18.2174 7.83337 18.2186 7.83337 18.2197C7.83337 18.2209 7.83337 18.222 7.83337 18.2231C7.83337 18.2243 7.83337 18.2254 7.83337 18.2266C7.83337 18.2277 7.83337 18.2289 7.83337 18.23C7.83337 18.2311 7.83337 18.2323 7.83337 18.2334C7.83337 18.2346 7.83337 18.2357 7.83337 18.2369C7.83337 18.238 7.83337 18.2391 7.83337 18.2403C7.83337 18.2414 7.83337 18.2426 7.83337 18.2437C7.83337 18.2449 7.83337 18.246 7.83337 18.2471C7.83337 18.2483 7.83337 18.2494 7.83337 18.2506C7.83337 18.2517 7.83337 18.2529 7.83337 18.254C7.83337 18.2551 7.83337 18.2563 7.83337 18.2574C7.83337 18.2586 7.83337 18.2597 7.83337 18.2609C7.83337 18.262 7.83337 18.2632 7.83337 18.2643C7.83337 18.2654 7.83337 18.2666 7.83337 18.2677C7.83337 18.2689 7.83337 18.27 7.83337 18.2712C7.83337 18.2723 7.83337 18.2735 7.83337 18.2746C7.83337 18.2758 7.83337 18.2769 7.83337 18.278C7.83337 18.2792 7.83337 18.2803 7.83337 18.2815C7.83337 18.2826 7.83337 18.2838 7.83337 18.2849C7.83337 18.2861 7.83337 18.2872 7.83337 18.2884C7.83337 18.2895 7.83337 18.2907 7.83337 18.2918C7.83337 18.2929 7.83337 18.2941 7.83337 18.2952C7.83337 18.2964 7.83337 18.2975 7.83337 18.2987C7.83337 18.2998 7.83337 18.301 7.83337 18.3021C7.83337 18.3033 7.83337 18.3044 7.83337 18.3056C7.83337 18.3067 7.83337 18.3079 7.83337 18.309C7.83337 18.3102 7.83337 18.3113 7.83337 18.3124C7.83337 18.3136 7.83337 18.3147 7.83337 18.3159C7.83337 18.317 7.83337 18.3182 7.83337 18.3193C7.83337 18.3205 7.83337 18.3216 7.83337 18.3228C7.83337 18.3239 7.83337 18.3251 7.83337 18.3262C7.83337 18.3274 7.83337 18.3285 7.83337 18.3297C7.83337 18.3308 7.83337 18.332 7.83337 18.3331C7.83337 18.3343 7.83337 18.3354 7.83337 18.3366C7.83337 18.3377 7.83337 18.3389 7.83337 18.34C7.83337 18.3412 7.83337 18.3423 7.83337 18.3435C7.83337 18.3446 7.83337 18.3458 7.83337 18.3469C7.83337 18.3481 7.83337 18.3492 7.83337 18.3504C7.83337 18.3515 7.83337 18.3527 7.83337 18.3538C7.83337 18.355 7.83337 18.3561 7.83337 18.3573C7.83337 18.3584 7.83337 18.3596 7.83337 18.3607C7.83337 18.3619 7.83337 18.363 7.83337 18.3642C7.83337 18.3653 7.83337 18.3665 7.83337 18.3676C7.83337 18.3688 7.83337 18.3699 7.83337 18.3711C7.83337 18.3722 7.83337 18.3734 7.83337 18.3746C7.83337 18.3757 7.83337 18.3769 7.83337 18.378C7.83337 18.3792 7.83337 18.3803 7.83337 18.3815C7.83337 18.3826 7.83337 18.3838 7.83337 18.3849C7.83337 18.3861 7.83337 18.3872 7.83337 18.3884C7.83337 18.3895 7.83337 18.3907 7.83337 18.3918C7.83337 18.393 7.83337 18.3941 7.83337 18.3953C7.83337 18.3965 7.83337 18.3976 7.83337 18.3988C7.83337 18.3999 7.83337 18.4011 7.83337 18.4022C7.83337 18.4034 7.83337 18.4045 7.83337 18.4057C7.83337 18.4068 7.83337 18.408 7.83337 18.4091C7.83337 18.4103 7.83337 18.4115 7.83337 18.4126C7.83337 18.4138 7.83337 18.4149 7.83337 18.4161C7.83337 18.4172 7.83337 18.4184 7.83337 18.4195C7.83337 18.4207 7.83337 18.4219 7.83337 18.423C7.83337 18.4242 7.83337 18.4253 7.83337 18.4265C7.83337 18.4276 7.83337 18.4288 7.83337 18.4299H8.83337ZM10.8334 14.766H14.1667V13.766H10.8334V14.766ZM16.1667 16.7656C16.1667 16.7666 16.1667 16.7676 16.1667 16.7685C16.1667 16.7695 16.1667 16.7705 16.1667 16.7715C16.1667 16.7725 16.1667 16.7735 16.1667 16.7745C16.1667 16.7755 16.1667 16.7765 16.1667 16.7775C16.1667 16.7785 16.1667 16.7795 16.1667 16.7805C16.1667 16.7815 16.1667 16.7825 16.1667 16.7835C16.1667 16.7845 16.1667 16.7855 16.1667 16.7865C16.1667 16.7875 16.1667 16.7885 16.1667 16.7895C16.1667 16.7905 16.1667 16.7915 16.1667 16.7925C16.1667 16.7935 16.1667 16.7945 16.1667 16.7955C16.1667 16.7965 16.1667 16.7975 16.1667 16.7985C16.1667 16.7995 16.1667 16.8005 16.1667 16.8015C16.1667 16.8025 16.1667 16.8035 16.1667 16.8045C16.1667 16.8055 16.1667 16.8065 16.1667 16.8075C16.1667 16.8085 16.1667 16.8095 16.1667 16.8105C16.1667 16.8115 16.1667 16.8125 16.1667 16.8135C16.1667 16.8145 16.1667 16.8155 16.1667 16.8165C16.1667 16.8175 16.1667 16.8185 16.1667 16.8195C16.1667 16.8205 16.1667 16.8215 16.1667 16.8225C16.1667 16.8235 16.1667 16.8245 16.1667 16.8255C16.1667 16.8265 16.1667 16.8275 16.1667 16.8286C16.1667 16.8296 16.1667 16.8306 16.1667 16.8316C16.1667 16.8326 16.1667 16.8336 16.1667 16.8346C16.1667 16.8356 16.1667 16.8366 16.1667 16.8376C16.1667 16.8386 16.1667 16.8396 16.1667 16.8406C16.1667 16.8416 16.1667 16.8426 16.1667 16.8436C16.1667 16.8446 16.1667 16.8456 16.1667 16.8466C16.1667 16.8477 16.1667 16.8487 16.1667 16.8497C16.1667 16.8507 16.1667 16.8517 16.1667 16.8527C16.1667 16.8537 16.1667 16.8547 16.1667 16.8557C16.1667 16.8567 16.1667 16.8577 16.1667 16.8587C16.1667 16.8597 16.1667 16.8608 16.1667 16.8618C16.1667 16.8628 16.1667 16.8638 16.1667 16.8648C16.1667 16.8658 16.1667 16.8668 16.1667 16.8678C16.1667 16.8688 16.1667 16.8698 16.1667 16.8708C16.1667 16.8718 16.1667 16.8729 16.1667 16.8739C16.1667 16.8749 16.1667 16.8759 16.1667 16.8769C16.1667 16.8779 16.1667 16.8789 16.1667 16.8799C16.1667 16.8809 16.1667 16.882 16.1667 16.883C16.1667 16.884 16.1667 16.885 16.1667 16.886C16.1667 16.887 16.1667 16.888 16.1667 16.889C16.1667 16.89 16.1667 16.8911 16.1667 16.8921C16.1667 16.8931 16.1667 16.8941 16.1667 16.8951C16.1667 16.8961 16.1667 16.8971 16.1667 16.8981C16.1667 16.8992 16.1667 16.9002 16.1667 16.9012C16.1667 16.9022 16.1667 16.9032 16.1667 16.9042C16.1667 16.9052 16.1667 16.9063 16.1667 16.9073C16.1667 16.9083 16.1667 16.9093 16.1667 16.9103C16.1667 16.9113 16.1667 16.9123 16.1667 16.9134C16.1667 16.9144 16.1667 16.9154 16.1667 16.9164C16.1667 16.9174 16.1667 16.9184 16.1667 16.9194C16.1667 16.9205 16.1667 16.9215 16.1667 16.9225C16.1667 16.9235 16.1667 16.9245 16.1667 16.9255C16.1667 16.9266 16.1667 16.9276 16.1667 16.9286C16.1667 16.9296 16.1667 16.9306 16.1667 16.9316C16.1667 16.9327 16.1667 16.9337 16.1667 16.9347C16.1667 16.9357 16.1667 16.9367 16.1667 16.9378C16.1667 16.9388 16.1667 16.9398 16.1667 16.9408C16.1667 16.9418 16.1667 16.9428 16.1667 16.9439C16.1667 16.9449 16.1667 16.9459 16.1667 16.9469C16.1667 16.9479 16.1667 16.949 16.1667 16.95C16.1667 16.951 16.1667 16.952 16.1667 16.953C16.1667 16.9541 16.1667 16.9551 16.1667 16.9561C16.1667 16.9571 16.1667 16.9581 16.1667 16.9592C16.1667 16.9602 16.1667 16.9612 16.1667 16.9622C16.1667 16.9633 16.1667 16.9643 16.1667 16.9653C16.1667 16.9663 16.1667 16.9673 16.1667 16.9684C16.1667 16.9694 16.1667 16.9704 16.1667 16.9714C16.1667 16.9724 16.1667 16.9735 16.1667 16.9745C16.1667 16.9755 16.1667 16.9765 16.1667 16.9776C16.1667 16.9786 16.1667 16.9796 16.1667 16.9806C16.1667 16.9817 16.1667 16.9827 16.1667 16.9837C16.1667 16.9847 16.1667 16.9858 16.1667 16.9868C16.1667 16.9878 16.1667 16.9888 16.1667 16.9898C16.1667 16.9909 16.1667 16.9919 16.1667 16.9929C16.1667 16.9939 16.1667 16.995 16.1667 16.996C16.1667 16.997 16.1667 16.998 16.1667 16.9991C16.1667 17.0001 16.1667 17.0011 16.1667 17.0022C16.1667 17.0032 16.1667 17.0042 16.1667 17.0052C16.1667 17.0063 16.1667 17.0073 16.1667 17.0083C16.1667 17.0093 16.1667 17.0104 16.1667 17.0114C16.1667 17.0124 16.1667 17.0134 16.1667 17.0145C16.1667 17.0155 16.1667 17.0165 16.1667 17.0176C16.1667 17.0186 16.1667 17.0196 16.1667 17.0206C16.1667 17.0217 16.1667 17.0227 16.1667 17.0237C16.1667 17.0248 16.1667 17.0258 16.1667 17.0268C16.1667 17.0278 16.1667 17.0289 16.1667 17.0299C16.1667 17.0309 16.1667 17.032 16.1667 17.033C16.1667 17.034 16.1667 17.0351 16.1667 17.0361C16.1667 17.0371 16.1667 17.0381 16.1667 17.0392C16.1667 17.0402 16.1667 17.0412 16.1667 17.0423C16.1667 17.0433 16.1667 17.0443 16.1667 17.0454C16.1667 17.0464 16.1667 17.0474 16.1667 17.0485C16.1667 17.0495 16.1667 17.0505 16.1667 17.0516C16.1667 17.0526 16.1667 17.0536 16.1667 17.0546C16.1667 17.0557 16.1667 17.0567 16.1667 17.0577C16.1667 17.0588 16.1667 17.0598 16.1667 17.0608C16.1667 17.0619 16.1667 17.0629 16.1667 17.0639C16.1667 17.065 16.1667 17.066 16.1667 17.067C16.1667 17.0681 16.1667 17.0691 16.1667 17.0702C16.1667 17.0712 16.1667 17.0722 16.1667 17.0733C16.1667 17.0743 16.1667 17.0753 16.1667 17.0764C16.1667 17.0774 16.1667 17.0784 16.1667 17.0795C16.1667 17.0805 16.1667 17.0815 16.1667 17.0826C16.1667 17.0836 16.1667 17.0846 16.1667 17.0857C16.1667 17.0867 16.1667 17.0878 16.1667 17.0888C16.1667 17.0898 16.1667 17.0909 16.1667 17.0919C16.1667 17.0929 16.1667 17.094 16.1667 17.095C16.1667 17.096 16.1667 17.0971 16.1667 17.0981C16.1667 17.0992 16.1667 17.1002 16.1667 17.1012C16.1667 17.1023 16.1667 17.1033 16.1667 17.1044C16.1667 17.1054 16.1667 17.1064 16.1667 17.1075C16.1667 17.1085 16.1667 17.1095 16.1667 17.1106C16.1667 17.1116 16.1667 17.1127 16.1667 17.1137C16.1667 17.1147 16.1667 17.1158 16.1667 17.1168C16.1667 17.1179 16.1667 17.1189 16.1667 17.1199C16.1667 17.121 16.1667 17.122 16.1667 17.1231C16.1667 17.1241 16.1667 17.1251 16.1667 17.1262C16.1667 17.1272 16.1667 17.1283 16.1667 17.1293C16.1667 17.1303 16.1667 17.1314 16.1667 17.1324C16.1667 17.1335 16.1667 17.1345 16.1667 17.1356C16.1667 17.1366 16.1667 17.1376 16.1667 17.1387C16.1667 17.1397 16.1667 17.1408 16.1667 17.1418C16.1667 17.1429 16.1667 17.1439 16.1667 17.1449C16.1667 17.146 16.1667 17.147 16.1667 17.1481C16.1667 17.1491 16.1667 17.1502 16.1667 17.1512C16.1667 17.1522 16.1667 17.1533 16.1667 17.1543C16.1667 17.1554 16.1667 17.1564 16.1667 17.1575C16.1667 17.1585 16.1667 17.1596 16.1667 17.1606C16.1667 17.1616 16.1667 17.1627 16.1667 17.1637C16.1667 17.1648 16.1667 17.1658 16.1667 17.1669C16.1667 17.1679 16.1667 17.169 16.1667 17.17C16.1667 17.1711 16.1667 17.1721 16.1667 17.1731C16.1667 17.1742 16.1667 17.1752 16.1667 17.1763C16.1667 17.1773 16.1667 17.1784 16.1667 17.1794C16.1667 17.1805 16.1667 17.1815 16.1667 17.1826C16.1667 17.1836 16.1667 17.1847 16.1667 17.1857C16.1667 17.1868 16.1667 17.1878 16.1667 17.1889C16.1667 17.1899 16.1667 17.191 16.1667 17.192C16.1667 17.1931 16.1667 17.1941 16.1667 17.1951C16.1667 17.1962 16.1667 17.1972 16.1667 17.1983C16.1667 17.1993 16.1667 17.2004 16.1667 17.2014C16.1667 17.2025 16.1667 17.2035 16.1667 17.2046C16.1667 17.2056 16.1667 17.2067 16.1667 17.2077C16.1667 17.2088 16.1667 17.2098 16.1667 17.2109C16.1667 17.2119 16.1667 17.213 16.1667 17.214C16.1667 17.2151 16.1667 17.2161 16.1667 17.2172C16.1667 17.2183 16.1667 17.2193 16.1667 17.2204C16.1667 17.2214 16.1667 17.2225 16.1667 17.2235C16.1667 17.2246 16.1667 17.2256 16.1667 17.2267C16.1667 17.2277 16.1667 17.2288 16.1667 17.2298C16.1667 17.2309 16.1667 17.2319 16.1667 17.233C16.1667 17.234 16.1667 17.2351 16.1667 17.2361C16.1667 17.2372 16.1667 17.2382 16.1667 17.2393C16.1667 17.2404 16.1667 17.2414 16.1667 17.2425C16.1667 17.2435 16.1667 17.2446 16.1667 17.2456C16.1667 17.2467 16.1667 17.2477 16.1667 17.2488C16.1667 17.2498 16.1667 17.2509 16.1667 17.252C16.1667 17.253 16.1667 17.2541 16.1667 17.2551C16.1667 17.2562 16.1667 17.2572 16.1667 17.2583C16.1667 17.2593 16.1667 17.2604 16.1667 17.2615C16.1667 17.2625 16.1667 17.2636 16.1667 17.2646C16.1667 17.2657 16.1667 17.2667 16.1667 17.2678C16.1667 17.2689 16.1667 17.2699 16.1667 17.271C16.1667 17.272 16.1667 17.2731 16.1667 17.2741C16.1667 17.2752 16.1667 17.2763 16.1667 17.2773C16.1667 17.2784 16.1667 17.2794 16.1667 17.2805C16.1667 17.2815 16.1667 17.2826 16.1667 17.2837C16.1667 17.2847 16.1667 17.2858 16.1667 17.2868C16.1667 17.2879 16.1667 17.289 16.1667 17.29C16.1667 17.2911 16.1667 17.2921 16.1667 17.2932C16.1667 17.2943 16.1667 17.2953 16.1667 17.2964C16.1667 17.2974 16.1667 17.2985 16.1667 17.2996C16.1667 17.3006 16.1667 17.3017 16.1667 17.3027C16.1667 17.3038 16.1667 17.3049 16.1667 17.3059C16.1667 17.307 16.1667 17.308 16.1667 17.3091C16.1667 17.3102 16.1667 17.3112 16.1667 17.3123C16.1667 17.3134 16.1667 17.3144 16.1667 17.3155C16.1667 17.3165 16.1667 17.3176 16.1667 17.3187C16.1667 17.3197 16.1667 17.3208 16.1667 17.3218C16.1667 17.3229 16.1667 17.324 16.1667 17.325C16.1667 17.3261 16.1667 17.3272 16.1667 17.3282C16.1667 17.3293 16.1667 17.3304 16.1667 17.3314C16.1667 17.3325 16.1667 17.3335 16.1667 17.3346C16.1667 17.3357 16.1667 17.3367 16.1667 17.3378C16.1667 17.3389 16.1667 17.3399 16.1667 17.341C16.1667 17.3421 16.1667 17.3431 16.1667 17.3442C16.1667 17.3453 16.1667 17.3463 16.1667 17.3474C16.1667 17.3485 16.1667 17.3495 16.1667 17.3506C16.1667 17.3517 16.1667 17.3527 16.1667 17.3538C16.1667 17.3548 16.1667 17.3559 16.1667 17.357C16.1667 17.358 16.1667 17.3591 16.1667 17.3602C16.1667 17.3612 16.1667 17.3623 16.1667 17.3634C16.1667 17.3644 16.1667 17.3655 16.1667 17.3666C16.1667 17.3677 16.1667 17.3687 16.1667 17.3698C16.1667 17.3709 16.1667 17.3719 16.1667 17.373C16.1667 17.3741 16.1667 17.3751 16.1667 17.3762C16.1667 17.3773 16.1667 17.3783 16.1667 17.3794C16.1667 17.3805 16.1667 17.3815 16.1667 17.3826C16.1667 17.3837 16.1667 17.3847 16.1667 17.3858C16.1667 17.3869 16.1667 17.388 16.1667 17.389C16.1667 17.3901 16.1667 17.3912 16.1667 17.3922C16.1667 17.3933 16.1667 17.3944 16.1667 17.3954C16.1667 17.3965 16.1667 17.3976 16.1667 17.3987C16.1667 17.3997 16.1667 17.4008 16.1667 17.4019C16.1667 17.4029 16.1667 17.404 16.1667 17.4051C16.1667 17.4062 16.1667 17.4072 16.1667 17.4083C16.1667 17.4094 16.1667 17.4104 16.1667 17.4115C16.1667 17.4126 16.1667 17.4137 16.1667 17.4147C16.1667 17.4158 16.1667 17.4169 16.1667 17.4179C16.1667 17.419 16.1667 17.4201 16.1667 17.4212C16.1667 17.4222 16.1667 17.4233 16.1667 17.4244C16.1667 17.4255 16.1667 17.4265 16.1667 17.4276C16.1667 17.4287 16.1667 17.4298 16.1667 17.4308C16.1667 17.4319 16.1667 17.433 16.1667 17.4341C16.1667 17.4351 16.1667 17.4362 16.1667 17.4373C16.1667 17.4384 16.1667 17.4394 16.1667 17.4405C16.1667 17.4416 16.1667 17.4427 16.1667 17.4437C16.1667 17.4448 16.1667 17.4459 16.1667 17.447C16.1667 17.448 16.1667 17.4491 16.1667 17.4502C16.1667 17.4513 16.1667 17.4523 16.1667 17.4534C16.1667 17.4545 16.1667 17.4556 16.1667 17.4566C16.1667 17.4577 16.1667 17.4588 16.1667 17.4599C16.1667 17.4609 16.1667 17.462 16.1667 17.4631C16.1667 17.4642 16.1667 17.4653 16.1667 17.4663C16.1667 17.4674 16.1667 17.4685 16.1667 17.4696C16.1667 17.4706 16.1667 17.4717 16.1667 17.4728C16.1667 17.4739 16.1667 17.475 16.1667 17.476C16.1667 17.4771 16.1667 17.4782 16.1667 17.4793C16.1667 17.4804 16.1667 17.4814 16.1667 17.4825C16.1667 17.4836 16.1667 17.4847 16.1667 17.4858C16.1667 17.4868 16.1667 17.4879 16.1667 17.489C16.1667 17.4901 16.1667 17.4912 16.1667 17.4922C16.1667 17.4933 16.1667 17.4944 16.1667 17.4955C16.1667 17.4966 16.1667 17.4976 16.1667 17.4987C16.1667 17.4998 16.1667 17.5009 16.1667 17.502C16.1667 17.503 16.1667 17.5041 16.1667 17.5052C16.1667 17.5063 16.1667 17.5074 16.1667 17.5084C16.1667 17.5095 16.1667 17.5106 16.1667 17.5117C16.1667 17.5128 16.1667 17.5139 16.1667 17.5149C16.1667 17.516 16.1667 17.5171 16.1667 17.5182C16.1667 17.5193 16.1667 17.5204 16.1667 17.5214C16.1667 17.5225 16.1667 17.5236 16.1667 17.5247C16.1667 17.5258 16.1667 17.5269 16.1667 17.5279C16.1667 17.529 16.1667 17.5301 16.1667 17.5312C16.1667 17.5323 16.1667 17.5334 16.1667 17.5344C16.1667 17.5355 16.1667 17.5366 16.1667 17.5377C16.1667 17.5388 16.1667 17.5399 16.1667 17.541C16.1667 17.542 16.1667 17.5431 16.1667 17.5442C16.1667 17.5453 16.1667 17.5464 16.1667 17.5475C16.1667 17.5485 16.1667 17.5496 16.1667 17.5507C16.1667 17.5518 16.1667 17.5529 16.1667 17.554C16.1667 17.5551 16.1667 17.5562 16.1667 17.5572C16.1667 17.5583 16.1667 17.5594 16.1667 17.5605C16.1667 17.5616 16.1667 17.5627 16.1667 17.5638C16.1667 17.5648 16.1667 17.5659 16.1667 17.567C16.1667 17.5681 16.1667 17.5692 16.1667 17.5703C16.1667 17.5714 16.1667 17.5725 16.1667 17.5735C16.1667 17.5746 16.1667 17.5757 16.1667 17.5768C16.1667 17.5779 16.1667 17.579 16.1667 17.5801C16.1667 17.5812 16.1667 17.5823 16.1667 17.5833C16.1667 17.5844 16.1667 17.5855 16.1667 17.5866C16.1667 17.5877 16.1667 17.5888 16.1667 17.5899C16.1667 17.591 16.1667 17.5921 16.1667 17.5932C16.1667 17.5942 16.1667 17.5953 16.1667 17.5964C16.1667 17.5975 16.1667 17.5986 16.1667 17.5997C16.1667 17.6008 16.1667 17.6019 16.1667 17.603C16.1667 17.6041 16.1667 17.6051 16.1667 17.6062C16.1667 17.6073 16.1667 17.6084 16.1667 17.6095C16.1667 17.6106 16.1667 17.6117 16.1667 17.6128C16.1667 17.6139 16.1667 17.615 16.1667 17.6161C16.1667 17.6172 16.1667 17.6183 16.1667 17.6193C16.1667 17.6204 16.1667 17.6215 16.1667 17.6226C16.1667 17.6237 16.1667 17.6248 16.1667 17.6259C16.1667 17.627 16.1667 17.6281 16.1667 17.6292C16.1667 17.6303 16.1667 17.6314 16.1667 17.6325C16.1667 17.6336 16.1667 17.6346 16.1667 17.6357C16.1667 17.6368 16.1667 17.6379 16.1667 17.639C16.1667 17.6401 16.1667 17.6412 16.1667 17.6423C16.1667 17.6434 16.1667 17.6445 16.1667 17.6456C16.1667 17.6467 16.1667 17.6478 16.1667 17.6489C16.1667 17.65 16.1667 17.6511 16.1667 17.6522C16.1667 17.6533 16.1667 17.6544 16.1667 17.6555C16.1667 17.6565 16.1667 17.6576 16.1667 17.6587C16.1667 17.6598 16.1667 17.6609 16.1667 17.662C16.1667 17.6631 16.1667 17.6642 16.1667 17.6653C16.1667 17.6664 16.1667 17.6675 16.1667 17.6686C16.1667 17.6697 16.1667 17.6708 16.1667 17.6719C16.1667 17.673 16.1667 17.6741 16.1667 17.6752C16.1667 17.6763 16.1667 17.6774 16.1667 17.6785C16.1667 17.6796 16.1667 17.6807 16.1667 17.6818C16.1667 17.6829 16.1667 17.684 16.1667 17.6851C16.1667 17.6862 16.1667 17.6873 16.1667 17.6884C16.1667 17.6895 16.1667 17.6906 16.1667 17.6917C16.1667 17.6928 16.1667 17.6939 16.1667 17.695C16.1667 17.6961 16.1667 17.6972 16.1667 17.6983C16.1667 17.6994 16.1667 17.7005 16.1667 17.7016C16.1667 17.7027 16.1667 17.7038 16.1667 17.7049C16.1667 17.706 16.1667 17.7071 16.1667 17.7082C16.1667 17.7093 16.1667 17.7104 16.1667 17.7115C16.1667 17.7126 16.1667 17.7137 16.1667 17.7148C16.1667 17.7159 16.1667 17.717 16.1667 17.7181C16.1667 17.7192 16.1667 17.7203 16.1667 17.7214C16.1667 17.7225 16.1667 17.7236 16.1667 17.7247C16.1667 17.7258 16.1667 17.7269 16.1667 17.728C16.1667 17.7291 16.1667 17.7302 16.1667 17.7313C16.1667 17.7324 16.1667 17.7335 16.1667 17.7346C16.1667 17.7357 16.1667 17.7368 16.1667 17.7379C16.1667 17.739 16.1667 17.7401 16.1667 17.7412C16.1667 17.7423 16.1667 17.7434 16.1667 17.7445C16.1667 17.7456 16.1667 17.7468 16.1667 17.7479C16.1667 17.749 16.1667 17.7501 16.1667 17.7512C16.1667 17.7523 16.1667 17.7534 16.1667 17.7545C16.1667 17.7556 16.1667 17.7567 16.1667 17.7578C16.1667 17.7589 16.1667 17.76 16.1667 17.7611C16.1667 17.7622 16.1667 17.7633 16.1667 17.7644C16.1667 17.7655 16.1667 17.7666 16.1667 17.7677C16.1667 17.7689 16.1667 17.77 16.1667 17.7711C16.1667 17.7722 16.1667 17.7733 16.1667 17.7744C16.1667 17.7755 16.1667 17.7766 16.1667 17.7777C16.1667 17.7788 16.1667 17.7799 16.1667 17.781C16.1667 17.7821 16.1667 17.7832 16.1667 17.7843C16.1667 17.7855 16.1667 17.7866 16.1667 17.7877C16.1667 17.7888 16.1667 17.7899 16.1667 17.791C16.1667 17.7921 16.1667 17.7932 16.1667 17.7943C16.1667 17.7954 16.1667 17.7965 16.1667 17.7976C16.1667 17.7987 16.1667 17.7999 16.1667 17.801C16.1667 17.8021 16.1667 17.8032 16.1667 17.8043C16.1667 17.8054 16.1667 17.8065 16.1667 17.8076C16.1667 17.8087 16.1667 17.8098 16.1667 17.811C16.1667 17.8121 16.1667 17.8132 16.1667 17.8143C16.1667 17.8154 16.1667 17.8165 16.1667 17.8176C16.1667 17.8187 16.1667 17.8198 16.1667 17.8209C16.1667 17.8221 16.1667 17.8232 16.1667 17.8243C16.1667 17.8254 16.1667 17.8265 16.1667 17.8276C16.1667 17.8287 16.1667 17.8298 16.1667 17.8309C16.1667 17.8321 16.1667 17.8332 16.1667 17.8343C16.1667 17.8354 16.1667 17.8365 16.1667 17.8376C16.1667 17.8387 16.1667 17.8398 16.1667 17.8409C16.1667 17.8421 16.1667 17.8432 16.1667 17.8443C16.1667 17.8454 16.1667 17.8465 16.1667 17.8476C16.1667 17.8487 16.1667 17.8498 16.1667 17.851C16.1667 17.8521 16.1667 17.8532 16.1667 17.8543C16.1667 17.8554 16.1667 17.8565 16.1667 17.8576C16.1667 17.8588 16.1667 17.8599 16.1667 17.861C16.1667 17.8621 16.1667 17.8632 16.1667 17.8643C16.1667 17.8654 16.1667 17.8666 16.1667 17.8677C16.1667 17.8688 16.1667 17.8699 16.1667 17.871C16.1667 17.8721 16.1667 17.8732 16.1667 17.8744C16.1667 17.8755 16.1667 17.8766 16.1667 17.8777C16.1667 17.8788 16.1667 17.8799 16.1667 17.881C16.1667 17.8822 16.1667 17.8833 16.1667 17.8844C16.1667 17.8855 16.1667 17.8866 16.1667 17.8877C16.1667 17.8889 16.1667 17.89 16.1667 17.8911C16.1667 17.8922 16.1667 17.8933 16.1667 17.8944C16.1667 17.8956 16.1667 17.8967 16.1667 17.8978C16.1667 17.8989 16.1667 17.9 16.1667 17.9011C16.1667 17.9023 16.1667 17.9034 16.1667 17.9045C16.1667 17.9056 16.1667 17.9067 16.1667 17.9078C16.1667 17.909 16.1667 17.9101 16.1667 17.9112C16.1667 17.9123 16.1667 17.9134 16.1667 17.9146C16.1667 17.9157 16.1667 17.9168 16.1667 17.9179C16.1667 17.919 16.1667 17.9202 16.1667 17.9213C16.1667 17.9224 16.1667 17.9235 16.1667 17.9246C16.1667 17.9257 16.1667 17.9269 16.1667 17.928C16.1667 17.9291 16.1667 17.9302 16.1667 17.9313C16.1667 17.9325 16.1667 17.9336 16.1667 17.9347C16.1667 17.9358 16.1667 17.9369 16.1667 17.9381C16.1667 17.9392 16.1667 17.9403 16.1667 17.9414C16.1667 17.9425 16.1667 17.9437 16.1667 17.9448C16.1667 17.9459 16.1667 17.947 16.1667 17.9481C16.1667 17.9493 16.1667 17.9504 16.1667 17.9515C16.1667 17.9526 16.1667 17.9538 16.1667 17.9549C16.1667 17.956 16.1667 17.9571 16.1667 17.9582C16.1667 17.9594 16.1667 17.9605 16.1667 17.9616C16.1667 17.9627 16.1667 17.9639 16.1667 17.965C16.1667 17.9661 16.1667 17.9672 16.1667 17.9683C16.1667 17.9695 16.1667 17.9706 16.1667 17.9717C16.1667 17.9728 16.1667 17.974 16.1667 17.9751C16.1667 17.9762 16.1667 17.9773 16.1667 17.9785C16.1667 17.9796 16.1667 17.9807 16.1667 17.9818C16.1667 17.9829 16.1667 17.9841 16.1667 17.9852C16.1667 17.9863 16.1667 17.9874 16.1667 17.9886C16.1667 17.9897 16.1667 17.9908 16.1667 17.9919C16.1667 17.9931 16.1667 17.9942 16.1667 17.9953C16.1667 17.9964 16.1667 17.9976 16.1667 17.9987C16.1667 17.9998 16.1667 18.0009 16.1667 18.0021C16.1667 18.0032 16.1667 18.0043 16.1667 18.0054C16.1667 18.0066 16.1667 18.0077 16.1667 18.0088C16.1667 18.0099 16.1667 18.0111 16.1667 18.0122C16.1667 18.0133 16.1667 18.0144 16.1667 18.0156C16.1667 18.0167 16.1667 18.0178 16.1667 18.019C16.1667 18.0201 16.1667 18.0212 16.1667 18.0223C16.1667 18.0235 16.1667 18.0246 16.1667 18.0257C16.1667 18.0268 16.1667 18.028 16.1667 18.0291C16.1667 18.0302 16.1667 18.0314 16.1667 18.0325C16.1667 18.0336 16.1667 18.0347 16.1667 18.0359C16.1667 18.037 16.1667 18.0381 16.1667 18.0393C16.1667 18.0404 16.1667 18.0415 16.1667 18.0426C16.1667 18.0438 16.1667 18.0449 16.1667 18.046C16.1667 18.0472 16.1667 18.0483 16.1667 18.0494C16.1667 18.0505 16.1667 18.0517 16.1667 18.0528C16.1667 18.0539 16.1667 18.0551 16.1667 18.0562C16.1667 18.0573 16.1667 18.0584 16.1667 18.0596C16.1667 18.0607 16.1667 18.0618 16.1667 18.063C16.1667 18.0641 16.1667 18.0652 16.1667 18.0664C16.1667 18.0675 16.1667 18.0686 16.1667 18.0697C16.1667 18.0709 16.1667 18.072 16.1667 18.0731C16.1667 18.0743 16.1667 18.0754 16.1667 18.0765C16.1667 18.0777 16.1667 18.0788 16.1667 18.0799C16.1667 18.0811 16.1667 18.0822 16.1667 18.0833C16.1667 18.0845 16.1667 18.0856 16.1667 18.0867C16.1667 18.0878 16.1667 18.089 16.1667 18.0901C16.1667 18.0912 16.1667 18.0924 16.1667 18.0935C16.1667 18.0946 16.1667 18.0958 16.1667 18.0969C16.1667 18.098 16.1667 18.0992 16.1667 18.1003C16.1667 18.1014 16.1667 18.1026 16.1667 18.1037C16.1667 18.1048 16.1667 18.106 16.1667 18.1071C16.1667 18.1082 16.1667 18.1094 16.1667 18.1105C16.1667 18.1116 16.1667 18.1128 16.1667 18.1139C16.1667 18.115 16.1667 18.1162 16.1667 18.1173C16.1667 18.1184 16.1667 18.1196 16.1667 18.1207C16.1667 18.1218 16.1667 18.123 16.1667 18.1241C16.1667 18.1252 16.1667 18.1264 16.1667 18.1275C16.1667 18.1287 16.1667 18.1298 16.1667 18.1309C16.1667 18.1321 16.1667 18.1332 16.1667 18.1343C16.1667 18.1355 16.1667 18.1366 16.1667 18.1377C16.1667 18.1389 16.1667 18.14 16.1667 18.1411C16.1667 18.1423 16.1667 18.1434 16.1667 18.1446C16.1667 18.1457 16.1667 18.1468 16.1667 18.148C16.1667 18.1491 16.1667 18.1502 16.1667 18.1514C16.1667 18.1525 16.1667 18.1536 16.1667 18.1548C16.1667 18.1559 16.1667 18.1571 16.1667 18.1582C16.1667 18.1593 16.1667 18.1605 16.1667 18.1616C16.1667 18.1627 16.1667 18.1639 16.1667 18.165C16.1667 18.1662 16.1667 18.1673 16.1667 18.1684C16.1667 18.1696 16.1667 18.1707 16.1667 18.1718C16.1667 18.173 16.1667 18.1741 16.1667 18.1753C16.1667 18.1764 16.1667 18.1775 16.1667 18.1787C16.1667 18.1798 16.1667 18.181 16.1667 18.1821C16.1667 18.1832 16.1667 18.1844 16.1667 18.1855C16.1667 18.1866 16.1667 18.1878 16.1667 18.1889C16.1667 18.1901 16.1667 18.1912 16.1667 18.1923C16.1667 18.1935 16.1667 18.1946 16.1667 18.1958C16.1667 18.1969 16.1667 18.198 16.1667 18.1992C16.1667 18.2003 16.1667 18.2015 16.1667 18.2026C16.1667 18.2037 16.1667 18.2049 16.1667 18.206C16.1667 18.2072 16.1667 18.2083 16.1667 18.2094C16.1667 18.2106 16.1667 18.2117 16.1667 18.2129C16.1667 18.214 16.1667 18.2152 16.1667 18.2163C16.1667 18.2174 16.1667 18.2186 16.1667 18.2197C16.1667 18.2209 16.1667 18.222 16.1667 18.2231C16.1667 18.2243 16.1667 18.2254 16.1667 18.2266C16.1667 18.2277 16.1667 18.2289 16.1667 18.23C16.1667 18.2311 16.1667 18.2323 16.1667 18.2334C16.1667 18.2346 16.1667 18.2357 16.1667 18.2369C16.1667 18.238 16.1667 18.2391 16.1667 18.2403C16.1667 18.2414 16.1667 18.2426 16.1667 18.2437C16.1667 18.2449 16.1667 18.246 16.1667 18.2471C16.1667 18.2483 16.1667 18.2494 16.1667 18.2506C16.1667 18.2517 16.1667 18.2529 16.1667 18.254C16.1667 18.2551 16.1667 18.2563 16.1667 18.2574C16.1667 18.2586 16.1667 18.2597 16.1667 18.2609C16.1667 18.262 16.1667 18.2632 16.1667 18.2643C16.1667 18.2654 16.1667 18.2666 16.1667 18.2677C16.1667 18.2689 16.1667 18.27 16.1667 18.2712C16.1667 18.2723 16.1667 18.2735 16.1667 18.2746C16.1667 18.2758 16.1667 18.2769 16.1667 18.278C16.1667 18.2792 16.1667 18.2803 16.1667 18.2815C16.1667 18.2826 16.1667 18.2838 16.1667 18.2849C16.1667 18.2861 16.1667 18.2872 16.1667 18.2884C16.1667 18.2895 16.1667 18.2907 16.1667 18.2918C16.1667 18.2929 16.1667 18.2941 16.1667 18.2952C16.1667 18.2964 16.1667 18.2975 16.1667 18.2987C16.1667 18.2998 16.1667 18.301 16.1667 18.3021C16.1667 18.3033 16.1667 18.3044 16.1667 18.3056C16.1667 18.3067 16.1667 18.3079 16.1667 18.309C16.1667 18.3102 16.1667 18.3113 16.1667 18.3124C16.1667 18.3136 16.1667 18.3147 16.1667 18.3159C16.1667 18.317 16.1667 18.3182 16.1667 18.3193C16.1667 18.3205 16.1667 18.3216 16.1667 18.3228C16.1667 18.3239 16.1667 18.3251 16.1667 18.3262C16.1667 18.3274 16.1667 18.3285 16.1667 18.3297C16.1667 18.3308 16.1667 18.332 16.1667 18.3331C16.1667 18.3343 16.1667 18.3354 16.1667 18.3366C16.1667 18.3377 16.1667 18.3389 16.1667 18.34C16.1667 18.3412 16.1667 18.3423 16.1667 18.3435C16.1667 18.3446 16.1667 18.3458 16.1667 18.3469C16.1667 18.3481 16.1667 18.3492 16.1667 18.3504C16.1667 18.3515 16.1667 18.3527 16.1667 18.3538C16.1667 18.355 16.1667 18.3561 16.1667 18.3573C16.1667 18.3584 16.1667 18.3596 16.1667 18.3607C16.1667 18.3619 16.1667 18.363 16.1667 18.3642C16.1667 18.3653 16.1667 18.3665 16.1667 18.3676C16.1667 18.3688 16.1667 18.3699 16.1667 18.3711C16.1667 18.3722 16.1667 18.3734 16.1667 18.3746C16.1667 18.3757 16.1667 18.3769 16.1667 18.378C16.1667 18.3792 16.1667 18.3803 16.1667 18.3815C16.1667 18.3826 16.1667 18.3838 16.1667 18.3849C16.1667 18.3861 16.1667 18.3872 16.1667 18.3884C16.1667 18.3895 16.1667 18.3907 16.1667 18.3918C16.1667 18.393 16.1667 18.3941 16.1667 18.3953C16.1667 18.3965 16.1667 18.3976 16.1667 18.3988C16.1667 18.3999 16.1667 18.4011 16.1667 18.4022C16.1667 18.4034 16.1667 18.4045 16.1667 18.4057C16.1667 18.4068 16.1667 18.408 16.1667 18.4091C16.1667 18.4103 16.1667 18.4115 16.1667 18.4126C16.1667 18.4138 16.1667 18.4149 16.1667 18.4161C16.1667 18.4172 16.1667 18.4184 16.1667 18.4195C16.1667 18.4207 16.1667 18.4219 16.1667 18.423C16.1667 18.4242 16.1667 18.4253 16.1667 18.4265C16.1667 18.4276 16.1667 18.4288 16.1667 18.4299H17.1667C17.1667 18.4288 17.1667 18.4276 17.1667 18.4265C17.1667 18.4253 17.1667 18.4242 17.1667 18.423C17.1667 18.4219 17.1667 18.4207 17.1667 18.4195C17.1667 18.4184 17.1667 18.4172 17.1667 18.4161C17.1667 18.4149 17.1667 18.4138 17.1667 18.4126C17.1667 18.4115 17.1667 18.4103 17.1667 18.4091C17.1667 18.408 17.1667 18.4068 17.1667 18.4057C17.1667 18.4045 17.1667 18.4034 17.1667 18.4022C17.1667 18.4011 17.1667 18.3999 17.1667 18.3988C17.1667 18.3976 17.1667 18.3965 17.1667 18.3953C17.1667 18.3941 17.1667 18.393 17.1667 18.3918C17.1667 18.3907 17.1667 18.3895 17.1667 18.3884C17.1667 18.3872 17.1667 18.3861 17.1667 18.3849C17.1667 18.3838 17.1667 18.3826 17.1667 18.3815C17.1667 18.3803 17.1667 18.3792 17.1667 18.378C17.1667 18.3769 17.1667 18.3757 17.1667 18.3746C17.1667 18.3734 17.1667 18.3722 17.1667 18.3711C17.1667 18.3699 17.1667 18.3688 17.1667 18.3676C17.1667 18.3665 17.1667 18.3653 17.1667 18.3642C17.1667 18.363 17.1667 18.3619 17.1667 18.3607C17.1667 18.3596 17.1667 18.3584 17.1667 18.3573C17.1667 18.3561 17.1667 18.355 17.1667 18.3538C17.1667 18.3527 17.1667 18.3515 17.1667 18.3504C17.1667 18.3492 17.1667 18.3481 17.1667 18.3469C17.1667 18.3458 17.1667 18.3446 17.1667 18.3435C17.1667 18.3423 17.1667 18.3412 17.1667 18.34C17.1667 18.3389 17.1667 18.3377 17.1667 18.3366C17.1667 18.3354 17.1667 18.3343 17.1667 18.3331C17.1667 18.332 17.1667 18.3308 17.1667 18.3297C17.1667 18.3285 17.1667 18.3274 17.1667 18.3262C17.1667 18.3251 17.1667 18.3239 17.1667 18.3228C17.1667 18.3216 17.1667 18.3205 17.1667 18.3193C17.1667 18.3182 17.1667 18.317 17.1667 18.3159C17.1667 18.3147 17.1667 18.3136 17.1667 18.3124C17.1667 18.3113 17.1667 18.3102 17.1667 18.309C17.1667 18.3079 17.1667 18.3067 17.1667 18.3056C17.1667 18.3044 17.1667 18.3033 17.1667 18.3021C17.1667 18.301 17.1667 18.2998 17.1667 18.2987C17.1667 18.2975 17.1667 18.2964 17.1667 18.2952C17.1667 18.2941 17.1667 18.2929 17.1667 18.2918C17.1667 18.2907 17.1667 18.2895 17.1667 18.2884C17.1667 18.2872 17.1667 18.2861 17.1667 18.2849C17.1667 18.2838 17.1667 18.2826 17.1667 18.2815C17.1667 18.2803 17.1667 18.2792 17.1667 18.278C17.1667 18.2769 17.1667 18.2758 17.1667 18.2746C17.1667 18.2735 17.1667 18.2723 17.1667 18.2712C17.1667 18.27 17.1667 18.2689 17.1667 18.2677C17.1667 18.2666 17.1667 18.2654 17.1667 18.2643C17.1667 18.2632 17.1667 18.262 17.1667 18.2609C17.1667 18.2597 17.1667 18.2586 17.1667 18.2574C17.1667 18.2563 17.1667 18.2551 17.1667 18.254C17.1667 18.2529 17.1667 18.2517 17.1667 18.2506C17.1667 18.2494 17.1667 18.2483 17.1667 18.2471C17.1667 18.246 17.1667 18.2449 17.1667 18.2437C17.1667 18.2426 17.1667 18.2414 17.1667 18.2403C17.1667 18.2391 17.1667 18.238 17.1667 18.2369C17.1667 18.2357 17.1667 18.2346 17.1667 18.2334C17.1667 18.2323 17.1667 18.2311 17.1667 18.23C17.1667 18.2289 17.1667 18.2277 17.1667 18.2266C17.1667 18.2254 17.1667 18.2243 17.1667 18.2231C17.1667 18.222 17.1667 18.2209 17.1667 18.2197C17.1667 18.2186 17.1667 18.2174 17.1667 18.2163C17.1667 18.2152 17.1667 18.214 17.1667 18.2129C17.1667 18.2117 17.1667 18.2106 17.1667 18.2094C17.1667 18.2083 17.1667 18.2072 17.1667 18.206C17.1667 18.2049 17.1667 18.2037 17.1667 18.2026C17.1667 18.2015 17.1667 18.2003 17.1667 18.1992C17.1667 18.198 17.1667 18.1969 17.1667 18.1958C17.1667 18.1946 17.1667 18.1935 17.1667 18.1923C17.1667 18.1912 17.1667 18.1901 17.1667 18.1889C17.1667 18.1878 17.1667 18.1866 17.1667 18.1855C17.1667 18.1844 17.1667 18.1832 17.1667 18.1821C17.1667 18.181 17.1667 18.1798 17.1667 18.1787C17.1667 18.1775 17.1667 18.1764 17.1667 18.1753C17.1667 18.1741 17.1667 18.173 17.1667 18.1718C17.1667 18.1707 17.1667 18.1696 17.1667 18.1684C17.1667 18.1673 17.1667 18.1662 17.1667 18.165C17.1667 18.1639 17.1667 18.1627 17.1667 18.1616C17.1667 18.1605 17.1667 18.1593 17.1667 18.1582C17.1667 18.1571 17.1667 18.1559 17.1667 18.1548C17.1667 18.1536 17.1667 18.1525 17.1667 18.1514C17.1667 18.1502 17.1667 18.1491 17.1667 18.148C17.1667 18.1468 17.1667 18.1457 17.1667 18.1446C17.1667 18.1434 17.1667 18.1423 17.1667 18.1411C17.1667 18.14 17.1667 18.1389 17.1667 18.1377C17.1667 18.1366 17.1667 18.1355 17.1667 18.1343C17.1667 18.1332 17.1667 18.1321 17.1667 18.1309C17.1667 18.1298 17.1667 18.1287 17.1667 18.1275C17.1667 18.1264 17.1667 18.1252 17.1667 18.1241C17.1667 18.123 17.1667 18.1218 17.1667 18.1207C17.1667 18.1196 17.1667 18.1184 17.1667 18.1173C17.1667 18.1162 17.1667 18.115 17.1667 18.1139C17.1667 18.1128 17.1667 18.1116 17.1667 18.1105C17.1667 18.1094 17.1667 18.1082 17.1667 18.1071C17.1667 18.106 17.1667 18.1048 17.1667 18.1037C17.1667 18.1026 17.1667 18.1014 17.1667 18.1003C17.1667 18.0992 17.1667 18.098 17.1667 18.0969C17.1667 18.0958 17.1667 18.0946 17.1667 18.0935C17.1667 18.0924 17.1667 18.0912 17.1667 18.0901C17.1667 18.089 17.1667 18.0878 17.1667 18.0867C17.1667 18.0856 17.1667 18.0845 17.1667 18.0833C17.1667 18.0822 17.1667 18.0811 17.1667 18.0799C17.1667 18.0788 17.1667 18.0777 17.1667 18.0765C17.1667 18.0754 17.1667 18.0743 17.1667 18.0731C17.1667 18.072 17.1667 18.0709 17.1667 18.0697C17.1667 18.0686 17.1667 18.0675 17.1667 18.0664C17.1667 18.0652 17.1667 18.0641 17.1667 18.063C17.1667 18.0618 17.1667 18.0607 17.1667 18.0596C17.1667 18.0584 17.1667 18.0573 17.1667 18.0562C17.1667 18.0551 17.1667 18.0539 17.1667 18.0528C17.1667 18.0517 17.1667 18.0505 17.1667 18.0494C17.1667 18.0483 17.1667 18.0472 17.1667 18.046C17.1667 18.0449 17.1667 18.0438 17.1667 18.0426C17.1667 18.0415 17.1667 18.0404 17.1667 18.0393C17.1667 18.0381 17.1667 18.037 17.1667 18.0359C17.1667 18.0347 17.1667 18.0336 17.1667 18.0325C17.1667 18.0314 17.1667 18.0302 17.1667 18.0291C17.1667 18.028 17.1667 18.0268 17.1667 18.0257C17.1667 18.0246 17.1667 18.0235 17.1667 18.0223C17.1667 18.0212 17.1667 18.0201 17.1667 18.019C17.1667 18.0178 17.1667 18.0167 17.1667 18.0156C17.1667 18.0144 17.1667 18.0133 17.1667 18.0122C17.1667 18.0111 17.1667 18.0099 17.1667 18.0088C17.1667 18.0077 17.1667 18.0066 17.1667 18.0054C17.1667 18.0043 17.1667 18.0032 17.1667 18.0021C17.1667 18.0009 17.1667 17.9998 17.1667 17.9987C17.1667 17.9976 17.1667 17.9964 17.1667 17.9953C17.1667 17.9942 17.1667 17.9931 17.1667 17.9919C17.1667 17.9908 17.1667 17.9897 17.1667 17.9886C17.1667 17.9874 17.1667 17.9863 17.1667 17.9852C17.1667 17.9841 17.1667 17.9829 17.1667 17.9818C17.1667 17.9807 17.1667 17.9796 17.1667 17.9785C17.1667 17.9773 17.1667 17.9762 17.1667 17.9751C17.1667 17.974 17.1667 17.9728 17.1667 17.9717C17.1667 17.9706 17.1667 17.9695 17.1667 17.9683C17.1667 17.9672 17.1667 17.9661 17.1667 17.965C17.1667 17.9639 17.1667 17.9627 17.1667 17.9616C17.1667 17.9605 17.1667 17.9594 17.1667 17.9582C17.1667 17.9571 17.1667 17.956 17.1667 17.9549C17.1667 17.9538 17.1667 17.9526 17.1667 17.9515C17.1667 17.9504 17.1667 17.9493 17.1667 17.9481C17.1667 17.947 17.1667 17.9459 17.1667 17.9448C17.1667 17.9437 17.1667 17.9425 17.1667 17.9414C17.1667 17.9403 17.1667 17.9392 17.1667 17.9381C17.1667 17.9369 17.1667 17.9358 17.1667 17.9347C17.1667 17.9336 17.1667 17.9325 17.1667 17.9313C17.1667 17.9302 17.1667 17.9291 17.1667 17.928C17.1667 17.9269 17.1667 17.9257 17.1667 17.9246C17.1667 17.9235 17.1667 17.9224 17.1667 17.9213C17.1667 17.9202 17.1667 17.919 17.1667 17.9179C17.1667 17.9168 17.1667 17.9157 17.1667 17.9146C17.1667 17.9134 17.1667 17.9123 17.1667 17.9112C17.1667 17.9101 17.1667 17.909 17.1667 17.9078C17.1667 17.9067 17.1667 17.9056 17.1667 17.9045C17.1667 17.9034 17.1667 17.9023 17.1667 17.9011C17.1667 17.9 17.1667 17.8989 17.1667 17.8978C17.1667 17.8967 17.1667 17.8956 17.1667 17.8944C17.1667 17.8933 17.1667 17.8922 17.1667 17.8911C17.1667 17.89 17.1667 17.8889 17.1667 17.8877C17.1667 17.8866 17.1667 17.8855 17.1667 17.8844C17.1667 17.8833 17.1667 17.8822 17.1667 17.881C17.1667 17.8799 17.1667 17.8788 17.1667 17.8777C17.1667 17.8766 17.1667 17.8755 17.1667 17.8744C17.1667 17.8732 17.1667 17.8721 17.1667 17.871C17.1667 17.8699 17.1667 17.8688 17.1667 17.8677C17.1667 17.8666 17.1667 17.8654 17.1667 17.8643C17.1667 17.8632 17.1667 17.8621 17.1667 17.861C17.1667 17.8599 17.1667 17.8588 17.1667 17.8576C17.1667 17.8565 17.1667 17.8554 17.1667 17.8543C17.1667 17.8532 17.1667 17.8521 17.1667 17.851C17.1667 17.8498 17.1667 17.8487 17.1667 17.8476C17.1667 17.8465 17.1667 17.8454 17.1667 17.8443C17.1667 17.8432 17.1667 17.8421 17.1667 17.8409C17.1667 17.8398 17.1667 17.8387 17.1667 17.8376C17.1667 17.8365 17.1667 17.8354 17.1667 17.8343C17.1667 17.8332 17.1667 17.8321 17.1667 17.8309C17.1667 17.8298 17.1667 17.8287 17.1667 17.8276C17.1667 17.8265 17.1667 17.8254 17.1667 17.8243C17.1667 17.8232 17.1667 17.8221 17.1667 17.8209C17.1667 17.8198 17.1667 17.8187 17.1667 17.8176C17.1667 17.8165 17.1667 17.8154 17.1667 17.8143C17.1667 17.8132 17.1667 17.8121 17.1667 17.811C17.1667 17.8098 17.1667 17.8087 17.1667 17.8076C17.1667 17.8065 17.1667 17.8054 17.1667 17.8043C17.1667 17.8032 17.1667 17.8021 17.1667 17.801C17.1667 17.7999 17.1667 17.7987 17.1667 17.7976C17.1667 17.7965 17.1667 17.7954 17.1667 17.7943C17.1667 17.7932 17.1667 17.7921 17.1667 17.791C17.1667 17.7899 17.1667 17.7888 17.1667 17.7877C17.1667 17.7866 17.1667 17.7855 17.1667 17.7843C17.1667 17.7832 17.1667 17.7821 17.1667 17.781C17.1667 17.7799 17.1667 17.7788 17.1667 17.7777C17.1667 17.7766 17.1667 17.7755 17.1667 17.7744C17.1667 17.7733 17.1667 17.7722 17.1667 17.7711C17.1667 17.77 17.1667 17.7689 17.1667 17.7677C17.1667 17.7666 17.1667 17.7655 17.1667 17.7644C17.1667 17.7633 17.1667 17.7622 17.1667 17.7611C17.1667 17.76 17.1667 17.7589 17.1667 17.7578C17.1667 17.7567 17.1667 17.7556 17.1667 17.7545C17.1667 17.7534 17.1667 17.7523 17.1667 17.7512C17.1667 17.7501 17.1667 17.749 17.1667 17.7479C17.1667 17.7468 17.1667 17.7456 17.1667 17.7445C17.1667 17.7434 17.1667 17.7423 17.1667 17.7412C17.1667 17.7401 17.1667 17.739 17.1667 17.7379C17.1667 17.7368 17.1667 17.7357 17.1667 17.7346C17.1667 17.7335 17.1667 17.7324 17.1667 17.7313C17.1667 17.7302 17.1667 17.7291 17.1667 17.728C17.1667 17.7269 17.1667 17.7258 17.1667 17.7247C17.1667 17.7236 17.1667 17.7225 17.1667 17.7214C17.1667 17.7203 17.1667 17.7192 17.1667 17.7181C17.1667 17.717 17.1667 17.7159 17.1667 17.7148C17.1667 17.7137 17.1667 17.7126 17.1667 17.7115C17.1667 17.7104 17.1667 17.7093 17.1667 17.7082C17.1667 17.7071 17.1667 17.706 17.1667 17.7049C17.1667 17.7038 17.1667 17.7027 17.1667 17.7016C17.1667 17.7005 17.1667 17.6994 17.1667 17.6983C17.1667 17.6972 17.1667 17.6961 17.1667 17.695C17.1667 17.6939 17.1667 17.6928 17.1667 17.6917C17.1667 17.6906 17.1667 17.6895 17.1667 17.6884C17.1667 17.6873 17.1667 17.6862 17.1667 17.6851C17.1667 17.684 17.1667 17.6829 17.1667 17.6818C17.1667 17.6807 17.1667 17.6796 17.1667 17.6785C17.1667 17.6774 17.1667 17.6763 17.1667 17.6752C17.1667 17.6741 17.1667 17.673 17.1667 17.6719C17.1667 17.6708 17.1667 17.6697 17.1667 17.6686C17.1667 17.6675 17.1667 17.6664 17.1667 17.6653C17.1667 17.6642 17.1667 17.6631 17.1667 17.662C17.1667 17.6609 17.1667 17.6598 17.1667 17.6587C17.1667 17.6576 17.1667 17.6565 17.1667 17.6555C17.1667 17.6544 17.1667 17.6533 17.1667 17.6522C17.1667 17.6511 17.1667 17.65 17.1667 17.6489C17.1667 17.6478 17.1667 17.6467 17.1667 17.6456C17.1667 17.6445 17.1667 17.6434 17.1667 17.6423C17.1667 17.6412 17.1667 17.6401 17.1667 17.639C17.1667 17.6379 17.1667 17.6368 17.1667 17.6357C17.1667 17.6346 17.1667 17.6336 17.1667 17.6325C17.1667 17.6314 17.1667 17.6303 17.1667 17.6292C17.1667 17.6281 17.1667 17.627 17.1667 17.6259C17.1667 17.6248 17.1667 17.6237 17.1667 17.6226C17.1667 17.6215 17.1667 17.6204 17.1667 17.6193C17.1667 17.6183 17.1667 17.6172 17.1667 17.6161C17.1667 17.615 17.1667 17.6139 17.1667 17.6128C17.1667 17.6117 17.1667 17.6106 17.1667 17.6095C17.1667 17.6084 17.1667 17.6073 17.1667 17.6062C17.1667 17.6051 17.1667 17.6041 17.1667 17.603C17.1667 17.6019 17.1667 17.6008 17.1667 17.5997C17.1667 17.5986 17.1667 17.5975 17.1667 17.5964C17.1667 17.5953 17.1667 17.5942 17.1667 17.5932C17.1667 17.5921 17.1667 17.591 17.1667 17.5899C17.1667 17.5888 17.1667 17.5877 17.1667 17.5866C17.1667 17.5855 17.1667 17.5844 17.1667 17.5833C17.1667 17.5823 17.1667 17.5812 17.1667 17.5801C17.1667 17.579 17.1667 17.5779 17.1667 17.5768C17.1667 17.5757 17.1667 17.5746 17.1667 17.5735C17.1667 17.5725 17.1667 17.5714 17.1667 17.5703C17.1667 17.5692 17.1667 17.5681 17.1667 17.567C17.1667 17.5659 17.1667 17.5648 17.1667 17.5638C17.1667 17.5627 17.1667 17.5616 17.1667 17.5605C17.1667 17.5594 17.1667 17.5583 17.1667 17.5572C17.1667 17.5562 17.1667 17.5551 17.1667 17.554C17.1667 17.5529 17.1667 17.5518 17.1667 17.5507C17.1667 17.5496 17.1667 17.5485 17.1667 17.5475C17.1667 17.5464 17.1667 17.5453 17.1667 17.5442C17.1667 17.5431 17.1667 17.542 17.1667 17.541C17.1667 17.5399 17.1667 17.5388 17.1667 17.5377C17.1667 17.5366 17.1667 17.5355 17.1667 17.5344C17.1667 17.5334 17.1667 17.5323 17.1667 17.5312C17.1667 17.5301 17.1667 17.529 17.1667 17.5279C17.1667 17.5269 17.1667 17.5258 17.1667 17.5247C17.1667 17.5236 17.1667 17.5225 17.1667 17.5214C17.1667 17.5204 17.1667 17.5193 17.1667 17.5182C17.1667 17.5171 17.1667 17.516 17.1667 17.5149C17.1667 17.5139 17.1667 17.5128 17.1667 17.5117C17.1667 17.5106 17.1667 17.5095 17.1667 17.5084C17.1667 17.5074 17.1667 17.5063 17.1667 17.5052C17.1667 17.5041 17.1667 17.503 17.1667 17.502C17.1667 17.5009 17.1667 17.4998 17.1667 17.4987C17.1667 17.4976 17.1667 17.4966 17.1667 17.4955C17.1667 17.4944 17.1667 17.4933 17.1667 17.4922C17.1667 17.4912 17.1667 17.4901 17.1667 17.489C17.1667 17.4879 17.1667 17.4868 17.1667 17.4858C17.1667 17.4847 17.1667 17.4836 17.1667 17.4825C17.1667 17.4814 17.1667 17.4804 17.1667 17.4793C17.1667 17.4782 17.1667 17.4771 17.1667 17.476C17.1667 17.475 17.1667 17.4739 17.1667 17.4728C17.1667 17.4717 17.1667 17.4706 17.1667 17.4696C17.1667 17.4685 17.1667 17.4674 17.1667 17.4663C17.1667 17.4653 17.1667 17.4642 17.1667 17.4631C17.1667 17.462 17.1667 17.4609 17.1667 17.4599C17.1667 17.4588 17.1667 17.4577 17.1667 17.4566C17.1667 17.4556 17.1667 17.4545 17.1667 17.4534C17.1667 17.4523 17.1667 17.4513 17.1667 17.4502C17.1667 17.4491 17.1667 17.448 17.1667 17.447C17.1667 17.4459 17.1667 17.4448 17.1667 17.4437C17.1667 17.4427 17.1667 17.4416 17.1667 17.4405C17.1667 17.4394 17.1667 17.4384 17.1667 17.4373C17.1667 17.4362 17.1667 17.4351 17.1667 17.4341C17.1667 17.433 17.1667 17.4319 17.1667 17.4308C17.1667 17.4298 17.1667 17.4287 17.1667 17.4276C17.1667 17.4265 17.1667 17.4255 17.1667 17.4244C17.1667 17.4233 17.1667 17.4222 17.1667 17.4212C17.1667 17.4201 17.1667 17.419 17.1667 17.4179C17.1667 17.4169 17.1667 17.4158 17.1667 17.4147C17.1667 17.4137 17.1667 17.4126 17.1667 17.4115C17.1667 17.4104 17.1667 17.4094 17.1667 17.4083C17.1667 17.4072 17.1667 17.4062 17.1667 17.4051C17.1667 17.404 17.1667 17.4029 17.1667 17.4019C17.1667 17.4008 17.1667 17.3997 17.1667 17.3987C17.1667 17.3976 17.1667 17.3965 17.1667 17.3954C17.1667 17.3944 17.1667 17.3933 17.1667 17.3922C17.1667 17.3912 17.1667 17.3901 17.1667 17.389C17.1667 17.388 17.1667 17.3869 17.1667 17.3858C17.1667 17.3847 17.1667 17.3837 17.1667 17.3826C17.1667 17.3815 17.1667 17.3805 17.1667 17.3794C17.1667 17.3783 17.1667 17.3773 17.1667 17.3762C17.1667 17.3751 17.1667 17.3741 17.1667 17.373C17.1667 17.3719 17.1667 17.3709 17.1667 17.3698C17.1667 17.3687 17.1667 17.3677 17.1667 17.3666C17.1667 17.3655 17.1667 17.3644 17.1667 17.3634C17.1667 17.3623 17.1667 17.3612 17.1667 17.3602C17.1667 17.3591 17.1667 17.358 17.1667 17.357C17.1667 17.3559 17.1667 17.3548 17.1667 17.3538C17.1667 17.3527 17.1667 17.3517 17.1667 17.3506C17.1667 17.3495 17.1667 17.3485 17.1667 17.3474C17.1667 17.3463 17.1667 17.3453 17.1667 17.3442C17.1667 17.3431 17.1667 17.3421 17.1667 17.341C17.1667 17.3399 17.1667 17.3389 17.1667 17.3378C17.1667 17.3367 17.1667 17.3357 17.1667 17.3346C17.1667 17.3335 17.1667 17.3325 17.1667 17.3314C17.1667 17.3304 17.1667 17.3293 17.1667 17.3282C17.1667 17.3272 17.1667 17.3261 17.1667 17.325C17.1667 17.324 17.1667 17.3229 17.1667 17.3218C17.1667 17.3208 17.1667 17.3197 17.1667 17.3187C17.1667 17.3176 17.1667 17.3165 17.1667 17.3155C17.1667 17.3144 17.1667 17.3134 17.1667 17.3123C17.1667 17.3112 17.1667 17.3102 17.1667 17.3091C17.1667 17.308 17.1667 17.307 17.1667 17.3059C17.1667 17.3049 17.1667 17.3038 17.1667 17.3027C17.1667 17.3017 17.1667 17.3006 17.1667 17.2996C17.1667 17.2985 17.1667 17.2974 17.1667 17.2964C17.1667 17.2953 17.1667 17.2943 17.1667 17.2932C17.1667 17.2921 17.1667 17.2911 17.1667 17.29C17.1667 17.289 17.1667 17.2879 17.1667 17.2868C17.1667 17.2858 17.1667 17.2847 17.1667 17.2837C17.1667 17.2826 17.1667 17.2815 17.1667 17.2805C17.1667 17.2794 17.1667 17.2784 17.1667 17.2773C17.1667 17.2763 17.1667 17.2752 17.1667 17.2741C17.1667 17.2731 17.1667 17.272 17.1667 17.271C17.1667 17.2699 17.1667 17.2689 17.1667 17.2678C17.1667 17.2667 17.1667 17.2657 17.1667 17.2646C17.1667 17.2636 17.1667 17.2625 17.1667 17.2615C17.1667 17.2604 17.1667 17.2593 17.1667 17.2583C17.1667 17.2572 17.1667 17.2562 17.1667 17.2551C17.1667 17.2541 17.1667 17.253 17.1667 17.252C17.1667 17.2509 17.1667 17.2498 17.1667 17.2488C17.1667 17.2477 17.1667 17.2467 17.1667 17.2456C17.1667 17.2446 17.1667 17.2435 17.1667 17.2425C17.1667 17.2414 17.1667 17.2404 17.1667 17.2393C17.1667 17.2382 17.1667 17.2372 17.1667 17.2361C17.1667 17.2351 17.1667 17.234 17.1667 17.233C17.1667 17.2319 17.1667 17.2309 17.1667 17.2298C17.1667 17.2288 17.1667 17.2277 17.1667 17.2267C17.1667 17.2256 17.1667 17.2246 17.1667 17.2235C17.1667 17.2225 17.1667 17.2214 17.1667 17.2204C17.1667 17.2193 17.1667 17.2183 17.1667 17.2172C17.1667 17.2161 17.1667 17.2151 17.1667 17.214C17.1667 17.213 17.1667 17.2119 17.1667 17.2109C17.1667 17.2098 17.1667 17.2088 17.1667 17.2077C17.1667 17.2067 17.1667 17.2056 17.1667 17.2046C17.1667 17.2035 17.1667 17.2025 17.1667 17.2014C17.1667 17.2004 17.1667 17.1993 17.1667 17.1983C17.1667 17.1972 17.1667 17.1962 17.1667 17.1951C17.1667 17.1941 17.1667 17.1931 17.1667 17.192C17.1667 17.191 17.1667 17.1899 17.1667 17.1889C17.1667 17.1878 17.1667 17.1868 17.1667 17.1857C17.1667 17.1847 17.1667 17.1836 17.1667 17.1826C17.1667 17.1815 17.1667 17.1805 17.1667 17.1794C17.1667 17.1784 17.1667 17.1773 17.1667 17.1763C17.1667 17.1752 17.1667 17.1742 17.1667 17.1731C17.1667 17.1721 17.1667 17.1711 17.1667 17.17C17.1667 17.169 17.1667 17.1679 17.1667 17.1669C17.1667 17.1658 17.1667 17.1648 17.1667 17.1637C17.1667 17.1627 17.1667 17.1616 17.1667 17.1606C17.1667 17.1596 17.1667 17.1585 17.1667 17.1575C17.1667 17.1564 17.1667 17.1554 17.1667 17.1543C17.1667 17.1533 17.1667 17.1522 17.1667 17.1512C17.1667 17.1502 17.1667 17.1491 17.1667 17.1481C17.1667 17.147 17.1667 17.146 17.1667 17.1449C17.1667 17.1439 17.1667 17.1429 17.1667 17.1418C17.1667 17.1408 17.1667 17.1397 17.1667 17.1387C17.1667 17.1376 17.1667 17.1366 17.1667 17.1356C17.1667 17.1345 17.1667 17.1335 17.1667 17.1324C17.1667 17.1314 17.1667 17.1303 17.1667 17.1293C17.1667 17.1283 17.1667 17.1272 17.1667 17.1262C17.1667 17.1251 17.1667 17.1241 17.1667 17.1231C17.1667 17.122 17.1667 17.121 17.1667 17.1199C17.1667 17.1189 17.1667 17.1179 17.1667 17.1168C17.1667 17.1158 17.1667 17.1147 17.1667 17.1137C17.1667 17.1127 17.1667 17.1116 17.1667 17.1106C17.1667 17.1095 17.1667 17.1085 17.1667 17.1075C17.1667 17.1064 17.1667 17.1054 17.1667 17.1044C17.1667 17.1033 17.1667 17.1023 17.1667 17.1012C17.1667 17.1002 17.1667 17.0992 17.1667 17.0981C17.1667 17.0971 17.1667 17.096 17.1667 17.095C17.1667 17.094 17.1667 17.0929 17.1667 17.0919C17.1667 17.0909 17.1667 17.0898 17.1667 17.0888C17.1667 17.0878 17.1667 17.0867 17.1667 17.0857C17.1667 17.0846 17.1667 17.0836 17.1667 17.0826C17.1667 17.0815 17.1667 17.0805 17.1667 17.0795C17.1667 17.0784 17.1667 17.0774 17.1667 17.0764C17.1667 17.0753 17.1667 17.0743 17.1667 17.0733C17.1667 17.0722 17.1667 17.0712 17.1667 17.0702C17.1667 17.0691 17.1667 17.0681 17.1667 17.067C17.1667 17.066 17.1667 17.065 17.1667 17.0639C17.1667 17.0629 17.1667 17.0619 17.1667 17.0608C17.1667 17.0598 17.1667 17.0588 17.1667 17.0577C17.1667 17.0567 17.1667 17.0557 17.1667 17.0546C17.1667 17.0536 17.1667 17.0526 17.1667 17.0516C17.1667 17.0505 17.1667 17.0495 17.1667 17.0485C17.1667 17.0474 17.1667 17.0464 17.1667 17.0454C17.1667 17.0443 17.1667 17.0433 17.1667 17.0423C17.1667 17.0412 17.1667 17.0402 17.1667 17.0392C17.1667 17.0381 17.1667 17.0371 17.1667 17.0361C17.1667 17.0351 17.1667 17.034 17.1667 17.033C17.1667 17.032 17.1667 17.0309 17.1667 17.0299C17.1667 17.0289 17.1667 17.0278 17.1667 17.0268C17.1667 17.0258 17.1667 17.0248 17.1667 17.0237C17.1667 17.0227 17.1667 17.0217 17.1667 17.0206C17.1667 17.0196 17.1667 17.0186 17.1667 17.0176C17.1667 17.0165 17.1667 17.0155 17.1667 17.0145C17.1667 17.0134 17.1667 17.0124 17.1667 17.0114C17.1667 17.0104 17.1667 17.0093 17.1667 17.0083C17.1667 17.0073 17.1667 17.0063 17.1667 17.0052C17.1667 17.0042 17.1667 17.0032 17.1667 17.0022C17.1667 17.0011 17.1667 17.0001 17.1667 16.9991C17.1667 16.998 17.1667 16.997 17.1667 16.996C17.1667 16.995 17.1667 16.9939 17.1667 16.9929C17.1667 16.9919 17.1667 16.9909 17.1667 16.9898C17.1667 16.9888 17.1667 16.9878 17.1667 16.9868C17.1667 16.9858 17.1667 16.9847 17.1667 16.9837C17.1667 16.9827 17.1667 16.9817 17.1667 16.9806C17.1667 16.9796 17.1667 16.9786 17.1667 16.9776C17.1667 16.9765 17.1667 16.9755 17.1667 16.9745C17.1667 16.9735 17.1667 16.9724 17.1667 16.9714C17.1667 16.9704 17.1667 16.9694 17.1667 16.9684C17.1667 16.9673 17.1667 16.9663 17.1667 16.9653C17.1667 16.9643 17.1667 16.9633 17.1667 16.9622C17.1667 16.9612 17.1667 16.9602 17.1667 16.9592C17.1667 16.9581 17.1667 16.9571 17.1667 16.9561C17.1667 16.9551 17.1667 16.9541 17.1667 16.953C17.1667 16.952 17.1667 16.951 17.1667 16.95C17.1667 16.949 17.1667 16.9479 17.1667 16.9469C17.1667 16.9459 17.1667 16.9449 17.1667 16.9439C17.1667 16.9428 17.1667 16.9418 17.1667 16.9408C17.1667 16.9398 17.1667 16.9388 17.1667 16.9378C17.1667 16.9367 17.1667 16.9357 17.1667 16.9347C17.1667 16.9337 17.1667 16.9327 17.1667 16.9316C17.1667 16.9306 17.1667 16.9296 17.1667 16.9286C17.1667 16.9276 17.1667 16.9266 17.1667 16.9255C17.1667 16.9245 17.1667 16.9235 17.1667 16.9225C17.1667 16.9215 17.1667 16.9205 17.1667 16.9194C17.1667 16.9184 17.1667 16.9174 17.1667 16.9164C17.1667 16.9154 17.1667 16.9144 17.1667 16.9134C17.1667 16.9123 17.1667 16.9113 17.1667 16.9103C17.1667 16.9093 17.1667 16.9083 17.1667 16.9073C17.1667 16.9063 17.1667 16.9052 17.1667 16.9042C17.1667 16.9032 17.1667 16.9022 17.1667 16.9012C17.1667 16.9002 17.1667 16.8992 17.1667 16.8981C17.1667 16.8971 17.1667 16.8961 17.1667 16.8951C17.1667 16.8941 17.1667 16.8931 17.1667 16.8921C17.1667 16.8911 17.1667 16.89 17.1667 16.889C17.1667 16.888 17.1667 16.887 17.1667 16.886C17.1667 16.885 17.1667 16.884 17.1667 16.883C17.1667 16.882 17.1667 16.8809 17.1667 16.8799C17.1667 16.8789 17.1667 16.8779 17.1667 16.8769C17.1667 16.8759 17.1667 16.8749 17.1667 16.8739C17.1667 16.8729 17.1667 16.8718 17.1667 16.8708C17.1667 16.8698 17.1667 16.8688 17.1667 16.8678C17.1667 16.8668 17.1667 16.8658 17.1667 16.8648C17.1667 16.8638 17.1667 16.8628 17.1667 16.8618C17.1667 16.8608 17.1667 16.8597 17.1667 16.8587C17.1667 16.8577 17.1667 16.8567 17.1667 16.8557C17.1667 16.8547 17.1667 16.8537 17.1667 16.8527C17.1667 16.8517 17.1667 16.8507 17.1667 16.8497C17.1667 16.8487 17.1667 16.8477 17.1667 16.8466C17.1667 16.8456 17.1667 16.8446 17.1667 16.8436C17.1667 16.8426 17.1667 16.8416 17.1667 16.8406C17.1667 16.8396 17.1667 16.8386 17.1667 16.8376C17.1667 16.8366 17.1667 16.8356 17.1667 16.8346C17.1667 16.8336 17.1667 16.8326 17.1667 16.8316C17.1667 16.8306 17.1667 16.8296 17.1667 16.8286C17.1667 16.8275 17.1667 16.8265 17.1667 16.8255C17.1667 16.8245 17.1667 16.8235 17.1667 16.8225C17.1667 16.8215 17.1667 16.8205 17.1667 16.8195C17.1667 16.8185 17.1667 16.8175 17.1667 16.8165C17.1667 16.8155 17.1667 16.8145 17.1667 16.8135C17.1667 16.8125 17.1667 16.8115 17.1667 16.8105C17.1667 16.8095 17.1667 16.8085 17.1667 16.8075C17.1667 16.8065 17.1667 16.8055 17.1667 16.8045C17.1667 16.8035 17.1667 16.8025 17.1667 16.8015C17.1667 16.8005 17.1667 16.7995 17.1667 16.7985C17.1667 16.7975 17.1667 16.7965 17.1667 16.7955C17.1667 16.7945 17.1667 16.7935 17.1667 16.7925C17.1667 16.7915 17.1667 16.7905 17.1667 16.7895C17.1667 16.7885 17.1667 16.7875 17.1667 16.7865C17.1667 16.7855 17.1667 16.7845 17.1667 16.7835C17.1667 16.7825 17.1667 16.7815 17.1667 16.7805C17.1667 16.7795 17.1667 16.7785 17.1667 16.7775C17.1667 16.7765 17.1667 16.7755 17.1667 16.7745C17.1667 16.7735 17.1667 16.7725 17.1667 16.7715C17.1667 16.7705 17.1667 16.7695 17.1667 16.7685C17.1667 16.7676 17.1667 16.7666 17.1667 16.7656H16.1667ZM14.1667 14.766C15.2714 14.766 16.1667 15.6611 16.1667 16.7656H17.1667C17.1667 15.1086 15.8234 13.766 14.1667 13.766V14.766ZM8.83337 16.7656C8.83337 15.6611 9.72869 14.766 10.8334 14.766V13.766C9.17663 13.766 7.83337 15.1086 7.83337 16.7656H8.83337Z" fill="#87D40E"/>
</svg>
