<svg width="24" height="24" viewBox="0 0 24 24" fill="#0D2573" xmlns="http://www.w3.org/2000/svg">
<path d="M6.93994 5C6.93994 5.39556 6.82264 5.78224 6.60288 6.11114C6.38312 6.44004 6.07076 6.69638 5.70531 6.84776C5.33986 6.99913 4.93772 7.03874 4.54976 6.96157C4.1618 6.8844 3.80543 6.69392 3.52573 6.41421C3.24602 6.13451 3.05554 5.77814 2.97837 5.39018C2.9012 5.00222 2.94081 4.60009 3.09218 4.23463C3.24356 3.86918 3.4999 3.55682 3.8288 3.33706C4.1577 3.1173 4.54438 3 4.93994 3C5.47038 3 5.97908 3.21071 6.35416 3.58579C6.72923 3.96086 6.93994 4.46957 6.93994 5ZM6.99994 8.48H2.99994V21H6.99994V8.48ZM13.3199 8.48H9.33994V21H13.2799V14.43C13.2799 10.77 18.0499 10.43 18.0499 14.43V21H21.9999V13.07C21.9999 6.9 14.9399 7.13 13.2799 10.16L13.3199 8.48Z" fill="#0D2573"/>
</svg>
