<svg width="24" height="24" viewBox="0 0 24 24" fill="none" xmlns="http://www.w3.org/2000/svg">
<path d="M8.99994 5H6.99994C6.46951 5 5.9608 5.21071 5.58573 5.58579C5.21065 5.96086 4.99994 6.46957 4.99994 7V19C4.99994 19.5304 5.21065 20.0391 5.58573 20.4142C5.9608 20.7893 6.46951 21 6.99994 21H16.9999C17.5304 21 18.0391 20.7893 18.4142 20.4142C18.7892 20.0391 18.9999 19.5304 18.9999 19V7C18.9999 6.46957 18.7892 5.96086 18.4142 5.58579C18.0391 5.21071 17.5304 5 16.9999 5H14.9999" stroke="#3F4544" stroke-width="1.5" stroke-linecap="round" stroke-linejoin="round"/>
<path d="M13 3H11C9.89543 3 9 3.89543 9 5C9 6.10457 9.89543 7 11 7H13C14.1046 7 15 6.10457 15 5C15 3.89543 14.1046 3 13 3Z" stroke="#3F4544" stroke-width="1.5" stroke-linecap="round" stroke-linejoin="round"/>
<path d="M10 14H14" stroke="#3F4544" stroke-width="1.5" stroke-linecap="round" stroke-linejoin="round"/>
<path d="M12 12V16" stroke="#3F4544" stroke-width="1.5" stroke-linecap="round" stroke-linejoin="round"/>
</svg>
