<svg width="32" height="32" viewBox="0 0 32 32" fill="none" xmlns="http://www.w3.org/2000/svg">
<circle cx="16" cy="16" r="16" fill="#F3FDE2"/>
<path d="M21.3334 23.5901V24.3401C21.7476 24.3401 22.0834 24.0043 22.0834 23.5901H21.3334ZM10.6667 23.5901H9.91672C9.91672 24.0043 10.2525 24.3401 10.6667 24.3401V23.5901ZM18.45 11.8644C18.45 13.2161 17.3538 14.3123 16.0001 14.3123V15.8123C18.1813 15.8123 19.95 14.0454 19.95 11.8644H18.45ZM16.0001 14.3123C14.6463 14.3123 13.5501 13.2161 13.5501 11.8644H12.0501C12.0501 14.0454 13.8188 15.8123 16.0001 15.8123V14.3123ZM13.5501 11.8644C13.5501 10.5128 14.6463 9.4165 16.0001 9.4165V7.9165C13.8188 7.9165 12.0501 9.68343 12.0501 11.8644H13.5501ZM16.0001 9.4165C17.3538 9.4165 18.45 10.5128 18.45 11.8644H19.95C19.95 9.68343 18.1813 7.9165 16.0001 7.9165V9.4165ZM21.3334 22.8401H10.6667V24.3401H21.3334V22.8401ZM11.4167 23.5901C11.4167 23.5886 11.4167 23.5871 11.4167 23.5857C11.4167 23.5842 11.4167 23.5827 11.4167 23.5812C11.4167 23.5798 11.4167 23.5783 11.4167 23.5768C11.4167 23.5753 11.4167 23.5738 11.4167 23.5724C11.4167 23.5709 11.4167 23.5694 11.4167 23.5679C11.4167 23.5665 11.4167 23.565 11.4167 23.5635C11.4167 23.562 11.4167 23.5605 11.4167 23.5591C11.4167 23.5576 11.4167 23.5561 11.4167 23.5546C11.4167 23.5532 11.4167 23.5517 11.4167 23.5502C11.4167 23.5487 11.4167 23.5472 11.4167 23.5458C11.4167 23.5443 11.4167 23.5428 11.4167 23.5413C11.4167 23.5399 11.4167 23.5384 11.4167 23.5369C11.4167 23.5354 11.4167 23.534 11.4167 23.5325C11.4167 23.531 11.4167 23.5295 11.4167 23.5281C11.4167 23.5266 11.4167 23.5251 11.4167 23.5236C11.4167 23.5222 11.4167 23.5207 11.4167 23.5192C11.4167 23.5177 11.4167 23.5163 11.4167 23.5148C11.4167 23.5133 11.4167 23.5118 11.4167 23.5104C11.4167 23.5089 11.4167 23.5074 11.4167 23.5059C11.4167 23.5045 11.4167 23.503 11.4167 23.5015C11.4167 23.5 11.4167 23.4986 11.4167 23.4971C11.4167 23.4956 11.4167 23.4942 11.4167 23.4927C11.4167 23.4912 11.4167 23.4897 11.4167 23.4883C11.4167 23.4868 11.4167 23.4853 11.4167 23.4838C11.4167 23.4824 11.4167 23.4809 11.4167 23.4794C11.4167 23.478 11.4167 23.4765 11.4167 23.475C11.4167 23.4735 11.4167 23.4721 11.4167 23.4706C11.4167 23.4691 11.4167 23.4677 11.4167 23.4662C11.4167 23.4647 11.4167 23.4632 11.4167 23.4618C11.4167 23.4603 11.4167 23.4588 11.4167 23.4574C11.4167 23.4559 11.4167 23.4544 11.4167 23.4529C11.4167 23.4515 11.4167 23.45 11.4167 23.4485C11.4167 23.4471 11.4167 23.4456 11.4167 23.4441C11.4167 23.4427 11.4167 23.4412 11.4167 23.4397C11.4167 23.4383 11.4167 23.4368 11.4167 23.4353C11.4167 23.4338 11.4167 23.4324 11.4167 23.4309C11.4167 23.4294 11.4167 23.428 11.4167 23.4265C11.4167 23.425 11.4167 23.4236 11.4167 23.4221C11.4167 23.4206 11.4167 23.4192 11.4167 23.4177C11.4167 23.4162 11.4167 23.4148 11.4167 23.4133C11.4167 23.4118 11.4167 23.4104 11.4167 23.4089C11.4167 23.4074 11.4167 23.4059 11.4167 23.4045C11.4167 23.403 11.4167 23.4015 11.4167 23.4001C11.4167 23.3986 11.4167 23.3971 11.4167 23.3957C11.4167 23.3942 11.4167 23.3927 11.4167 23.3913C11.4167 23.3898 11.4167 23.3884 11.4167 23.3869C11.4167 23.3854 11.4167 23.384 11.4167 23.3825C11.4167 23.381 11.4167 23.3796 11.4167 23.3781C11.4167 23.3766 11.4167 23.3752 11.4167 23.3737C11.4167 23.3722 11.4167 23.3708 11.4167 23.3693C11.4167 23.3678 11.4167 23.3664 11.4167 23.3649C11.4167 23.3634 11.4167 23.362 11.4167 23.3605C11.4167 23.3591 11.4167 23.3576 11.4167 23.3561C11.4167 23.3547 11.4167 23.3532 11.4167 23.3517C11.4167 23.3503 11.4167 23.3488 11.4167 23.3473C11.4167 23.3459 11.4167 23.3444 11.4167 23.343C11.4167 23.3415 11.4167 23.34 11.4167 23.3386C11.4167 23.3371 11.4167 23.3356 11.4167 23.3342C11.4167 23.3327 11.4167 23.3313 11.4167 23.3298C11.4167 23.3283 11.4167 23.3269 11.4167 23.3254C11.4167 23.3239 11.4167 23.3225 11.4167 23.321C11.4167 23.3196 11.4167 23.3181 11.4167 23.3166C11.4167 23.3152 11.4167 23.3137 11.4167 23.3123C11.4167 23.3108 11.4167 23.3093 11.4167 23.3079C11.4167 23.3064 11.4167 23.305 11.4167 23.3035C11.4167 23.302 11.4167 23.3006 11.4167 23.2991C11.4167 23.2977 11.4167 23.2962 11.4167 23.2947C11.4167 23.2933 11.4167 23.2918 11.4167 23.2904C11.4167 23.2889 11.4167 23.2874 11.4167 23.286C11.4167 23.2845 11.4167 23.2831 11.4167 23.2816C11.4167 23.2802 11.4167 23.2787 11.4167 23.2772C11.4167 23.2758 11.4167 23.2743 11.4167 23.2729C11.4167 23.2714 11.4167 23.2699 11.4167 23.2685C11.4167 23.267 11.4167 23.2656 11.4167 23.2641C11.4167 23.2627 11.4167 23.2612 11.4167 23.2597C11.4167 23.2583 11.4167 23.2568 11.4167 23.2554C11.4167 23.2539 11.4167 23.2525 11.4167 23.251C11.4167 23.2495 11.4167 23.2481 11.4167 23.2466C11.4167 23.2452 11.4167 23.2437 11.4167 23.2423C11.4167 23.2408 11.4167 23.2394 11.4167 23.2379C11.4167 23.2364 11.4167 23.235 11.4167 23.2335C11.4167 23.2321 11.4167 23.2306 11.4167 23.2292C11.4167 23.2277 11.4167 23.2263 11.4167 23.2248C11.4167 23.2234 11.4167 23.2219 11.4167 23.2204C11.4167 23.219 11.4167 23.2175 11.4167 23.2161C11.4167 23.2146 11.4167 23.2132 11.4167 23.2117C11.4167 23.2103 11.4167 23.2088 11.4167 23.2074C11.4167 23.2059 11.4167 23.2045 11.4167 23.203C11.4167 23.2016 11.4167 23.2001 11.4167 23.1987C11.4167 23.1972 11.4167 23.1957 11.4167 23.1943C11.4167 23.1928 11.4167 23.1914 11.4167 23.1899C11.4167 23.1885 11.4167 23.187 11.4167 23.1856C11.4167 23.1841 11.4167 23.1827 11.4167 23.1812C11.4167 23.1798 11.4167 23.1783 11.4167 23.1769C11.4167 23.1754 11.4167 23.174 11.4167 23.1725C11.4167 23.1711 11.4167 23.1696 11.4167 23.1682C11.4167 23.1667 11.4167 23.1653 11.4167 23.1638C11.4167 23.1624 11.4167 23.1609 11.4167 23.1595C11.4167 23.158 11.4167 23.1566 11.4167 23.1551C11.4167 23.1537 11.4167 23.1522 11.4167 23.1508C11.4167 23.1493 11.4167 23.1479 11.4167 23.1464C11.4167 23.145 11.4167 23.1435 11.4167 23.1421C11.4167 23.1406 11.4167 23.1392 11.4167 23.1377C11.4167 23.1363 11.4167 23.1348 11.4167 23.1334C11.4167 23.132 11.4167 23.1305 11.4167 23.1291C11.4167 23.1276 11.4167 23.1262 11.4167 23.1247C11.4167 23.1233 11.4167 23.1218 11.4167 23.1204C11.4167 23.1189 11.4167 23.1175 11.4167 23.116C11.4167 23.1146 11.4167 23.1131 11.4167 23.1117C11.4167 23.1103 11.4167 23.1088 11.4167 23.1074C11.4167 23.1059 11.4167 23.1045 11.4167 23.103C11.4167 23.1016 11.4167 23.1001 11.4167 23.0987C11.4167 23.0972 11.4167 23.0958 11.4167 23.0944C11.4167 23.0929 11.4167 23.0915 11.4167 23.09C11.4167 23.0886 11.4167 23.0871 11.4167 23.0857C11.4167 23.0843 11.4167 23.0828 11.4167 23.0814C11.4167 23.0799 11.4167 23.0785 11.4167 23.077C11.4167 23.0756 11.4167 23.0741 11.4167 23.0727C11.4167 23.0713 11.4167 23.0698 11.4167 23.0684C11.4167 23.0669 11.4167 23.0655 11.4167 23.064C11.4167 23.0626 11.4167 23.0612 11.4167 23.0597C11.4167 23.0583 11.4167 23.0568 11.4167 23.0554C11.4167 23.054 11.4167 23.0525 11.4167 23.0511C11.4167 23.0496 11.4167 23.0482 11.4167 23.0468C11.4167 23.0453 11.4167 23.0439 11.4167 23.0424C11.4167 23.041 11.4167 23.0395 11.4167 23.0381C11.4167 23.0367 11.4167 23.0352 11.4167 23.0338C11.4167 23.0323 11.4167 23.0309 11.4167 23.0295C11.4167 23.028 11.4167 23.0266 11.4167 23.0252C11.4167 23.0237 11.4167 23.0223 11.4167 23.0208C11.4167 23.0194 11.4167 23.018 11.4167 23.0165C11.4167 23.0151 11.4167 23.0136 11.4167 23.0122C11.4167 23.0108 11.4167 23.0093 11.4167 23.0079C11.4167 23.0065 11.4167 23.005 11.4167 23.0036C11.4167 23.0021 11.4167 23.0007 11.4167 22.9993C11.4167 22.9978 11.4167 22.9964 11.4167 22.995C11.4167 22.9935 11.4167 22.9921 11.4167 22.9906C11.4167 22.9892 11.4167 22.9878 11.4167 22.9863C11.4167 22.9849 11.4167 22.9835 11.4167 22.982C11.4167 22.9806 11.4167 22.9792 11.4167 22.9777C11.4167 22.9763 11.4167 22.9749 11.4167 22.9734C11.4167 22.972 11.4167 22.9705 11.4167 22.9691C11.4167 22.9677 11.4167 22.9662 11.4167 22.9648C11.4167 22.9634 11.4167 22.9619 11.4167 22.9605C11.4167 22.9591 11.4167 22.9576 11.4167 22.9562C11.4167 22.9548 11.4167 22.9533 11.4167 22.9519C11.4167 22.9505 11.4167 22.949 11.4167 22.9476C11.4167 22.9462 11.4167 22.9447 11.4167 22.9433C11.4167 22.9419 11.4167 22.9404 11.4167 22.939C11.4167 22.9376 11.4167 22.9361 11.4167 22.9347C11.4167 22.9333 11.4167 22.9319 11.4167 22.9304C11.4167 22.929 11.4167 22.9276 11.4167 22.9261C11.4167 22.9247 11.4167 22.9233 11.4167 22.9218C11.4167 22.9204 11.4167 22.919 11.4167 22.9175C11.4167 22.9161 11.4167 22.9147 11.4167 22.9132C11.4167 22.9118 11.4167 22.9104 11.4167 22.909C11.4167 22.9075 11.4167 22.9061 11.4167 22.9047C11.4167 22.9032 11.4167 22.9018 11.4167 22.9004C11.4167 22.899 11.4167 22.8975 11.4167 22.8961C11.4167 22.8947 11.4167 22.8932 11.4167 22.8918C11.4167 22.8904 11.4167 22.889 11.4167 22.8875C11.4167 22.8861 11.4167 22.8847 11.4167 22.8832C11.4167 22.8818 11.4167 22.8804 11.4167 22.879C11.4167 22.8775 11.4167 22.8761 11.4167 22.8747C11.4167 22.8733 11.4167 22.8718 11.4167 22.8704C11.4167 22.869 11.4167 22.8675 11.4167 22.8661C11.4167 22.8647 11.4167 22.8633 11.4167 22.8618C11.4167 22.8604 11.4167 22.859 11.4167 22.8576C11.4167 22.8561 11.4167 22.8547 11.4167 22.8533C11.4167 22.8519 11.4167 22.8504 11.4167 22.849C11.4167 22.8476 11.4167 22.8462 11.4167 22.8447C11.4167 22.8433 11.4167 22.8419 11.4167 22.8405C11.4167 22.839 11.4167 22.8376 11.4167 22.8362C11.4167 22.8348 11.4167 22.8334 11.4167 22.8319C11.4167 22.8305 11.4167 22.8291 11.4167 22.8277C11.4167 22.8262 11.4167 22.8248 11.4167 22.8234C11.4167 22.822 11.4167 22.8205 11.4167 22.8191C11.4167 22.8177 11.4167 22.8163 11.4167 22.8149C11.4167 22.8134 11.4167 22.812 11.4167 22.8106C11.4167 22.8092 11.4167 22.8077 11.4167 22.8063C11.4167 22.8049 11.4167 22.8035 11.4167 22.8021C11.4167 22.8006 11.4167 22.7992 11.4167 22.7978C11.4167 22.7964 11.4167 22.795 11.4167 22.7935C11.4167 22.7921 11.4167 22.7907 11.4167 22.7893C11.4167 22.7879 11.4167 22.7864 11.4167 22.785C11.4167 22.7836 11.4167 22.7822 11.4167 22.7808C11.4167 22.7793 11.4167 22.7779 11.4167 22.7765C11.4167 22.7751 11.4167 22.7737 11.4167 22.7723C11.4167 22.7708 11.4167 22.7694 11.4167 22.768C11.4167 22.7666 11.4167 22.7652 11.4167 22.7637C11.4167 22.7623 11.4167 22.7609 11.4167 22.7595C11.4167 22.7581 11.4167 22.7567 11.4167 22.7552C11.4167 22.7538 11.4167 22.7524 11.4167 22.751C11.4167 22.7496 11.4167 22.7482 11.4167 22.7467C11.4167 22.7453 11.4167 22.7439 11.4167 22.7425C11.4167 22.7411 11.4167 22.7397 11.4167 22.7383C11.4167 22.7368 11.4167 22.7354 11.4167 22.734C11.4167 22.7326 11.4167 22.7312 11.4167 22.7298C11.4167 22.7284 11.4167 22.7269 11.4167 22.7255C11.4167 22.7241 11.4167 22.7227 11.4167 22.7213C11.4167 22.7199 11.4167 22.7185 11.4167 22.717C11.4167 22.7156 11.4167 22.7142 11.4167 22.7128C11.4167 22.7114 11.4167 22.71 11.4167 22.7086C11.4167 22.7071 11.4167 22.7057 11.4167 22.7043C11.4167 22.7029 11.4167 22.7015 11.4167 22.7001C11.4167 22.6987 11.4167 22.6973 11.4167 22.6959C11.4167 22.6944 11.4167 22.693 11.4167 22.6916C11.4167 22.6902 11.4167 22.6888 11.4167 22.6874C11.4167 22.686 11.4167 22.6846 11.4167 22.6832C11.4167 22.6817 11.4167 22.6803 11.4167 22.6789C11.4167 22.6775 11.4167 22.6761 11.4167 22.6747C11.4167 22.6733 11.4167 22.6719 11.4167 22.6705C11.4167 22.6691 11.4167 22.6676 11.4167 22.6662C11.4167 22.6648 11.4167 22.6634 11.4167 22.662C11.4167 22.6606 11.4167 22.6592 11.4167 22.6578C11.4167 22.6564 11.4167 22.655 11.4167 22.6536C11.4167 22.6522 11.4167 22.6508 11.4167 22.6493C11.4167 22.6479 11.4167 22.6465 11.4167 22.6451C11.4167 22.6437 11.4167 22.6423 11.4167 22.6409C11.4167 22.6395 11.4167 22.6381 11.4167 22.6367C11.4167 22.6353 11.4167 22.6339 11.4167 22.6325C11.4167 22.6311 11.4167 22.6297 11.4167 22.6282C11.4167 22.6268 11.4167 22.6254 11.4167 22.624C11.4167 22.6226 11.4167 22.6212 11.4167 22.6198C11.4167 22.6184 11.4167 22.617 11.4167 22.6156C11.4167 22.6142 11.4167 22.6128 11.4167 22.6114C11.4167 22.61 11.4167 22.6086 11.4167 22.6072C11.4167 22.6058 11.4167 22.6044 11.4167 22.603C11.4167 22.6016 11.4167 22.6002 11.4167 22.5988C11.4167 22.5974 11.4167 22.596 11.4167 22.5946C11.4167 22.5932 11.4167 22.5918 11.4167 22.5903C11.4167 22.5889 11.4167 22.5875 11.4167 22.5861C11.4167 22.5847 11.4167 22.5833 11.4167 22.5819C11.4167 22.5805 11.4167 22.5791 11.4167 22.5777C11.4167 22.5763 11.4167 22.5749 11.4167 22.5735C11.4167 22.5721 11.4167 22.5707 11.4167 22.5693C11.4167 22.5679 11.4167 22.5665 11.4167 22.5651C11.4167 22.5637 11.4167 22.5623 11.4167 22.5609C11.4167 22.5595 11.4167 22.5581 11.4167 22.5567C11.4167 22.5553 11.4167 22.5539 11.4167 22.5525C11.4167 22.5511 11.4167 22.5497 11.4167 22.5484C11.4167 22.547 11.4167 22.5456 11.4167 22.5442C11.4167 22.5428 11.4167 22.5414 11.4167 22.54C11.4167 22.5386 11.4167 22.5372 11.4167 22.5358C11.4167 22.5344 11.4167 22.533 11.4167 22.5316C11.4167 22.5302 11.4167 22.5288 11.4167 22.5274C11.4167 22.526 11.4167 22.5246 11.4167 22.5232C11.4167 22.5218 11.4167 22.5204 11.4167 22.519C11.4167 22.5176 11.4167 22.5162 11.4167 22.5148C11.4167 22.5134 11.4167 22.512 11.4167 22.5107C11.4167 22.5093 11.4167 22.5079 11.4167 22.5065C11.4167 22.5051 11.4167 22.5037 11.4167 22.5023C11.4167 22.5009 11.4167 22.4995 11.4167 22.4981C11.4167 22.4967 11.4167 22.4953 11.4167 22.4939C11.4167 22.4925 11.4167 22.4911 11.4167 22.4898C11.4167 22.4884 11.4167 22.487 11.4167 22.4856C11.4167 22.4842 11.4167 22.4828 11.4167 22.4814C11.4167 22.48 11.4167 22.4786 11.4167 22.4772C11.4167 22.4758 11.4167 22.4744 11.4167 22.4731C11.4167 22.4717 11.4167 22.4703 11.4167 22.4689C11.4167 22.4675 11.4167 22.4661 11.4167 22.4647C11.4167 22.4633 11.4167 22.4619 11.4167 22.4605C11.4167 22.4591 11.4167 22.4578 11.4167 22.4564C11.4167 22.455 11.4167 22.4536 11.4167 22.4522C11.4167 22.4508 11.4167 22.4494 11.4167 22.448C11.4167 22.4466 11.4167 22.4453 11.4167 22.4439C11.4167 22.4425 11.4167 22.4411 11.4167 22.4397C11.4167 22.4383 11.4167 22.4369 11.4167 22.4355C11.4167 22.4342 11.4167 22.4328 11.4167 22.4314C11.4167 22.43 11.4167 22.4286 11.4167 22.4272C11.4167 22.4258 11.4167 22.4245 11.4167 22.4231C11.4167 22.4217 11.4167 22.4203 11.4167 22.4189C11.4167 22.4175 11.4167 22.4161 11.4167 22.4148C11.4167 22.4134 11.4167 22.412 11.4167 22.4106C11.4167 22.4092 11.4167 22.4078 11.4167 22.4064C11.4167 22.4051 11.4167 22.4037 11.4167 22.4023C11.4167 22.4009 11.4167 22.3995 11.4167 22.3981C11.4167 22.3968 11.4167 22.3954 11.4167 22.394C11.4167 22.3926 11.4167 22.3912 11.4167 22.3898C11.4167 22.3885 11.4167 22.3871 11.4167 22.3857C11.4167 22.3843 11.4167 22.3829 11.4167 22.3815C11.4167 22.3802 11.4167 22.3788 11.4167 22.3774C11.4167 22.376 11.4167 22.3746 11.4167 22.3733C11.4167 22.3719 11.4167 22.3705 11.4167 22.3691C11.4167 22.3677 11.4167 22.3664 11.4167 22.365C11.4167 22.3636 11.4167 22.3622 11.4167 22.3608C11.4167 22.3595 11.4167 22.3581 11.4167 22.3567C11.4167 22.3553 11.4167 22.3539 11.4167 22.3526C11.4167 22.3512 11.4167 22.3498 11.4167 22.3484C11.4167 22.347 11.4167 22.3457 11.4167 22.3443C11.4167 22.3429 11.4167 22.3415 11.4167 22.3402C11.4167 22.3388 11.4167 22.3374 11.4167 22.336C11.4167 22.3346 11.4167 22.3333 11.4167 22.3319C11.4167 22.3305 11.4167 22.3291 11.4167 22.3278C11.4167 22.3264 11.4167 22.325 11.4167 22.3236C11.4167 22.3223 11.4167 22.3209 11.4167 22.3195C11.4167 22.3181 11.4167 22.3168 11.4167 22.3154C11.4167 22.314 11.4167 22.3126 11.4167 22.3113C11.4167 22.3099 11.4167 22.3085 11.4167 22.3071C11.4167 22.3058 11.4167 22.3044 11.4167 22.303C11.4167 22.3016 11.4167 22.3003 11.4167 22.2989C11.4167 22.2975 11.4167 22.2961 11.4167 22.2948C11.4167 22.2934 11.4167 22.292 11.4167 22.2906C11.4167 22.2893 11.4167 22.2879 11.4167 22.2865C11.4167 22.2852 11.4167 22.2838 11.4167 22.2824C11.4167 22.281 11.4167 22.2797 11.4167 22.2783C11.4167 22.2769 11.4167 22.2756 11.4167 22.2742C11.4167 22.2728 11.4167 22.2714 11.4167 22.2701C11.4167 22.2687 11.4167 22.2673 11.4167 22.266C11.4167 22.2646 11.4167 22.2632 11.4167 22.2618C11.4167 22.2605 11.4167 22.2591 11.4167 22.2577C11.4167 22.2564 11.4167 22.255 11.4167 22.2536C11.4167 22.2523 11.4167 22.2509 11.4167 22.2495C11.4167 22.2482 11.4167 22.2468 11.4167 22.2454C11.4167 22.2441 11.4167 22.2427 11.4167 22.2413C11.4167 22.2399 11.4167 22.2386 11.4167 22.2372C11.4167 22.2358 11.4167 22.2345 11.4167 22.2331C11.4167 22.2317 11.4167 22.2304 11.4167 22.229C11.4167 22.2276 11.4167 22.2263 11.4167 22.2249C11.4167 22.2235 11.4167 22.2222 11.4167 22.2208C11.4167 22.2195 11.4167 22.2181 11.4167 22.2167C11.4167 22.2154 11.4167 22.214 11.4167 22.2126C11.4167 22.2113 11.4167 22.2099 11.4167 22.2085C11.4167 22.2072 11.4167 22.2058 11.4167 22.2044C11.4167 22.2031 11.4167 22.2017 11.4167 22.2004C11.4167 22.199 11.4167 22.1976 11.4167 22.1963C11.4167 22.1949 11.4167 22.1935 11.4167 22.1922C11.4167 22.1908 11.4167 22.1894 11.4167 22.1881C11.4167 22.1867 11.4167 22.1854 11.4167 22.184C11.4167 22.1826 11.4167 22.1813 11.4167 22.1799C11.4167 22.1786 11.4167 22.1772 11.4167 22.1758C11.4167 22.1745 11.4167 22.1731 11.4167 22.1718C11.4167 22.1704 11.4167 22.169 11.4167 22.1677C11.4167 22.1663 11.4167 22.165 11.4167 22.1636C11.4167 22.1622 11.4167 22.1609 11.4167 22.1595C11.4167 22.1582 11.4167 22.1568 11.4167 22.1554C11.4167 22.1541 11.4167 22.1527 11.4167 22.1514C11.4167 22.15 11.4167 22.1486 11.4167 22.1473C11.4167 22.1459 11.4167 22.1446 11.4167 22.1432C11.4167 22.1419 11.4167 22.1405 11.4167 22.1391C11.4167 22.1378 11.4167 22.1364 11.4167 22.1351C11.4167 22.1337 11.4167 22.1324 11.4167 22.131C11.4167 22.1297 11.4167 22.1283 11.4167 22.1269C11.4167 22.1256 11.4167 22.1242 11.4167 22.1229C11.4167 22.1215 11.4167 22.1202 11.4167 22.1188C11.4167 22.1175 11.4167 22.1161 11.4167 22.1147C11.4167 22.1134 11.4167 22.112 11.4167 22.1107C11.4167 22.1093 11.4167 22.108 11.4167 22.1066C11.4167 22.1053 11.4167 22.1039 11.4167 22.1026C11.4167 22.1012 11.4167 22.0999 11.4167 22.0985C11.4167 22.0972 11.4167 22.0958 11.4167 22.0945C11.4167 22.0931 11.4167 22.0917 11.4167 22.0904C11.4167 22.089 11.4167 22.0877 11.4167 22.0863C11.4167 22.085 11.4167 22.0836 11.4167 22.0823C11.4167 22.0809 11.4167 22.0796 11.4167 22.0782C11.4167 22.0769 11.4167 22.0755 11.4167 22.0742C11.4167 22.0728 11.4167 22.0715 11.4167 22.0701C11.4167 22.0688 11.4167 22.0674 11.4167 22.0661C11.4167 22.0647 11.4167 22.0634 11.4167 22.062C11.4167 22.0607 11.4167 22.0594 11.4167 22.058C11.4167 22.0567 11.4167 22.0553 11.4167 22.054C11.4167 22.0526 11.4167 22.0513 11.4167 22.0499C11.4167 22.0486 11.4167 22.0472 11.4167 22.0459C11.4167 22.0445 11.4167 22.0432 11.4167 22.0418C11.4167 22.0405 11.4167 22.0391 11.4167 22.0378C11.4167 22.0365 11.4167 22.0351 11.4167 22.0338C11.4167 22.0324 11.4167 22.0311 11.4167 22.0297C11.4167 22.0284 11.4167 22.027 11.4167 22.0257C11.4167 22.0244 11.4167 22.023 11.4167 22.0217C11.4167 22.0203 11.4167 22.019 11.4167 22.0176C11.4167 22.0163 11.4167 22.0149 11.4167 22.0136C11.4167 22.0123 11.4167 22.0109 11.4167 22.0096C11.4167 22.0082 11.4167 22.0069 11.4167 22.0055C11.4167 22.0042 11.4167 22.0029 11.4167 22.0015C11.4167 22.0002 11.4167 21.9988 11.4167 21.9975C11.4167 21.9962 11.4167 21.9948 11.4167 21.9935C11.4167 21.9921 11.4167 21.9908 11.4167 21.9895C11.4167 21.9881 11.4167 21.9868 11.4167 21.9854C11.4167 21.9841 11.4167 21.9828 11.4167 21.9814C11.4167 21.9801 11.4167 21.9787 11.4167 21.9774C11.4167 21.9761 11.4167 21.9747 11.4167 21.9734C11.4167 21.972 11.4167 21.9707 11.4167 21.9694C11.4167 21.968 11.4167 21.9667 11.4167 21.9654C11.4167 21.964 11.4167 21.9627 11.4167 21.9613C11.4167 21.96 11.4167 21.9587 11.4167 21.9573C11.4167 21.956 11.4167 21.9547 11.4167 21.9533C11.4167 21.952 11.4167 21.9507 11.4167 21.9493C11.4167 21.948 11.4167 21.9466 11.4167 21.9453C11.4167 21.944 11.4167 21.9426 11.4167 21.9413C11.4167 21.94 11.4167 21.9386 11.4167 21.9373C11.4167 21.936 11.4167 21.9346 11.4167 21.9333C11.4167 21.932 11.4167 21.9306 11.4167 21.9293C11.4167 21.928 11.4167 21.9266 11.4167 21.9253C11.4167 21.924 11.4167 21.9226 11.4167 21.9213C11.4167 21.92 11.4167 21.9186 11.4167 21.9173C11.4167 21.916 11.4167 21.9146 11.4167 21.9133C11.4167 21.912 11.4167 21.9106 11.4167 21.9093C11.4167 21.908 11.4167 21.9067 11.4167 21.9053C11.4167 21.904 11.4167 21.9027 11.4167 21.9013C11.4167 21.9 11.4167 21.8987 11.4167 21.8973C11.4167 21.896 11.4167 21.8947 11.4167 21.8934C11.4167 21.892 11.4167 21.8907 11.4167 21.8894C11.4167 21.888 11.4167 21.8867 11.4167 21.8854C11.4167 21.8841 11.4167 21.8827 11.4167 21.8814C11.4167 21.8801 11.4167 21.8787 11.4167 21.8774C11.4167 21.8761 11.4167 21.8748 11.4167 21.8734C11.4167 21.8721 11.4167 21.8708 11.4167 21.8695C11.4167 21.8681 11.4167 21.8668 11.4167 21.8655C11.4167 21.8642 11.4167 21.8628 11.4167 21.8615C11.4167 21.8602 11.4167 21.8589 11.4167 21.8575C11.4167 21.8562 11.4167 21.8549 11.4167 21.8536C11.4167 21.8522 11.4167 21.8509 11.4167 21.8496C11.4167 21.8483 11.4167 21.8469 11.4167 21.8456C11.4167 21.8443 11.4167 21.843 11.4167 21.8416C11.4167 21.8403 11.4167 21.839 11.4167 21.8377C11.4167 21.8363 11.4167 21.835 11.4167 21.8337C11.4167 21.8324 11.4167 21.8311 11.4167 21.8297C11.4167 21.8284 11.4167 21.8271 11.4167 21.8258C11.4167 21.8245 11.4167 21.8231 11.4167 21.8218C11.4167 21.8205 11.4167 21.8192 11.4167 21.8178C11.4167 21.8165 11.4167 21.8152 11.4167 21.8139C11.4167 21.8126 11.4167 21.8112 11.4167 21.8099C11.4167 21.8086 11.4167 21.8073 11.4167 21.806C11.4167 21.8047 11.4167 21.8033 11.4167 21.802C11.4167 21.8007 11.4167 21.7994 11.4167 21.7981C11.4167 21.7967 11.4167 21.7954 11.4167 21.7941C11.4167 21.7928 11.4167 21.7915 11.4167 21.7902C11.4167 21.7888 11.4167 21.7875 11.4167 21.7862C11.4167 21.7849 11.4167 21.7836 11.4167 21.7823C11.4167 21.7809 11.4167 21.7796 11.4167 21.7783C11.4167 21.777 11.4167 21.7757 11.4167 21.7744C11.4167 21.7731 11.4167 21.7717 11.4167 21.7704C11.4167 21.7691 11.4167 21.7678 11.4167 21.7665C11.4167 21.7652 11.4167 21.7639 11.4167 21.7625C11.4167 21.7612 11.4167 21.7599 11.4167 21.7586C11.4167 21.7573 11.4167 21.756 11.4167 21.7547C11.4167 21.7534 11.4167 21.752 11.4167 21.7507C11.4167 21.7494 11.4167 21.7481 11.4167 21.7468C11.4167 21.7455 11.4167 21.7442 11.4167 21.7429C11.4167 21.7415 11.4167 21.7402 11.4167 21.7389C11.4167 21.7376 11.4167 21.7363 11.4167 21.735C11.4167 21.7337 11.4167 21.7324 11.4167 21.7311C11.4167 21.7298 11.4167 21.7284 11.4167 21.7271C11.4167 21.7258 11.4167 21.7245 11.4167 21.7232C11.4167 21.7219 11.4167 21.7206 11.4167 21.7193C11.4167 21.718 11.4167 21.7167 11.4167 21.7154C11.4167 21.7141 11.4167 21.7127 11.4167 21.7114C11.4167 21.7101 11.4167 21.7088 11.4167 21.7075C11.4167 21.7062 11.4167 21.7049 11.4167 21.7036C11.4167 21.7023 11.4167 21.701 11.4167 21.6997C11.4167 21.6984 11.4167 21.6971 11.4167 21.6958C11.4167 21.6945 11.4167 21.6932 11.4167 21.6918C11.4167 21.6905 11.4167 21.6892 11.4167 21.6879C11.4167 21.6866 11.4167 21.6853 11.4167 21.684C11.4167 21.6827 11.4167 21.6814 11.4167 21.6801C11.4167 21.6788 11.4167 21.6775 11.4167 21.6762C11.4167 21.6749 11.4167 21.6736 11.4167 21.6723C11.4167 21.671 11.4167 21.6697 11.4167 21.6684C11.4167 21.6671 11.4167 21.6658 11.4167 21.6645C11.4167 21.6632 11.4167 21.6619 11.4167 21.6606C11.4167 21.6593 11.4167 21.658 11.4167 21.6567C11.4167 21.6554 11.4167 21.6541 11.4167 21.6528C11.4167 21.6515 11.4167 21.6502 11.4167 21.6489C11.4167 21.6476 11.4167 21.6463 11.4167 21.645C11.4167 21.6437 11.4167 21.6424 11.4167 21.6411C11.4167 21.6398 11.4167 21.6385 11.4167 21.6372C11.4167 21.6359 11.4167 21.6346 11.4167 21.6333C11.4167 21.632 11.4167 21.6307 11.4167 21.6294C11.4167 21.6281 11.4167 21.6268 11.4167 21.6255C11.4167 21.6242 11.4167 21.6229 11.4167 21.6216C11.4167 21.6203 11.4167 21.619 11.4167 21.6177C11.4167 21.6165 11.4167 21.6152 11.4167 21.6139C11.4167 21.6126 11.4167 21.6113 11.4167 21.61C11.4167 21.6087 11.4167 21.6074 11.4167 21.6061C11.4167 21.6048 11.4167 21.6035 11.4167 21.6022C11.4167 21.6009 11.4167 21.5996 11.4167 21.5983C11.4167 21.597 11.4167 21.5958 11.4167 21.5945C11.4167 21.5932 11.4167 21.5919 11.4167 21.5906C11.4167 21.5893 11.4167 21.588 11.4167 21.5867C11.4167 21.5854 11.4167 21.5841 11.4167 21.5828C11.4167 21.5815 11.4167 21.5803 11.4167 21.579C11.4167 21.5777 11.4167 21.5764 11.4167 21.5751C11.4167 21.5738 11.4167 21.5725 11.4167 21.5712C11.4167 21.5699 11.4167 21.5686 11.4167 21.5674C11.4167 21.5661 11.4167 21.5648 11.4167 21.5635C11.4167 21.5622 11.4167 21.5609 11.4167 21.5596C11.4167 21.5583 11.4167 21.5571 11.4167 21.5558C11.4167 21.5545 11.4167 21.5532 11.4167 21.5519C11.4167 21.5506 11.4167 21.5493 11.4167 21.548C11.4167 21.5468 11.4167 21.5455 11.4167 21.5442C11.4167 21.5429 11.4167 21.5416 11.4167 21.5403C11.4167 21.539 11.4167 21.5378 11.4167 21.5365C11.4167 21.5352 11.4167 21.5339 11.4167 21.5326C11.4167 21.5313 11.4167 21.5301 11.4167 21.5288C11.4167 21.5275 11.4167 21.5262 11.4167 21.5249C11.4167 21.5236 11.4167 21.5224 11.4167 21.5211C11.4167 21.5198 11.4167 21.5185 11.4167 21.5172C11.4167 21.5159 11.4167 21.5147 11.4167 21.5134C11.4167 21.5121 11.4167 21.5108 11.4167 21.5095C11.4167 21.5083 11.4167 21.507 11.4167 21.5057C11.4167 21.5044 11.4167 21.5031 11.4167 21.5019C11.4167 21.5006 11.4167 21.4993 11.4167 21.498C11.4167 21.4967 11.4167 21.4955 11.4167 21.4942C11.4167 21.4929 11.4167 21.4916 11.4167 21.4903C11.4167 21.4891 11.4167 21.4878 11.4167 21.4865C11.4167 21.4852 11.4167 21.4839 11.4167 21.4827C11.4167 21.4814 11.4167 21.4801 11.4167 21.4788C11.4167 21.4776 11.4167 21.4763 11.4167 21.475C11.4167 21.4737 11.4167 21.4725 11.4167 21.4712C11.4167 21.4699 11.4167 21.4686 11.4167 21.4674C11.4167 21.4661 11.4167 21.4648 11.4167 21.4635C11.4167 21.4623 11.4167 21.461 11.4167 21.4597H9.91672C9.91672 21.461 9.91672 21.4623 9.91672 21.4635C9.91672 21.4648 9.91672 21.4661 9.91672 21.4674C9.91672 21.4686 9.91672 21.4699 9.91672 21.4712C9.91672 21.4725 9.91672 21.4737 9.91672 21.475C9.91672 21.4763 9.91672 21.4776 9.91672 21.4788C9.91672 21.4801 9.91672 21.4814 9.91672 21.4827C9.91672 21.4839 9.91672 21.4852 9.91672 21.4865C9.91672 21.4878 9.91672 21.4891 9.91672 21.4903C9.91672 21.4916 9.91672 21.4929 9.91672 21.4942C9.91672 21.4955 9.91672 21.4967 9.91672 21.498C9.91672 21.4993 9.91672 21.5006 9.91672 21.5019C9.91672 21.5031 9.91672 21.5044 9.91672 21.5057C9.91672 21.507 9.91672 21.5083 9.91672 21.5095C9.91672 21.5108 9.91672 21.5121 9.91672 21.5134C9.91672 21.5147 9.91672 21.5159 9.91672 21.5172C9.91672 21.5185 9.91672 21.5198 9.91672 21.5211C9.91672 21.5224 9.91672 21.5236 9.91672 21.5249C9.91672 21.5262 9.91672 21.5275 9.91672 21.5288C9.91672 21.5301 9.91672 21.5313 9.91672 21.5326C9.91672 21.5339 9.91672 21.5352 9.91672 21.5365C9.91672 21.5378 9.91672 21.539 9.91672 21.5403C9.91672 21.5416 9.91672 21.5429 9.91672 21.5442C9.91672 21.5455 9.91672 21.5468 9.91672 21.548C9.91672 21.5493 9.91672 21.5506 9.91672 21.5519C9.91672 21.5532 9.91672 21.5545 9.91672 21.5558C9.91672 21.5571 9.91672 21.5583 9.91672 21.5596C9.91672 21.5609 9.91672 21.5622 9.91672 21.5635C9.91672 21.5648 9.91672 21.5661 9.91672 21.5674C9.91672 21.5686 9.91672 21.5699 9.91672 21.5712C9.91672 21.5725 9.91672 21.5738 9.91672 21.5751C9.91672 21.5764 9.91672 21.5777 9.91672 21.579C9.91672 21.5803 9.91672 21.5815 9.91672 21.5828C9.91672 21.5841 9.91672 21.5854 9.91672 21.5867C9.91672 21.588 9.91672 21.5893 9.91672 21.5906C9.91672 21.5919 9.91672 21.5932 9.91672 21.5945C9.91672 21.5958 9.91672 21.597 9.91672 21.5983C9.91672 21.5996 9.91672 21.6009 9.91672 21.6022C9.91672 21.6035 9.91672 21.6048 9.91672 21.6061C9.91672 21.6074 9.91672 21.6087 9.91672 21.61C9.91672 21.6113 9.91672 21.6126 9.91672 21.6139C9.91672 21.6152 9.91672 21.6165 9.91672 21.6177C9.91672 21.619 9.91672 21.6203 9.91672 21.6216C9.91672 21.6229 9.91672 21.6242 9.91672 21.6255C9.91672 21.6268 9.91672 21.6281 9.91672 21.6294C9.91672 21.6307 9.91672 21.632 9.91672 21.6333C9.91672 21.6346 9.91672 21.6359 9.91672 21.6372C9.91672 21.6385 9.91672 21.6398 9.91672 21.6411C9.91672 21.6424 9.91672 21.6437 9.91672 21.645C9.91672 21.6463 9.91672 21.6476 9.91672 21.6489C9.91672 21.6502 9.91672 21.6515 9.91672 21.6528C9.91672 21.6541 9.91672 21.6554 9.91672 21.6567C9.91672 21.658 9.91672 21.6593 9.91672 21.6606C9.91672 21.6619 9.91672 21.6632 9.91672 21.6645C9.91672 21.6658 9.91672 21.6671 9.91672 21.6684C9.91672 21.6697 9.91672 21.671 9.91672 21.6723C9.91672 21.6736 9.91672 21.6749 9.91672 21.6762C9.91672 21.6775 9.91672 21.6788 9.91672 21.6801C9.91672 21.6814 9.91672 21.6827 9.91672 21.684C9.91672 21.6853 9.91672 21.6866 9.91672 21.6879C9.91672 21.6892 9.91672 21.6905 9.91672 21.6918C9.91672 21.6932 9.91672 21.6945 9.91672 21.6958C9.91672 21.6971 9.91672 21.6984 9.91672 21.6997C9.91672 21.701 9.91672 21.7023 9.91672 21.7036C9.91672 21.7049 9.91672 21.7062 9.91672 21.7075C9.91672 21.7088 9.91672 21.7101 9.91672 21.7114C9.91672 21.7127 9.91672 21.7141 9.91672 21.7154C9.91672 21.7167 9.91672 21.718 9.91672 21.7193C9.91672 21.7206 9.91672 21.7219 9.91672 21.7232C9.91672 21.7245 9.91672 21.7258 9.91672 21.7271C9.91672 21.7284 9.91672 21.7298 9.91672 21.7311C9.91672 21.7324 9.91672 21.7337 9.91672 21.735C9.91672 21.7363 9.91672 21.7376 9.91672 21.7389C9.91672 21.7402 9.91672 21.7415 9.91672 21.7429C9.91672 21.7442 9.91672 21.7455 9.91672 21.7468C9.91672 21.7481 9.91672 21.7494 9.91672 21.7507C9.91672 21.752 9.91672 21.7534 9.91672 21.7547C9.91672 21.756 9.91672 21.7573 9.91672 21.7586C9.91672 21.7599 9.91672 21.7612 9.91672 21.7625C9.91672 21.7639 9.91672 21.7652 9.91672 21.7665C9.91672 21.7678 9.91672 21.7691 9.91672 21.7704C9.91672 21.7717 9.91672 21.7731 9.91672 21.7744C9.91672 21.7757 9.91672 21.777 9.91672 21.7783C9.91672 21.7796 9.91672 21.7809 9.91672 21.7823C9.91672 21.7836 9.91672 21.7849 9.91672 21.7862C9.91672 21.7875 9.91672 21.7888 9.91672 21.7902C9.91672 21.7915 9.91672 21.7928 9.91672 21.7941C9.91672 21.7954 9.91672 21.7967 9.91672 21.7981C9.91672 21.7994 9.91672 21.8007 9.91672 21.802C9.91672 21.8033 9.91672 21.8047 9.91672 21.806C9.91672 21.8073 9.91672 21.8086 9.91672 21.8099C9.91672 21.8112 9.91672 21.8126 9.91672 21.8139C9.91672 21.8152 9.91672 21.8165 9.91672 21.8178C9.91672 21.8192 9.91672 21.8205 9.91672 21.8218C9.91672 21.8231 9.91672 21.8245 9.91672 21.8258C9.91672 21.8271 9.91672 21.8284 9.91672 21.8297C9.91672 21.8311 9.91672 21.8324 9.91672 21.8337C9.91672 21.835 9.91672 21.8363 9.91672 21.8377C9.91672 21.839 9.91672 21.8403 9.91672 21.8416C9.91672 21.843 9.91672 21.8443 9.91672 21.8456C9.91672 21.8469 9.91672 21.8483 9.91672 21.8496C9.91672 21.8509 9.91672 21.8522 9.91672 21.8536C9.91672 21.8549 9.91672 21.8562 9.91672 21.8575C9.91672 21.8589 9.91672 21.8602 9.91672 21.8615C9.91672 21.8628 9.91672 21.8642 9.91672 21.8655C9.91672 21.8668 9.91672 21.8681 9.91672 21.8695C9.91672 21.8708 9.91672 21.8721 9.91672 21.8734C9.91672 21.8748 9.91672 21.8761 9.91672 21.8774C9.91672 21.8787 9.91672 21.8801 9.91672 21.8814C9.91672 21.8827 9.91672 21.8841 9.91672 21.8854C9.91672 21.8867 9.91672 21.888 9.91672 21.8894C9.91672 21.8907 9.91672 21.892 9.91672 21.8934C9.91672 21.8947 9.91672 21.896 9.91672 21.8973C9.91672 21.8987 9.91672 21.9 9.91672 21.9013C9.91672 21.9027 9.91672 21.904 9.91672 21.9053C9.91672 21.9067 9.91672 21.908 9.91672 21.9093C9.91672 21.9106 9.91672 21.912 9.91672 21.9133C9.91672 21.9146 9.91672 21.916 9.91672 21.9173C9.91672 21.9186 9.91672 21.92 9.91672 21.9213C9.91672 21.9226 9.91672 21.924 9.91672 21.9253C9.91672 21.9266 9.91672 21.928 9.91672 21.9293C9.91672 21.9306 9.91672 21.932 9.91672 21.9333C9.91672 21.9346 9.91672 21.936 9.91672 21.9373C9.91672 21.9386 9.91672 21.94 9.91672 21.9413C9.91672 21.9426 9.91672 21.944 9.91672 21.9453C9.91672 21.9466 9.91672 21.948 9.91672 21.9493C9.91672 21.9507 9.91672 21.952 9.91672 21.9533C9.91672 21.9547 9.91672 21.956 9.91672 21.9573C9.91672 21.9587 9.91672 21.96 9.91672 21.9613C9.91672 21.9627 9.91672 21.964 9.91672 21.9654C9.91672 21.9667 9.91672 21.968 9.91672 21.9694C9.91672 21.9707 9.91672 21.972 9.91672 21.9734C9.91672 21.9747 9.91672 21.9761 9.91672 21.9774C9.91672 21.9787 9.91672 21.9801 9.91672 21.9814C9.91672 21.9828 9.91672 21.9841 9.91672 21.9854C9.91672 21.9868 9.91672 21.9881 9.91672 21.9895C9.91672 21.9908 9.91672 21.9921 9.91672 21.9935C9.91672 21.9948 9.91672 21.9962 9.91672 21.9975C9.91672 21.9988 9.91672 22.0002 9.91672 22.0015C9.91672 22.0029 9.91672 22.0042 9.91672 22.0055C9.91672 22.0069 9.91672 22.0082 9.91672 22.0096C9.91672 22.0109 9.91672 22.0123 9.91672 22.0136C9.91672 22.0149 9.91672 22.0163 9.91672 22.0176C9.91672 22.019 9.91672 22.0203 9.91672 22.0217C9.91672 22.023 9.91672 22.0244 9.91672 22.0257C9.91672 22.027 9.91672 22.0284 9.91672 22.0297C9.91672 22.0311 9.91672 22.0324 9.91672 22.0338C9.91672 22.0351 9.91672 22.0365 9.91672 22.0378C9.91672 22.0391 9.91672 22.0405 9.91672 22.0418C9.91672 22.0432 9.91672 22.0445 9.91672 22.0459C9.91672 22.0472 9.91672 22.0486 9.91672 22.0499C9.91672 22.0513 9.91672 22.0526 9.91672 22.054C9.91672 22.0553 9.91672 22.0567 9.91672 22.058C9.91672 22.0594 9.91672 22.0607 9.91672 22.062C9.91672 22.0634 9.91672 22.0647 9.91672 22.0661C9.91672 22.0674 9.91672 22.0688 9.91672 22.0701C9.91672 22.0715 9.91672 22.0728 9.91672 22.0742C9.91672 22.0755 9.91672 22.0769 9.91672 22.0782C9.91672 22.0796 9.91672 22.0809 9.91672 22.0823C9.91672 22.0836 9.91672 22.085 9.91672 22.0863C9.91672 22.0877 9.91672 22.089 9.91672 22.0904C9.91672 22.0917 9.91672 22.0931 9.91672 22.0945C9.91672 22.0958 9.91672 22.0972 9.91672 22.0985C9.91672 22.0999 9.91672 22.1012 9.91672 22.1026C9.91672 22.1039 9.91672 22.1053 9.91672 22.1066C9.91672 22.108 9.91672 22.1093 9.91672 22.1107C9.91672 22.112 9.91672 22.1134 9.91672 22.1147C9.91672 22.1161 9.91672 22.1175 9.91672 22.1188C9.91672 22.1202 9.91672 22.1215 9.91672 22.1229C9.91672 22.1242 9.91672 22.1256 9.91672 22.1269C9.91672 22.1283 9.91672 22.1297 9.91672 22.131C9.91672 22.1324 9.91672 22.1337 9.91672 22.1351C9.91672 22.1364 9.91672 22.1378 9.91672 22.1391C9.91672 22.1405 9.91672 22.1419 9.91672 22.1432C9.91672 22.1446 9.91672 22.1459 9.91672 22.1473C9.91672 22.1486 9.91672 22.15 9.91672 22.1514C9.91672 22.1527 9.91672 22.1541 9.91672 22.1554C9.91672 22.1568 9.91672 22.1582 9.91672 22.1595C9.91672 22.1609 9.91672 22.1622 9.91672 22.1636C9.91672 22.165 9.91672 22.1663 9.91672 22.1677C9.91672 22.169 9.91672 22.1704 9.91672 22.1718C9.91672 22.1731 9.91672 22.1745 9.91672 22.1758C9.91672 22.1772 9.91672 22.1786 9.91672 22.1799C9.91672 22.1813 9.91672 22.1826 9.91672 22.184C9.91672 22.1854 9.91672 22.1867 9.91672 22.1881C9.91672 22.1894 9.91672 22.1908 9.91672 22.1922C9.91672 22.1935 9.91672 22.1949 9.91672 22.1963C9.91672 22.1976 9.91672 22.199 9.91672 22.2004C9.91672 22.2017 9.91672 22.2031 9.91672 22.2044C9.91672 22.2058 9.91672 22.2072 9.91672 22.2085C9.91672 22.2099 9.91672 22.2113 9.91672 22.2126C9.91672 22.214 9.91672 22.2154 9.91672 22.2167C9.91672 22.2181 9.91672 22.2195 9.91672 22.2208C9.91672 22.2222 9.91672 22.2235 9.91672 22.2249C9.91672 22.2263 9.91672 22.2276 9.91672 22.229C9.91672 22.2304 9.91672 22.2317 9.91672 22.2331C9.91672 22.2345 9.91672 22.2358 9.91672 22.2372C9.91672 22.2386 9.91672 22.2399 9.91672 22.2413C9.91672 22.2427 9.91672 22.2441 9.91672 22.2454C9.91672 22.2468 9.91672 22.2482 9.91672 22.2495C9.91672 22.2509 9.91672 22.2523 9.91672 22.2536C9.91672 22.255 9.91672 22.2564 9.91672 22.2577C9.91672 22.2591 9.91672 22.2605 9.91672 22.2618C9.91672 22.2632 9.91672 22.2646 9.91672 22.266C9.91672 22.2673 9.91672 22.2687 9.91672 22.2701C9.91672 22.2714 9.91672 22.2728 9.91672 22.2742C9.91672 22.2756 9.91672 22.2769 9.91672 22.2783C9.91672 22.2797 9.91672 22.281 9.91672 22.2824C9.91672 22.2838 9.91672 22.2852 9.91672 22.2865C9.91672 22.2879 9.91672 22.2893 9.91672 22.2906C9.91672 22.292 9.91672 22.2934 9.91672 22.2948C9.91672 22.2961 9.91672 22.2975 9.91672 22.2989C9.91672 22.3003 9.91672 22.3016 9.91672 22.303C9.91672 22.3044 9.91672 22.3058 9.91672 22.3071C9.91672 22.3085 9.91672 22.3099 9.91672 22.3113C9.91672 22.3126 9.91672 22.314 9.91672 22.3154C9.91672 22.3168 9.91672 22.3181 9.91672 22.3195C9.91672 22.3209 9.91672 22.3223 9.91672 22.3236C9.91672 22.325 9.91672 22.3264 9.91672 22.3278C9.91672 22.3291 9.91672 22.3305 9.91672 22.3319C9.91672 22.3333 9.91672 22.3346 9.91672 22.336C9.91672 22.3374 9.91672 22.3388 9.91672 22.3402C9.91672 22.3415 9.91672 22.3429 9.91672 22.3443C9.91672 22.3457 9.91672 22.347 9.91672 22.3484C9.91672 22.3498 9.91672 22.3512 9.91672 22.3526C9.91672 22.3539 9.91672 22.3553 9.91672 22.3567C9.91672 22.3581 9.91672 22.3595 9.91672 22.3608C9.91672 22.3622 9.91672 22.3636 9.91672 22.365C9.91672 22.3664 9.91672 22.3677 9.91672 22.3691C9.91672 22.3705 9.91672 22.3719 9.91672 22.3733C9.91672 22.3746 9.91672 22.376 9.91672 22.3774C9.91672 22.3788 9.91672 22.3802 9.91672 22.3815C9.91672 22.3829 9.91672 22.3843 9.91672 22.3857C9.91672 22.3871 9.91672 22.3885 9.91672 22.3898C9.91672 22.3912 9.91672 22.3926 9.91672 22.394C9.91672 22.3954 9.91672 22.3968 9.91672 22.3981C9.91672 22.3995 9.91672 22.4009 9.91672 22.4023C9.91672 22.4037 9.91672 22.4051 9.91672 22.4064C9.91672 22.4078 9.91672 22.4092 9.91672 22.4106C9.91672 22.412 9.91672 22.4134 9.91672 22.4148C9.91672 22.4161 9.91672 22.4175 9.91672 22.4189C9.91672 22.4203 9.91672 22.4217 9.91672 22.4231C9.91672 22.4245 9.91672 22.4258 9.91672 22.4272C9.91672 22.4286 9.91672 22.43 9.91672 22.4314C9.91672 22.4328 9.91672 22.4342 9.91672 22.4355C9.91672 22.4369 9.91672 22.4383 9.91672 22.4397C9.91672 22.4411 9.91672 22.4425 9.91672 22.4439C9.91672 22.4453 9.91672 22.4466 9.91672 22.448C9.91672 22.4494 9.91672 22.4508 9.91672 22.4522C9.91672 22.4536 9.91672 22.455 9.91672 22.4564C9.91672 22.4578 9.91672 22.4591 9.91672 22.4605C9.91672 22.4619 9.91672 22.4633 9.91672 22.4647C9.91672 22.4661 9.91672 22.4675 9.91672 22.4689C9.91672 22.4703 9.91672 22.4717 9.91672 22.4731C9.91672 22.4744 9.91672 22.4758 9.91672 22.4772C9.91672 22.4786 9.91672 22.48 9.91672 22.4814C9.91672 22.4828 9.91672 22.4842 9.91672 22.4856C9.91672 22.487 9.91672 22.4884 9.91672 22.4898C9.91672 22.4911 9.91672 22.4925 9.91672 22.4939C9.91672 22.4953 9.91672 22.4967 9.91672 22.4981C9.91672 22.4995 9.91672 22.5009 9.91672 22.5023C9.91672 22.5037 9.91672 22.5051 9.91672 22.5065C9.91672 22.5079 9.91672 22.5093 9.91672 22.5107C9.91672 22.512 9.91672 22.5134 9.91672 22.5148C9.91672 22.5162 9.91672 22.5176 9.91672 22.519C9.91672 22.5204 9.91672 22.5218 9.91672 22.5232C9.91672 22.5246 9.91672 22.526 9.91672 22.5274C9.91672 22.5288 9.91672 22.5302 9.91672 22.5316C9.91672 22.533 9.91672 22.5344 9.91672 22.5358C9.91672 22.5372 9.91672 22.5386 9.91672 22.54C9.91672 22.5414 9.91672 22.5428 9.91672 22.5442C9.91672 22.5456 9.91672 22.547 9.91672 22.5484C9.91672 22.5497 9.91672 22.5511 9.91672 22.5525C9.91672 22.5539 9.91672 22.5553 9.91672 22.5567C9.91672 22.5581 9.91672 22.5595 9.91672 22.5609C9.91672 22.5623 9.91672 22.5637 9.91672 22.5651C9.91672 22.5665 9.91672 22.5679 9.91672 22.5693C9.91672 22.5707 9.91672 22.5721 9.91672 22.5735C9.91672 22.5749 9.91672 22.5763 9.91672 22.5777C9.91672 22.5791 9.91672 22.5805 9.91672 22.5819C9.91672 22.5833 9.91672 22.5847 9.91672 22.5861C9.91672 22.5875 9.91672 22.5889 9.91672 22.5903C9.91672 22.5918 9.91672 22.5932 9.91672 22.5946C9.91672 22.596 9.91672 22.5974 9.91672 22.5988C9.91672 22.6002 9.91672 22.6016 9.91672 22.603C9.91672 22.6044 9.91672 22.6058 9.91672 22.6072C9.91672 22.6086 9.91672 22.61 9.91672 22.6114C9.91672 22.6128 9.91672 22.6142 9.91672 22.6156C9.91672 22.617 9.91672 22.6184 9.91672 22.6198C9.91672 22.6212 9.91672 22.6226 9.91672 22.624C9.91672 22.6254 9.91672 22.6268 9.91672 22.6282C9.91672 22.6297 9.91672 22.6311 9.91672 22.6325C9.91672 22.6339 9.91672 22.6353 9.91672 22.6367C9.91672 22.6381 9.91672 22.6395 9.91672 22.6409C9.91672 22.6423 9.91672 22.6437 9.91672 22.6451C9.91672 22.6465 9.91672 22.6479 9.91672 22.6493C9.91672 22.6508 9.91672 22.6522 9.91672 22.6536C9.91672 22.655 9.91672 22.6564 9.91672 22.6578C9.91672 22.6592 9.91672 22.6606 9.91672 22.662C9.91672 22.6634 9.91672 22.6648 9.91672 22.6662C9.91672 22.6676 9.91672 22.6691 9.91672 22.6705C9.91672 22.6719 9.91672 22.6733 9.91672 22.6747C9.91672 22.6761 9.91672 22.6775 9.91672 22.6789C9.91672 22.6803 9.91672 22.6817 9.91672 22.6832C9.91672 22.6846 9.91672 22.686 9.91672 22.6874C9.91672 22.6888 9.91672 22.6902 9.91672 22.6916C9.91672 22.693 9.91672 22.6944 9.91672 22.6959C9.91672 22.6973 9.91672 22.6987 9.91672 22.7001C9.91672 22.7015 9.91672 22.7029 9.91672 22.7043C9.91672 22.7057 9.91672 22.7071 9.91672 22.7086C9.91672 22.71 9.91672 22.7114 9.91672 22.7128C9.91672 22.7142 9.91672 22.7156 9.91672 22.717C9.91672 22.7185 9.91672 22.7199 9.91672 22.7213C9.91672 22.7227 9.91672 22.7241 9.91672 22.7255C9.91672 22.7269 9.91672 22.7284 9.91672 22.7298C9.91672 22.7312 9.91672 22.7326 9.91672 22.734C9.91672 22.7354 9.91672 22.7368 9.91672 22.7383C9.91672 22.7397 9.91672 22.7411 9.91672 22.7425C9.91672 22.7439 9.91672 22.7453 9.91672 22.7467C9.91672 22.7482 9.91672 22.7496 9.91672 22.751C9.91672 22.7524 9.91672 22.7538 9.91672 22.7552C9.91672 22.7567 9.91672 22.7581 9.91672 22.7595C9.91672 22.7609 9.91672 22.7623 9.91672 22.7637C9.91672 22.7652 9.91672 22.7666 9.91672 22.768C9.91672 22.7694 9.91672 22.7708 9.91672 22.7723C9.91672 22.7737 9.91672 22.7751 9.91672 22.7765C9.91672 22.7779 9.91672 22.7793 9.91672 22.7808C9.91672 22.7822 9.91672 22.7836 9.91672 22.785C9.91672 22.7864 9.91672 22.7879 9.91672 22.7893C9.91672 22.7907 9.91672 22.7921 9.91672 22.7935C9.91672 22.795 9.91672 22.7964 9.91672 22.7978C9.91672 22.7992 9.91672 22.8006 9.91672 22.8021C9.91672 22.8035 9.91672 22.8049 9.91672 22.8063C9.91672 22.8077 9.91672 22.8092 9.91672 22.8106C9.91672 22.812 9.91672 22.8134 9.91672 22.8149C9.91672 22.8163 9.91672 22.8177 9.91672 22.8191C9.91672 22.8205 9.91672 22.822 9.91672 22.8234C9.91672 22.8248 9.91672 22.8262 9.91672 22.8277C9.91672 22.8291 9.91672 22.8305 9.91672 22.8319C9.91672 22.8334 9.91672 22.8348 9.91672 22.8362C9.91672 22.8376 9.91672 22.839 9.91672 22.8405C9.91672 22.8419 9.91672 22.8433 9.91672 22.8447C9.91672 22.8462 9.91672 22.8476 9.91672 22.849C9.91672 22.8504 9.91672 22.8519 9.91672 22.8533C9.91672 22.8547 9.91672 22.8561 9.91672 22.8576C9.91672 22.859 9.91672 22.8604 9.91672 22.8618C9.91672 22.8633 9.91672 22.8647 9.91672 22.8661C9.91672 22.8675 9.91672 22.869 9.91672 22.8704C9.91672 22.8718 9.91672 22.8733 9.91672 22.8747C9.91672 22.8761 9.91672 22.8775 9.91672 22.879C9.91672 22.8804 9.91672 22.8818 9.91672 22.8832C9.91672 22.8847 9.91672 22.8861 9.91672 22.8875C9.91672 22.889 9.91672 22.8904 9.91672 22.8918C9.91672 22.8932 9.91672 22.8947 9.91672 22.8961C9.91672 22.8975 9.91672 22.899 9.91672 22.9004C9.91672 22.9018 9.91672 22.9032 9.91672 22.9047C9.91672 22.9061 9.91672 22.9075 9.91672 22.909C9.91672 22.9104 9.91672 22.9118 9.91672 22.9132C9.91672 22.9147 9.91672 22.9161 9.91672 22.9175C9.91672 22.919 9.91672 22.9204 9.91672 22.9218C9.91672 22.9233 9.91672 22.9247 9.91672 22.9261C9.91672 22.9276 9.91672 22.929 9.91672 22.9304C9.91672 22.9319 9.91672 22.9333 9.91672 22.9347C9.91672 22.9361 9.91672 22.9376 9.91672 22.939C9.91672 22.9404 9.91672 22.9419 9.91672 22.9433C9.91672 22.9447 9.91672 22.9462 9.91672 22.9476C9.91672 22.949 9.91672 22.9505 9.91672 22.9519C9.91672 22.9533 9.91672 22.9548 9.91672 22.9562C9.91672 22.9576 9.91672 22.9591 9.91672 22.9605C9.91672 22.9619 9.91672 22.9634 9.91672 22.9648C9.91672 22.9662 9.91672 22.9677 9.91672 22.9691C9.91672 22.9705 9.91672 22.972 9.91672 22.9734C9.91672 22.9749 9.91672 22.9763 9.91672 22.9777C9.91672 22.9792 9.91672 22.9806 9.91672 22.982C9.91672 22.9835 9.91672 22.9849 9.91672 22.9863C9.91672 22.9878 9.91672 22.9892 9.91672 22.9906C9.91672 22.9921 9.91672 22.9935 9.91672 22.995C9.91672 22.9964 9.91672 22.9978 9.91672 22.9993C9.91672 23.0007 9.91672 23.0021 9.91672 23.0036C9.91672 23.005 9.91672 23.0065 9.91672 23.0079C9.91672 23.0093 9.91672 23.0108 9.91672 23.0122C9.91672 23.0136 9.91672 23.0151 9.91672 23.0165C9.91672 23.018 9.91672 23.0194 9.91672 23.0208C9.91672 23.0223 9.91672 23.0237 9.91672 23.0252C9.91672 23.0266 9.91672 23.028 9.91672 23.0295C9.91672 23.0309 9.91672 23.0323 9.91672 23.0338C9.91672 23.0352 9.91672 23.0367 9.91672 23.0381C9.91672 23.0395 9.91672 23.041 9.91672 23.0424C9.91672 23.0439 9.91672 23.0453 9.91672 23.0468C9.91672 23.0482 9.91672 23.0496 9.91672 23.0511C9.91672 23.0525 9.91672 23.054 9.91672 23.0554C9.91672 23.0568 9.91672 23.0583 9.91672 23.0597C9.91672 23.0612 9.91672 23.0626 9.91672 23.064C9.91672 23.0655 9.91672 23.0669 9.91672 23.0684C9.91672 23.0698 9.91672 23.0713 9.91672 23.0727C9.91672 23.0741 9.91672 23.0756 9.91672 23.077C9.91672 23.0785 9.91672 23.0799 9.91672 23.0814C9.91672 23.0828 9.91672 23.0843 9.91672 23.0857C9.91672 23.0871 9.91672 23.0886 9.91672 23.09C9.91672 23.0915 9.91672 23.0929 9.91672 23.0944C9.91672 23.0958 9.91672 23.0972 9.91672 23.0987C9.91672 23.1001 9.91672 23.1016 9.91672 23.103C9.91672 23.1045 9.91672 23.1059 9.91672 23.1074C9.91672 23.1088 9.91672 23.1103 9.91672 23.1117C9.91672 23.1131 9.91672 23.1146 9.91672 23.116C9.91672 23.1175 9.91672 23.1189 9.91672 23.1204C9.91672 23.1218 9.91672 23.1233 9.91672 23.1247C9.91672 23.1262 9.91672 23.1276 9.91672 23.1291C9.91672 23.1305 9.91672 23.132 9.91672 23.1334C9.91672 23.1348 9.91672 23.1363 9.91672 23.1377C9.91672 23.1392 9.91672 23.1406 9.91672 23.1421C9.91672 23.1435 9.91672 23.145 9.91672 23.1464C9.91672 23.1479 9.91672 23.1493 9.91672 23.1508C9.91672 23.1522 9.91672 23.1537 9.91672 23.1551C9.91672 23.1566 9.91672 23.158 9.91672 23.1595C9.91672 23.1609 9.91672 23.1624 9.91672 23.1638C9.91672 23.1653 9.91672 23.1667 9.91672 23.1682C9.91672 23.1696 9.91672 23.1711 9.91672 23.1725C9.91672 23.174 9.91672 23.1754 9.91672 23.1769C9.91672 23.1783 9.91672 23.1798 9.91672 23.1812C9.91672 23.1827 9.91672 23.1841 9.91672 23.1856C9.91672 23.187 9.91672 23.1885 9.91672 23.1899C9.91672 23.1914 9.91672 23.1928 9.91672 23.1943C9.91672 23.1957 9.91672 23.1972 9.91672 23.1987C9.91672 23.2001 9.91672 23.2016 9.91672 23.203C9.91672 23.2045 9.91672 23.2059 9.91672 23.2074C9.91672 23.2088 9.91672 23.2103 9.91672 23.2117C9.91672 23.2132 9.91672 23.2146 9.91672 23.2161C9.91672 23.2175 9.91672 23.219 9.91672 23.2204C9.91672 23.2219 9.91672 23.2234 9.91672 23.2248C9.91672 23.2263 9.91672 23.2277 9.91672 23.2292C9.91672 23.2306 9.91672 23.2321 9.91672 23.2335C9.91672 23.235 9.91672 23.2364 9.91672 23.2379C9.91672 23.2394 9.91672 23.2408 9.91672 23.2423C9.91672 23.2437 9.91672 23.2452 9.91672 23.2466C9.91672 23.2481 9.91672 23.2495 9.91672 23.251C9.91672 23.2525 9.91672 23.2539 9.91672 23.2554C9.91672 23.2568 9.91672 23.2583 9.91672 23.2597C9.91672 23.2612 9.91672 23.2627 9.91672 23.2641C9.91672 23.2656 9.91672 23.267 9.91672 23.2685C9.91672 23.2699 9.91672 23.2714 9.91672 23.2729C9.91672 23.2743 9.91672 23.2758 9.91672 23.2772C9.91672 23.2787 9.91672 23.2802 9.91672 23.2816C9.91672 23.2831 9.91672 23.2845 9.91672 23.286C9.91672 23.2874 9.91672 23.2889 9.91672 23.2904C9.91672 23.2918 9.91672 23.2933 9.91672 23.2947C9.91672 23.2962 9.91672 23.2977 9.91672 23.2991C9.91672 23.3006 9.91672 23.302 9.91672 23.3035C9.91672 23.305 9.91672 23.3064 9.91672 23.3079C9.91672 23.3093 9.91672 23.3108 9.91672 23.3123C9.91672 23.3137 9.91672 23.3152 9.91672 23.3166C9.91672 23.3181 9.91672 23.3196 9.91672 23.321C9.91672 23.3225 9.91672 23.3239 9.91672 23.3254C9.91672 23.3269 9.91672 23.3283 9.91672 23.3298C9.91672 23.3313 9.91672 23.3327 9.91672 23.3342C9.91672 23.3356 9.91672 23.3371 9.91672 23.3386C9.91672 23.34 9.91672 23.3415 9.91672 23.343C9.91672 23.3444 9.91672 23.3459 9.91672 23.3473C9.91672 23.3488 9.91672 23.3503 9.91672 23.3517C9.91672 23.3532 9.91672 23.3547 9.91672 23.3561C9.91672 23.3576 9.91672 23.3591 9.91672 23.3605C9.91672 23.362 9.91672 23.3634 9.91672 23.3649C9.91672 23.3664 9.91672 23.3678 9.91672 23.3693C9.91672 23.3708 9.91672 23.3722 9.91672 23.3737C9.91672 23.3752 9.91672 23.3766 9.91672 23.3781C9.91672 23.3796 9.91672 23.381 9.91672 23.3825C9.91672 23.384 9.91672 23.3854 9.91672 23.3869C9.91672 23.3884 9.91672 23.3898 9.91672 23.3913C9.91672 23.3927 9.91672 23.3942 9.91672 23.3957C9.91672 23.3971 9.91672 23.3986 9.91672 23.4001C9.91672 23.4015 9.91672 23.403 9.91672 23.4045C9.91672 23.4059 9.91672 23.4074 9.91672 23.4089C9.91672 23.4104 9.91672 23.4118 9.91672 23.4133C9.91672 23.4148 9.91672 23.4162 9.91672 23.4177C9.91672 23.4192 9.91672 23.4206 9.91672 23.4221C9.91672 23.4236 9.91672 23.425 9.91672 23.4265C9.91672 23.428 9.91672 23.4294 9.91672 23.4309C9.91672 23.4324 9.91672 23.4338 9.91672 23.4353C9.91672 23.4368 9.91672 23.4383 9.91672 23.4397C9.91672 23.4412 9.91672 23.4427 9.91672 23.4441C9.91672 23.4456 9.91672 23.4471 9.91672 23.4485C9.91672 23.45 9.91672 23.4515 9.91672 23.4529C9.91672 23.4544 9.91672 23.4559 9.91672 23.4574C9.91672 23.4588 9.91672 23.4603 9.91672 23.4618C9.91672 23.4632 9.91672 23.4647 9.91672 23.4662C9.91672 23.4677 9.91672 23.4691 9.91672 23.4706C9.91672 23.4721 9.91672 23.4735 9.91672 23.475C9.91672 23.4765 9.91672 23.478 9.91672 23.4794C9.91672 23.4809 9.91672 23.4824 9.91672 23.4838C9.91672 23.4853 9.91672 23.4868 9.91672 23.4883C9.91672 23.4897 9.91672 23.4912 9.91672 23.4927C9.91672 23.4942 9.91672 23.4956 9.91672 23.4971C9.91672 23.4986 9.91672 23.5 9.91672 23.5015C9.91672 23.503 9.91672 23.5045 9.91672 23.5059C9.91672 23.5074 9.91672 23.5089 9.91672 23.5104C9.91672 23.5118 9.91672 23.5133 9.91672 23.5148C9.91672 23.5163 9.91672 23.5177 9.91672 23.5192C9.91672 23.5207 9.91672 23.5222 9.91672 23.5236C9.91672 23.5251 9.91672 23.5266 9.91672 23.5281C9.91672 23.5295 9.91672 23.531 9.91672 23.5325C9.91672 23.534 9.91672 23.5354 9.91672 23.5369C9.91672 23.5384 9.91672 23.5399 9.91672 23.5413C9.91672 23.5428 9.91672 23.5443 9.91672 23.5458C9.91672 23.5472 9.91672 23.5487 9.91672 23.5502C9.91672 23.5517 9.91672 23.5532 9.91672 23.5546C9.91672 23.5561 9.91672 23.5576 9.91672 23.5591C9.91672 23.5605 9.91672 23.562 9.91672 23.5635C9.91672 23.565 9.91672 23.5665 9.91672 23.5679C9.91672 23.5694 9.91672 23.5709 9.91672 23.5724C9.91672 23.5738 9.91672 23.5753 9.91672 23.5768C9.91672 23.5783 9.91672 23.5798 9.91672 23.5812C9.91672 23.5827 9.91672 23.5842 9.91672 23.5857C9.91672 23.5871 9.91672 23.5886 9.91672 23.5901H11.4167ZM13.8667 19.0103H18.1334V17.5103H13.8667V19.0103ZM20.5834 21.4597C20.5834 21.461 20.5834 21.4623 20.5834 21.4635C20.5834 21.4648 20.5834 21.4661 20.5834 21.4674C20.5834 21.4686 20.5834 21.4699 20.5834 21.4712C20.5834 21.4725 20.5834 21.4737 20.5834 21.475C20.5834 21.4763 20.5834 21.4776 20.5834 21.4788C20.5834 21.4801 20.5834 21.4814 20.5834 21.4827C20.5834 21.4839 20.5834 21.4852 20.5834 21.4865C20.5834 21.4878 20.5834 21.4891 20.5834 21.4903C20.5834 21.4916 20.5834 21.4929 20.5834 21.4942C20.5834 21.4955 20.5834 21.4967 20.5834 21.498C20.5834 21.4993 20.5834 21.5006 20.5834 21.5019C20.5834 21.5031 20.5834 21.5044 20.5834 21.5057C20.5834 21.507 20.5834 21.5083 20.5834 21.5095C20.5834 21.5108 20.5834 21.5121 20.5834 21.5134C20.5834 21.5147 20.5834 21.5159 20.5834 21.5172C20.5834 21.5185 20.5834 21.5198 20.5834 21.5211C20.5834 21.5224 20.5834 21.5236 20.5834 21.5249C20.5834 21.5262 20.5834 21.5275 20.5834 21.5288C20.5834 21.5301 20.5834 21.5313 20.5834 21.5326C20.5834 21.5339 20.5834 21.5352 20.5834 21.5365C20.5834 21.5378 20.5834 21.539 20.5834 21.5403C20.5834 21.5416 20.5834 21.5429 20.5834 21.5442C20.5834 21.5455 20.5834 21.5468 20.5834 21.548C20.5834 21.5493 20.5834 21.5506 20.5834 21.5519C20.5834 21.5532 20.5834 21.5545 20.5834 21.5558C20.5834 21.5571 20.5834 21.5583 20.5834 21.5596C20.5834 21.5609 20.5834 21.5622 20.5834 21.5635C20.5834 21.5648 20.5834 21.5661 20.5834 21.5674C20.5834 21.5686 20.5834 21.5699 20.5834 21.5712C20.5834 21.5725 20.5834 21.5738 20.5834 21.5751C20.5834 21.5764 20.5834 21.5777 20.5834 21.579C20.5834 21.5803 20.5834 21.5815 20.5834 21.5828C20.5834 21.5841 20.5834 21.5854 20.5834 21.5867C20.5834 21.588 20.5834 21.5893 20.5834 21.5906C20.5834 21.5919 20.5834 21.5932 20.5834 21.5945C20.5834 21.5958 20.5834 21.597 20.5834 21.5983C20.5834 21.5996 20.5834 21.6009 20.5834 21.6022C20.5834 21.6035 20.5834 21.6048 20.5834 21.6061C20.5834 21.6074 20.5834 21.6087 20.5834 21.61C20.5834 21.6113 20.5834 21.6126 20.5834 21.6139C20.5834 21.6152 20.5834 21.6165 20.5834 21.6177C20.5834 21.619 20.5834 21.6203 20.5834 21.6216C20.5834 21.6229 20.5834 21.6242 20.5834 21.6255C20.5834 21.6268 20.5834 21.6281 20.5834 21.6294C20.5834 21.6307 20.5834 21.632 20.5834 21.6333C20.5834 21.6346 20.5834 21.6359 20.5834 21.6372C20.5834 21.6385 20.5834 21.6398 20.5834 21.6411C20.5834 21.6424 20.5834 21.6437 20.5834 21.645C20.5834 21.6463 20.5834 21.6476 20.5834 21.6489C20.5834 21.6502 20.5834 21.6515 20.5834 21.6528C20.5834 21.6541 20.5834 21.6554 20.5834 21.6567C20.5834 21.658 20.5834 21.6593 20.5834 21.6606C20.5834 21.6619 20.5834 21.6632 20.5834 21.6645C20.5834 21.6658 20.5834 21.6671 20.5834 21.6684C20.5834 21.6697 20.5834 21.671 20.5834 21.6723C20.5834 21.6736 20.5834 21.6749 20.5834 21.6762C20.5834 21.6775 20.5834 21.6788 20.5834 21.6801C20.5834 21.6814 20.5834 21.6827 20.5834 21.684C20.5834 21.6853 20.5834 21.6866 20.5834 21.6879C20.5834 21.6892 20.5834 21.6905 20.5834 21.6918C20.5834 21.6932 20.5834 21.6945 20.5834 21.6958C20.5834 21.6971 20.5834 21.6984 20.5834 21.6997C20.5834 21.701 20.5834 21.7023 20.5834 21.7036C20.5834 21.7049 20.5834 21.7062 20.5834 21.7075C20.5834 21.7088 20.5834 21.7101 20.5834 21.7114C20.5834 21.7127 20.5834 21.7141 20.5834 21.7154C20.5834 21.7167 20.5834 21.718 20.5834 21.7193C20.5834 21.7206 20.5834 21.7219 20.5834 21.7232C20.5834 21.7245 20.5834 21.7258 20.5834 21.7271C20.5834 21.7284 20.5834 21.7298 20.5834 21.7311C20.5834 21.7324 20.5834 21.7337 20.5834 21.735C20.5834 21.7363 20.5834 21.7376 20.5834 21.7389C20.5834 21.7402 20.5834 21.7415 20.5834 21.7429C20.5834 21.7442 20.5834 21.7455 20.5834 21.7468C20.5834 21.7481 20.5834 21.7494 20.5834 21.7507C20.5834 21.752 20.5834 21.7534 20.5834 21.7547C20.5834 21.756 20.5834 21.7573 20.5834 21.7586C20.5834 21.7599 20.5834 21.7612 20.5834 21.7625C20.5834 21.7639 20.5834 21.7652 20.5834 21.7665C20.5834 21.7678 20.5834 21.7691 20.5834 21.7704C20.5834 21.7717 20.5834 21.7731 20.5834 21.7744C20.5834 21.7757 20.5834 21.777 20.5834 21.7783C20.5834 21.7796 20.5834 21.7809 20.5834 21.7823C20.5834 21.7836 20.5834 21.7849 20.5834 21.7862C20.5834 21.7875 20.5834 21.7888 20.5834 21.7902C20.5834 21.7915 20.5834 21.7928 20.5834 21.7941C20.5834 21.7954 20.5834 21.7967 20.5834 21.7981C20.5834 21.7994 20.5834 21.8007 20.5834 21.802C20.5834 21.8033 20.5834 21.8047 20.5834 21.806C20.5834 21.8073 20.5834 21.8086 20.5834 21.8099C20.5834 21.8112 20.5834 21.8126 20.5834 21.8139C20.5834 21.8152 20.5834 21.8165 20.5834 21.8178C20.5834 21.8192 20.5834 21.8205 20.5834 21.8218C20.5834 21.8231 20.5834 21.8245 20.5834 21.8258C20.5834 21.8271 20.5834 21.8284 20.5834 21.8297C20.5834 21.8311 20.5834 21.8324 20.5834 21.8337C20.5834 21.835 20.5834 21.8363 20.5834 21.8377C20.5834 21.839 20.5834 21.8403 20.5834 21.8416C20.5834 21.843 20.5834 21.8443 20.5834 21.8456C20.5834 21.8469 20.5834 21.8483 20.5834 21.8496C20.5834 21.8509 20.5834 21.8522 20.5834 21.8536C20.5834 21.8549 20.5834 21.8562 20.5834 21.8575C20.5834 21.8589 20.5834 21.8602 20.5834 21.8615C20.5834 21.8628 20.5834 21.8642 20.5834 21.8655C20.5834 21.8668 20.5834 21.8681 20.5834 21.8695C20.5834 21.8708 20.5834 21.8721 20.5834 21.8734C20.5834 21.8748 20.5834 21.8761 20.5834 21.8774C20.5834 21.8787 20.5834 21.8801 20.5834 21.8814C20.5834 21.8827 20.5834 21.8841 20.5834 21.8854C20.5834 21.8867 20.5834 21.888 20.5834 21.8894C20.5834 21.8907 20.5834 21.892 20.5834 21.8934C20.5834 21.8947 20.5834 21.896 20.5834 21.8973C20.5834 21.8987 20.5834 21.9 20.5834 21.9013C20.5834 21.9027 20.5834 21.904 20.5834 21.9053C20.5834 21.9067 20.5834 21.908 20.5834 21.9093C20.5834 21.9106 20.5834 21.912 20.5834 21.9133C20.5834 21.9146 20.5834 21.916 20.5834 21.9173C20.5834 21.9186 20.5834 21.92 20.5834 21.9213C20.5834 21.9226 20.5834 21.924 20.5834 21.9253C20.5834 21.9266 20.5834 21.928 20.5834 21.9293C20.5834 21.9306 20.5834 21.932 20.5834 21.9333C20.5834 21.9346 20.5834 21.936 20.5834 21.9373C20.5834 21.9386 20.5834 21.94 20.5834 21.9413C20.5834 21.9426 20.5834 21.944 20.5834 21.9453C20.5834 21.9466 20.5834 21.948 20.5834 21.9493C20.5834 21.9507 20.5834 21.952 20.5834 21.9533C20.5834 21.9547 20.5834 21.956 20.5834 21.9573C20.5834 21.9587 20.5834 21.96 20.5834 21.9613C20.5834 21.9627 20.5834 21.964 20.5834 21.9654C20.5834 21.9667 20.5834 21.968 20.5834 21.9694C20.5834 21.9707 20.5834 21.972 20.5834 21.9734C20.5834 21.9747 20.5834 21.9761 20.5834 21.9774C20.5834 21.9787 20.5834 21.9801 20.5834 21.9814C20.5834 21.9828 20.5834 21.9841 20.5834 21.9854C20.5834 21.9868 20.5834 21.9881 20.5834 21.9895C20.5834 21.9908 20.5834 21.9921 20.5834 21.9935C20.5834 21.9948 20.5834 21.9962 20.5834 21.9975C20.5834 21.9988 20.5834 22.0002 20.5834 22.0015C20.5834 22.0029 20.5834 22.0042 20.5834 22.0055C20.5834 22.0069 20.5834 22.0082 20.5834 22.0096C20.5834 22.0109 20.5834 22.0123 20.5834 22.0136C20.5834 22.0149 20.5834 22.0163 20.5834 22.0176C20.5834 22.019 20.5834 22.0203 20.5834 22.0217C20.5834 22.023 20.5834 22.0244 20.5834 22.0257C20.5834 22.027 20.5834 22.0284 20.5834 22.0297C20.5834 22.0311 20.5834 22.0324 20.5834 22.0338C20.5834 22.0351 20.5834 22.0365 20.5834 22.0378C20.5834 22.0391 20.5834 22.0405 20.5834 22.0418C20.5834 22.0432 20.5834 22.0445 20.5834 22.0459C20.5834 22.0472 20.5834 22.0486 20.5834 22.0499C20.5834 22.0513 20.5834 22.0526 20.5834 22.054C20.5834 22.0553 20.5834 22.0567 20.5834 22.058C20.5834 22.0594 20.5834 22.0607 20.5834 22.062C20.5834 22.0634 20.5834 22.0647 20.5834 22.0661C20.5834 22.0674 20.5834 22.0688 20.5834 22.0701C20.5834 22.0715 20.5834 22.0728 20.5834 22.0742C20.5834 22.0755 20.5834 22.0769 20.5834 22.0782C20.5834 22.0796 20.5834 22.0809 20.5834 22.0823C20.5834 22.0836 20.5834 22.085 20.5834 22.0863C20.5834 22.0877 20.5834 22.089 20.5834 22.0904C20.5834 22.0917 20.5834 22.0931 20.5834 22.0945C20.5834 22.0958 20.5834 22.0972 20.5834 22.0985C20.5834 22.0999 20.5834 22.1012 20.5834 22.1026C20.5834 22.1039 20.5834 22.1053 20.5834 22.1066C20.5834 22.108 20.5834 22.1093 20.5834 22.1107C20.5834 22.112 20.5834 22.1134 20.5834 22.1147C20.5834 22.1161 20.5834 22.1175 20.5834 22.1188C20.5834 22.1202 20.5834 22.1215 20.5834 22.1229C20.5834 22.1242 20.5834 22.1256 20.5834 22.1269C20.5834 22.1283 20.5834 22.1297 20.5834 22.131C20.5834 22.1324 20.5834 22.1337 20.5834 22.1351C20.5834 22.1364 20.5834 22.1378 20.5834 22.1391C20.5834 22.1405 20.5834 22.1419 20.5834 22.1432C20.5834 22.1446 20.5834 22.1459 20.5834 22.1473C20.5834 22.1486 20.5834 22.15 20.5834 22.1514C20.5834 22.1527 20.5834 22.1541 20.5834 22.1554C20.5834 22.1568 20.5834 22.1582 20.5834 22.1595C20.5834 22.1609 20.5834 22.1622 20.5834 22.1636C20.5834 22.165 20.5834 22.1663 20.5834 22.1677C20.5834 22.169 20.5834 22.1704 20.5834 22.1718C20.5834 22.1731 20.5834 22.1745 20.5834 22.1758C20.5834 22.1772 20.5834 22.1786 20.5834 22.1799C20.5834 22.1813 20.5834 22.1826 20.5834 22.184C20.5834 22.1854 20.5834 22.1867 20.5834 22.1881C20.5834 22.1894 20.5834 22.1908 20.5834 22.1922C20.5834 22.1935 20.5834 22.1949 20.5834 22.1963C20.5834 22.1976 20.5834 22.199 20.5834 22.2004C20.5834 22.2017 20.5834 22.2031 20.5834 22.2044C20.5834 22.2058 20.5834 22.2072 20.5834 22.2085C20.5834 22.2099 20.5834 22.2113 20.5834 22.2126C20.5834 22.214 20.5834 22.2154 20.5834 22.2167C20.5834 22.2181 20.5834 22.2195 20.5834 22.2208C20.5834 22.2222 20.5834 22.2235 20.5834 22.2249C20.5834 22.2263 20.5834 22.2276 20.5834 22.229C20.5834 22.2304 20.5834 22.2317 20.5834 22.2331C20.5834 22.2345 20.5834 22.2358 20.5834 22.2372C20.5834 22.2386 20.5834 22.2399 20.5834 22.2413C20.5834 22.2427 20.5834 22.2441 20.5834 22.2454C20.5834 22.2468 20.5834 22.2482 20.5834 22.2495C20.5834 22.2509 20.5834 22.2523 20.5834 22.2536C20.5834 22.255 20.5834 22.2564 20.5834 22.2577C20.5834 22.2591 20.5834 22.2605 20.5834 22.2618C20.5834 22.2632 20.5834 22.2646 20.5834 22.266C20.5834 22.2673 20.5834 22.2687 20.5834 22.2701C20.5834 22.2714 20.5834 22.2728 20.5834 22.2742C20.5834 22.2756 20.5834 22.2769 20.5834 22.2783C20.5834 22.2797 20.5834 22.281 20.5834 22.2824C20.5834 22.2838 20.5834 22.2852 20.5834 22.2865C20.5834 22.2879 20.5834 22.2893 20.5834 22.2906C20.5834 22.292 20.5834 22.2934 20.5834 22.2948C20.5834 22.2961 20.5834 22.2975 20.5834 22.2989C20.5834 22.3003 20.5834 22.3016 20.5834 22.303C20.5834 22.3044 20.5834 22.3058 20.5834 22.3071C20.5834 22.3085 20.5834 22.3099 20.5834 22.3113C20.5834 22.3126 20.5834 22.314 20.5834 22.3154C20.5834 22.3168 20.5834 22.3181 20.5834 22.3195C20.5834 22.3209 20.5834 22.3223 20.5834 22.3236C20.5834 22.325 20.5834 22.3264 20.5834 22.3278C20.5834 22.3291 20.5834 22.3305 20.5834 22.3319C20.5834 22.3333 20.5834 22.3346 20.5834 22.336C20.5834 22.3374 20.5834 22.3388 20.5834 22.3402C20.5834 22.3415 20.5834 22.3429 20.5834 22.3443C20.5834 22.3457 20.5834 22.347 20.5834 22.3484C20.5834 22.3498 20.5834 22.3512 20.5834 22.3526C20.5834 22.3539 20.5834 22.3553 20.5834 22.3567C20.5834 22.3581 20.5834 22.3595 20.5834 22.3608C20.5834 22.3622 20.5834 22.3636 20.5834 22.365C20.5834 22.3664 20.5834 22.3677 20.5834 22.3691C20.5834 22.3705 20.5834 22.3719 20.5834 22.3733C20.5834 22.3746 20.5834 22.376 20.5834 22.3774C20.5834 22.3788 20.5834 22.3802 20.5834 22.3815C20.5834 22.3829 20.5834 22.3843 20.5834 22.3857C20.5834 22.3871 20.5834 22.3885 20.5834 22.3898C20.5834 22.3912 20.5834 22.3926 20.5834 22.394C20.5834 22.3954 20.5834 22.3968 20.5834 22.3981C20.5834 22.3995 20.5834 22.4009 20.5834 22.4023C20.5834 22.4037 20.5834 22.4051 20.5834 22.4064C20.5834 22.4078 20.5834 22.4092 20.5834 22.4106C20.5834 22.412 20.5834 22.4134 20.5834 22.4148C20.5834 22.4161 20.5834 22.4175 20.5834 22.4189C20.5834 22.4203 20.5834 22.4217 20.5834 22.4231C20.5834 22.4245 20.5834 22.4258 20.5834 22.4272C20.5834 22.4286 20.5834 22.43 20.5834 22.4314C20.5834 22.4328 20.5834 22.4342 20.5834 22.4355C20.5834 22.4369 20.5834 22.4383 20.5834 22.4397C20.5834 22.4411 20.5834 22.4425 20.5834 22.4439C20.5834 22.4453 20.5834 22.4466 20.5834 22.448C20.5834 22.4494 20.5834 22.4508 20.5834 22.4522C20.5834 22.4536 20.5834 22.455 20.5834 22.4564C20.5834 22.4578 20.5834 22.4591 20.5834 22.4605C20.5834 22.4619 20.5834 22.4633 20.5834 22.4647C20.5834 22.4661 20.5834 22.4675 20.5834 22.4689C20.5834 22.4703 20.5834 22.4717 20.5834 22.4731C20.5834 22.4744 20.5834 22.4758 20.5834 22.4772C20.5834 22.4786 20.5834 22.48 20.5834 22.4814C20.5834 22.4828 20.5834 22.4842 20.5834 22.4856C20.5834 22.487 20.5834 22.4884 20.5834 22.4898C20.5834 22.4911 20.5834 22.4925 20.5834 22.4939C20.5834 22.4953 20.5834 22.4967 20.5834 22.4981C20.5834 22.4995 20.5834 22.5009 20.5834 22.5023C20.5834 22.5037 20.5834 22.5051 20.5834 22.5065C20.5834 22.5079 20.5834 22.5093 20.5834 22.5107C20.5834 22.512 20.5834 22.5134 20.5834 22.5148C20.5834 22.5162 20.5834 22.5176 20.5834 22.519C20.5834 22.5204 20.5834 22.5218 20.5834 22.5232C20.5834 22.5246 20.5834 22.526 20.5834 22.5274C20.5834 22.5288 20.5834 22.5302 20.5834 22.5316C20.5834 22.533 20.5834 22.5344 20.5834 22.5358C20.5834 22.5372 20.5834 22.5386 20.5834 22.54C20.5834 22.5414 20.5834 22.5428 20.5834 22.5442C20.5834 22.5456 20.5834 22.547 20.5834 22.5484C20.5834 22.5497 20.5834 22.5511 20.5834 22.5525C20.5834 22.5539 20.5834 22.5553 20.5834 22.5567C20.5834 22.5581 20.5834 22.5595 20.5834 22.5609C20.5834 22.5623 20.5834 22.5637 20.5834 22.5651C20.5834 22.5665 20.5834 22.5679 20.5834 22.5693C20.5834 22.5707 20.5834 22.5721 20.5834 22.5735C20.5834 22.5749 20.5834 22.5763 20.5834 22.5777C20.5834 22.5791 20.5834 22.5805 20.5834 22.5819C20.5834 22.5833 20.5834 22.5847 20.5834 22.5861C20.5834 22.5875 20.5834 22.5889 20.5834 22.5903C20.5834 22.5918 20.5834 22.5932 20.5834 22.5946C20.5834 22.596 20.5834 22.5974 20.5834 22.5988C20.5834 22.6002 20.5834 22.6016 20.5834 22.603C20.5834 22.6044 20.5834 22.6058 20.5834 22.6072C20.5834 22.6086 20.5834 22.61 20.5834 22.6114C20.5834 22.6128 20.5834 22.6142 20.5834 22.6156C20.5834 22.617 20.5834 22.6184 20.5834 22.6198C20.5834 22.6212 20.5834 22.6226 20.5834 22.624C20.5834 22.6254 20.5834 22.6268 20.5834 22.6282C20.5834 22.6297 20.5834 22.6311 20.5834 22.6325C20.5834 22.6339 20.5834 22.6353 20.5834 22.6367C20.5834 22.6381 20.5834 22.6395 20.5834 22.6409C20.5834 22.6423 20.5834 22.6437 20.5834 22.6451C20.5834 22.6465 20.5834 22.6479 20.5834 22.6493C20.5834 22.6508 20.5834 22.6522 20.5834 22.6536C20.5834 22.655 20.5834 22.6564 20.5834 22.6578C20.5834 22.6592 20.5834 22.6606 20.5834 22.662C20.5834 22.6634 20.5834 22.6648 20.5834 22.6662C20.5834 22.6676 20.5834 22.6691 20.5834 22.6705C20.5834 22.6719 20.5834 22.6733 20.5834 22.6747C20.5834 22.6761 20.5834 22.6775 20.5834 22.6789C20.5834 22.6803 20.5834 22.6817 20.5834 22.6832C20.5834 22.6846 20.5834 22.686 20.5834 22.6874C20.5834 22.6888 20.5834 22.6902 20.5834 22.6916C20.5834 22.693 20.5834 22.6944 20.5834 22.6959C20.5834 22.6973 20.5834 22.6987 20.5834 22.7001C20.5834 22.7015 20.5834 22.7029 20.5834 22.7043C20.5834 22.7057 20.5834 22.7071 20.5834 22.7086C20.5834 22.71 20.5834 22.7114 20.5834 22.7128C20.5834 22.7142 20.5834 22.7156 20.5834 22.717C20.5834 22.7185 20.5834 22.7199 20.5834 22.7213C20.5834 22.7227 20.5834 22.7241 20.5834 22.7255C20.5834 22.7269 20.5834 22.7284 20.5834 22.7298C20.5834 22.7312 20.5834 22.7326 20.5834 22.734C20.5834 22.7354 20.5834 22.7368 20.5834 22.7383C20.5834 22.7397 20.5834 22.7411 20.5834 22.7425C20.5834 22.7439 20.5834 22.7453 20.5834 22.7467C20.5834 22.7482 20.5834 22.7496 20.5834 22.751C20.5834 22.7524 20.5834 22.7538 20.5834 22.7552C20.5834 22.7567 20.5834 22.7581 20.5834 22.7595C20.5834 22.7609 20.5834 22.7623 20.5834 22.7637C20.5834 22.7652 20.5834 22.7666 20.5834 22.768C20.5834 22.7694 20.5834 22.7708 20.5834 22.7723C20.5834 22.7737 20.5834 22.7751 20.5834 22.7765C20.5834 22.7779 20.5834 22.7793 20.5834 22.7808C20.5834 22.7822 20.5834 22.7836 20.5834 22.785C20.5834 22.7864 20.5834 22.7879 20.5834 22.7893C20.5834 22.7907 20.5834 22.7921 20.5834 22.7935C20.5834 22.795 20.5834 22.7964 20.5834 22.7978C20.5834 22.7992 20.5834 22.8006 20.5834 22.8021C20.5834 22.8035 20.5834 22.8049 20.5834 22.8063C20.5834 22.8077 20.5834 22.8092 20.5834 22.8106C20.5834 22.812 20.5834 22.8134 20.5834 22.8149C20.5834 22.8163 20.5834 22.8177 20.5834 22.8191C20.5834 22.8205 20.5834 22.822 20.5834 22.8234C20.5834 22.8248 20.5834 22.8262 20.5834 22.8277C20.5834 22.8291 20.5834 22.8305 20.5834 22.8319C20.5834 22.8334 20.5834 22.8348 20.5834 22.8362C20.5834 22.8376 20.5834 22.839 20.5834 22.8405C20.5834 22.8419 20.5834 22.8433 20.5834 22.8447C20.5834 22.8462 20.5834 22.8476 20.5834 22.849C20.5834 22.8504 20.5834 22.8519 20.5834 22.8533C20.5834 22.8547 20.5834 22.8561 20.5834 22.8576C20.5834 22.859 20.5834 22.8604 20.5834 22.8618C20.5834 22.8633 20.5834 22.8647 20.5834 22.8661C20.5834 22.8675 20.5834 22.869 20.5834 22.8704C20.5834 22.8718 20.5834 22.8733 20.5834 22.8747C20.5834 22.8761 20.5834 22.8775 20.5834 22.879C20.5834 22.8804 20.5834 22.8818 20.5834 22.8832C20.5834 22.8847 20.5834 22.8861 20.5834 22.8875C20.5834 22.889 20.5834 22.8904 20.5834 22.8918C20.5834 22.8932 20.5834 22.8947 20.5834 22.8961C20.5834 22.8975 20.5834 22.899 20.5834 22.9004C20.5834 22.9018 20.5834 22.9032 20.5834 22.9047C20.5834 22.9061 20.5834 22.9075 20.5834 22.909C20.5834 22.9104 20.5834 22.9118 20.5834 22.9132C20.5834 22.9147 20.5834 22.9161 20.5834 22.9175C20.5834 22.919 20.5834 22.9204 20.5834 22.9218C20.5834 22.9233 20.5834 22.9247 20.5834 22.9261C20.5834 22.9276 20.5834 22.929 20.5834 22.9304C20.5834 22.9319 20.5834 22.9333 20.5834 22.9347C20.5834 22.9361 20.5834 22.9376 20.5834 22.939C20.5834 22.9404 20.5834 22.9419 20.5834 22.9433C20.5834 22.9447 20.5834 22.9462 20.5834 22.9476C20.5834 22.949 20.5834 22.9505 20.5834 22.9519C20.5834 22.9533 20.5834 22.9548 20.5834 22.9562C20.5834 22.9576 20.5834 22.9591 20.5834 22.9605C20.5834 22.9619 20.5834 22.9634 20.5834 22.9648C20.5834 22.9662 20.5834 22.9677 20.5834 22.9691C20.5834 22.9705 20.5834 22.972 20.5834 22.9734C20.5834 22.9749 20.5834 22.9763 20.5834 22.9777C20.5834 22.9792 20.5834 22.9806 20.5834 22.982C20.5834 22.9835 20.5834 22.9849 20.5834 22.9863C20.5834 22.9878 20.5834 22.9892 20.5834 22.9906C20.5834 22.9921 20.5834 22.9935 20.5834 22.995C20.5834 22.9964 20.5834 22.9978 20.5834 22.9993C20.5834 23.0007 20.5834 23.0021 20.5834 23.0036C20.5834 23.005 20.5834 23.0065 20.5834 23.0079C20.5834 23.0093 20.5834 23.0108 20.5834 23.0122C20.5834 23.0136 20.5834 23.0151 20.5834 23.0165C20.5834 23.018 20.5834 23.0194 20.5834 23.0208C20.5834 23.0223 20.5834 23.0237 20.5834 23.0252C20.5834 23.0266 20.5834 23.028 20.5834 23.0295C20.5834 23.0309 20.5834 23.0323 20.5834 23.0338C20.5834 23.0352 20.5834 23.0367 20.5834 23.0381C20.5834 23.0395 20.5834 23.041 20.5834 23.0424C20.5834 23.0439 20.5834 23.0453 20.5834 23.0468C20.5834 23.0482 20.5834 23.0496 20.5834 23.0511C20.5834 23.0525 20.5834 23.054 20.5834 23.0554C20.5834 23.0568 20.5834 23.0583 20.5834 23.0597C20.5834 23.0612 20.5834 23.0626 20.5834 23.064C20.5834 23.0655 20.5834 23.0669 20.5834 23.0684C20.5834 23.0698 20.5834 23.0713 20.5834 23.0727C20.5834 23.0741 20.5834 23.0756 20.5834 23.077C20.5834 23.0785 20.5834 23.0799 20.5834 23.0814C20.5834 23.0828 20.5834 23.0843 20.5834 23.0857C20.5834 23.0871 20.5834 23.0886 20.5834 23.09C20.5834 23.0915 20.5834 23.0929 20.5834 23.0944C20.5834 23.0958 20.5834 23.0972 20.5834 23.0987C20.5834 23.1001 20.5834 23.1016 20.5834 23.103C20.5834 23.1045 20.5834 23.1059 20.5834 23.1074C20.5834 23.1088 20.5834 23.1103 20.5834 23.1117C20.5834 23.1131 20.5834 23.1146 20.5834 23.116C20.5834 23.1175 20.5834 23.1189 20.5834 23.1204C20.5834 23.1218 20.5834 23.1233 20.5834 23.1247C20.5834 23.1262 20.5834 23.1276 20.5834 23.1291C20.5834 23.1305 20.5834 23.132 20.5834 23.1334C20.5834 23.1348 20.5834 23.1363 20.5834 23.1377C20.5834 23.1392 20.5834 23.1406 20.5834 23.1421C20.5834 23.1435 20.5834 23.145 20.5834 23.1464C20.5834 23.1479 20.5834 23.1493 20.5834 23.1508C20.5834 23.1522 20.5834 23.1537 20.5834 23.1551C20.5834 23.1566 20.5834 23.158 20.5834 23.1595C20.5834 23.1609 20.5834 23.1624 20.5834 23.1638C20.5834 23.1653 20.5834 23.1667 20.5834 23.1682C20.5834 23.1696 20.5834 23.1711 20.5834 23.1725C20.5834 23.174 20.5834 23.1754 20.5834 23.1769C20.5834 23.1783 20.5834 23.1798 20.5834 23.1812C20.5834 23.1827 20.5834 23.1841 20.5834 23.1856C20.5834 23.187 20.5834 23.1885 20.5834 23.1899C20.5834 23.1914 20.5834 23.1928 20.5834 23.1943C20.5834 23.1957 20.5834 23.1972 20.5834 23.1987C20.5834 23.2001 20.5834 23.2016 20.5834 23.203C20.5834 23.2045 20.5834 23.2059 20.5834 23.2074C20.5834 23.2088 20.5834 23.2103 20.5834 23.2117C20.5834 23.2132 20.5834 23.2146 20.5834 23.2161C20.5834 23.2175 20.5834 23.219 20.5834 23.2204C20.5834 23.2219 20.5834 23.2234 20.5834 23.2248C20.5834 23.2263 20.5834 23.2277 20.5834 23.2292C20.5834 23.2306 20.5834 23.2321 20.5834 23.2335C20.5834 23.235 20.5834 23.2364 20.5834 23.2379C20.5834 23.2394 20.5834 23.2408 20.5834 23.2423C20.5834 23.2437 20.5834 23.2452 20.5834 23.2466C20.5834 23.2481 20.5834 23.2495 20.5834 23.251C20.5834 23.2525 20.5834 23.2539 20.5834 23.2554C20.5834 23.2568 20.5834 23.2583 20.5834 23.2597C20.5834 23.2612 20.5834 23.2627 20.5834 23.2641C20.5834 23.2656 20.5834 23.267 20.5834 23.2685C20.5834 23.2699 20.5834 23.2714 20.5834 23.2729C20.5834 23.2743 20.5834 23.2758 20.5834 23.2772C20.5834 23.2787 20.5834 23.2802 20.5834 23.2816C20.5834 23.2831 20.5834 23.2845 20.5834 23.286C20.5834 23.2874 20.5834 23.2889 20.5834 23.2904C20.5834 23.2918 20.5834 23.2933 20.5834 23.2947C20.5834 23.2962 20.5834 23.2977 20.5834 23.2991C20.5834 23.3006 20.5834 23.302 20.5834 23.3035C20.5834 23.305 20.5834 23.3064 20.5834 23.3079C20.5834 23.3093 20.5834 23.3108 20.5834 23.3123C20.5834 23.3137 20.5834 23.3152 20.5834 23.3166C20.5834 23.3181 20.5834 23.3196 20.5834 23.321C20.5834 23.3225 20.5834 23.3239 20.5834 23.3254C20.5834 23.3269 20.5834 23.3283 20.5834 23.3298C20.5834 23.3313 20.5834 23.3327 20.5834 23.3342C20.5834 23.3356 20.5834 23.3371 20.5834 23.3386C20.5834 23.34 20.5834 23.3415 20.5834 23.343C20.5834 23.3444 20.5834 23.3459 20.5834 23.3473C20.5834 23.3488 20.5834 23.3503 20.5834 23.3517C20.5834 23.3532 20.5834 23.3547 20.5834 23.3561C20.5834 23.3576 20.5834 23.3591 20.5834 23.3605C20.5834 23.362 20.5834 23.3634 20.5834 23.3649C20.5834 23.3664 20.5834 23.3678 20.5834 23.3693C20.5834 23.3708 20.5834 23.3722 20.5834 23.3737C20.5834 23.3752 20.5834 23.3766 20.5834 23.3781C20.5834 23.3796 20.5834 23.381 20.5834 23.3825C20.5834 23.384 20.5834 23.3854 20.5834 23.3869C20.5834 23.3884 20.5834 23.3898 20.5834 23.3913C20.5834 23.3927 20.5834 23.3942 20.5834 23.3957C20.5834 23.3971 20.5834 23.3986 20.5834 23.4001C20.5834 23.4015 20.5834 23.403 20.5834 23.4045C20.5834 23.4059 20.5834 23.4074 20.5834 23.4089C20.5834 23.4104 20.5834 23.4118 20.5834 23.4133C20.5834 23.4148 20.5834 23.4162 20.5834 23.4177C20.5834 23.4192 20.5834 23.4206 20.5834 23.4221C20.5834 23.4236 20.5834 23.425 20.5834 23.4265C20.5834 23.428 20.5834 23.4294 20.5834 23.4309C20.5834 23.4324 20.5834 23.4338 20.5834 23.4353C20.5834 23.4368 20.5834 23.4383 20.5834 23.4397C20.5834 23.4412 20.5834 23.4427 20.5834 23.4441C20.5834 23.4456 20.5834 23.4471 20.5834 23.4485C20.5834 23.45 20.5834 23.4515 20.5834 23.4529C20.5834 23.4544 20.5834 23.4559 20.5834 23.4574C20.5834 23.4588 20.5834 23.4603 20.5834 23.4618C20.5834 23.4632 20.5834 23.4647 20.5834 23.4662C20.5834 23.4677 20.5834 23.4691 20.5834 23.4706C20.5834 23.4721 20.5834 23.4735 20.5834 23.475C20.5834 23.4765 20.5834 23.478 20.5834 23.4794C20.5834 23.4809 20.5834 23.4824 20.5834 23.4838C20.5834 23.4853 20.5834 23.4868 20.5834 23.4883C20.5834 23.4897 20.5834 23.4912 20.5834 23.4927C20.5834 23.4942 20.5834 23.4956 20.5834 23.4971C20.5834 23.4986 20.5834 23.5 20.5834 23.5015C20.5834 23.503 20.5834 23.5045 20.5834 23.5059C20.5834 23.5074 20.5834 23.5089 20.5834 23.5104C20.5834 23.5118 20.5834 23.5133 20.5834 23.5148C20.5834 23.5163 20.5834 23.5177 20.5834 23.5192C20.5834 23.5207 20.5834 23.5222 20.5834 23.5236C20.5834 23.5251 20.5834 23.5266 20.5834 23.5281C20.5834 23.5295 20.5834 23.531 20.5834 23.5325C20.5834 23.534 20.5834 23.5354 20.5834 23.5369C20.5834 23.5384 20.5834 23.5399 20.5834 23.5413C20.5834 23.5428 20.5834 23.5443 20.5834 23.5458C20.5834 23.5472 20.5834 23.5487 20.5834 23.5502C20.5834 23.5517 20.5834 23.5532 20.5834 23.5546C20.5834 23.5561 20.5834 23.5576 20.5834 23.5591C20.5834 23.5605 20.5834 23.562 20.5834 23.5635C20.5834 23.565 20.5834 23.5665 20.5834 23.5679C20.5834 23.5694 20.5834 23.5709 20.5834 23.5724C20.5834 23.5738 20.5834 23.5753 20.5834 23.5768C20.5834 23.5783 20.5834 23.5798 20.5834 23.5812C20.5834 23.5827 20.5834 23.5842 20.5834 23.5857C20.5834 23.5871 20.5834 23.5886 20.5834 23.5901H22.0834C22.0834 23.5886 22.0834 23.5871 22.0834 23.5857C22.0834 23.5842 22.0834 23.5827 22.0834 23.5812C22.0834 23.5798 22.0834 23.5783 22.0834 23.5768C22.0834 23.5753 22.0834 23.5738 22.0834 23.5724C22.0834 23.5709 22.0834 23.5694 22.0834 23.5679C22.0834 23.5665 22.0834 23.565 22.0834 23.5635C22.0834 23.562 22.0834 23.5605 22.0834 23.5591C22.0834 23.5576 22.0834 23.5561 22.0834 23.5546C22.0834 23.5532 22.0834 23.5517 22.0834 23.5502C22.0834 23.5487 22.0834 23.5472 22.0834 23.5458C22.0834 23.5443 22.0834 23.5428 22.0834 23.5413C22.0834 23.5399 22.0834 23.5384 22.0834 23.5369C22.0834 23.5354 22.0834 23.534 22.0834 23.5325C22.0834 23.531 22.0834 23.5295 22.0834 23.5281C22.0834 23.5266 22.0834 23.5251 22.0834 23.5236C22.0834 23.5222 22.0834 23.5207 22.0834 23.5192C22.0834 23.5177 22.0834 23.5163 22.0834 23.5148C22.0834 23.5133 22.0834 23.5118 22.0834 23.5104C22.0834 23.5089 22.0834 23.5074 22.0834 23.5059C22.0834 23.5045 22.0834 23.503 22.0834 23.5015C22.0834 23.5 22.0834 23.4986 22.0834 23.4971C22.0834 23.4956 22.0834 23.4942 22.0834 23.4927C22.0834 23.4912 22.0834 23.4897 22.0834 23.4883C22.0834 23.4868 22.0834 23.4853 22.0834 23.4838C22.0834 23.4824 22.0834 23.4809 22.0834 23.4794C22.0834 23.478 22.0834 23.4765 22.0834 23.475C22.0834 23.4735 22.0834 23.4721 22.0834 23.4706C22.0834 23.4691 22.0834 23.4677 22.0834 23.4662C22.0834 23.4647 22.0834 23.4632 22.0834 23.4618C22.0834 23.4603 22.0834 23.4588 22.0834 23.4574C22.0834 23.4559 22.0834 23.4544 22.0834 23.4529C22.0834 23.4515 22.0834 23.45 22.0834 23.4485C22.0834 23.4471 22.0834 23.4456 22.0834 23.4441C22.0834 23.4427 22.0834 23.4412 22.0834 23.4397C22.0834 23.4383 22.0834 23.4368 22.0834 23.4353C22.0834 23.4338 22.0834 23.4324 22.0834 23.4309C22.0834 23.4294 22.0834 23.428 22.0834 23.4265C22.0834 23.425 22.0834 23.4236 22.0834 23.4221C22.0834 23.4206 22.0834 23.4192 22.0834 23.4177C22.0834 23.4162 22.0834 23.4148 22.0834 23.4133C22.0834 23.4118 22.0834 23.4104 22.0834 23.4089C22.0834 23.4074 22.0834 23.4059 22.0834 23.4045C22.0834 23.403 22.0834 23.4015 22.0834 23.4001C22.0834 23.3986 22.0834 23.3971 22.0834 23.3957C22.0834 23.3942 22.0834 23.3927 22.0834 23.3913C22.0834 23.3898 22.0834 23.3884 22.0834 23.3869C22.0834 23.3854 22.0834 23.384 22.0834 23.3825C22.0834 23.381 22.0834 23.3796 22.0834 23.3781C22.0834 23.3766 22.0834 23.3752 22.0834 23.3737C22.0834 23.3722 22.0834 23.3708 22.0834 23.3693C22.0834 23.3678 22.0834 23.3664 22.0834 23.3649C22.0834 23.3634 22.0834 23.362 22.0834 23.3605C22.0834 23.3591 22.0834 23.3576 22.0834 23.3561C22.0834 23.3547 22.0834 23.3532 22.0834 23.3517C22.0834 23.3503 22.0834 23.3488 22.0834 23.3473C22.0834 23.3459 22.0834 23.3444 22.0834 23.343C22.0834 23.3415 22.0834 23.34 22.0834 23.3386C22.0834 23.3371 22.0834 23.3356 22.0834 23.3342C22.0834 23.3327 22.0834 23.3313 22.0834 23.3298C22.0834 23.3283 22.0834 23.3269 22.0834 23.3254C22.0834 23.3239 22.0834 23.3225 22.0834 23.321C22.0834 23.3196 22.0834 23.3181 22.0834 23.3166C22.0834 23.3152 22.0834 23.3137 22.0834 23.3123C22.0834 23.3108 22.0834 23.3093 22.0834 23.3079C22.0834 23.3064 22.0834 23.305 22.0834 23.3035C22.0834 23.302 22.0834 23.3006 22.0834 23.2991C22.0834 23.2977 22.0834 23.2962 22.0834 23.2947C22.0834 23.2933 22.0834 23.2918 22.0834 23.2904C22.0834 23.2889 22.0834 23.2874 22.0834 23.286C22.0834 23.2845 22.0834 23.2831 22.0834 23.2816C22.0834 23.2802 22.0834 23.2787 22.0834 23.2772C22.0834 23.2758 22.0834 23.2743 22.0834 23.2729C22.0834 23.2714 22.0834 23.2699 22.0834 23.2685C22.0834 23.267 22.0834 23.2656 22.0834 23.2641C22.0834 23.2627 22.0834 23.2612 22.0834 23.2597C22.0834 23.2583 22.0834 23.2568 22.0834 23.2554C22.0834 23.2539 22.0834 23.2525 22.0834 23.251C22.0834 23.2495 22.0834 23.2481 22.0834 23.2466C22.0834 23.2452 22.0834 23.2437 22.0834 23.2423C22.0834 23.2408 22.0834 23.2394 22.0834 23.2379C22.0834 23.2364 22.0834 23.235 22.0834 23.2335C22.0834 23.2321 22.0834 23.2306 22.0834 23.2292C22.0834 23.2277 22.0834 23.2263 22.0834 23.2248C22.0834 23.2234 22.0834 23.2219 22.0834 23.2204C22.0834 23.219 22.0834 23.2175 22.0834 23.2161C22.0834 23.2146 22.0834 23.2132 22.0834 23.2117C22.0834 23.2103 22.0834 23.2088 22.0834 23.2074C22.0834 23.2059 22.0834 23.2045 22.0834 23.203C22.0834 23.2016 22.0834 23.2001 22.0834 23.1987C22.0834 23.1972 22.0834 23.1957 22.0834 23.1943C22.0834 23.1928 22.0834 23.1914 22.0834 23.1899C22.0834 23.1885 22.0834 23.187 22.0834 23.1856C22.0834 23.1841 22.0834 23.1827 22.0834 23.1812C22.0834 23.1798 22.0834 23.1783 22.0834 23.1769C22.0834 23.1754 22.0834 23.174 22.0834 23.1725C22.0834 23.1711 22.0834 23.1696 22.0834 23.1682C22.0834 23.1667 22.0834 23.1653 22.0834 23.1638C22.0834 23.1624 22.0834 23.1609 22.0834 23.1595C22.0834 23.158 22.0834 23.1566 22.0834 23.1551C22.0834 23.1537 22.0834 23.1522 22.0834 23.1508C22.0834 23.1493 22.0834 23.1479 22.0834 23.1464C22.0834 23.145 22.0834 23.1435 22.0834 23.1421C22.0834 23.1406 22.0834 23.1392 22.0834 23.1377C22.0834 23.1363 22.0834 23.1348 22.0834 23.1334C22.0834 23.132 22.0834 23.1305 22.0834 23.1291C22.0834 23.1276 22.0834 23.1262 22.0834 23.1247C22.0834 23.1233 22.0834 23.1218 22.0834 23.1204C22.0834 23.1189 22.0834 23.1175 22.0834 23.116C22.0834 23.1146 22.0834 23.1131 22.0834 23.1117C22.0834 23.1103 22.0834 23.1088 22.0834 23.1074C22.0834 23.1059 22.0834 23.1045 22.0834 23.103C22.0834 23.1016 22.0834 23.1001 22.0834 23.0987C22.0834 23.0972 22.0834 23.0958 22.0834 23.0944C22.0834 23.0929 22.0834 23.0915 22.0834 23.09C22.0834 23.0886 22.0834 23.0871 22.0834 23.0857C22.0834 23.0843 22.0834 23.0828 22.0834 23.0814C22.0834 23.0799 22.0834 23.0785 22.0834 23.077C22.0834 23.0756 22.0834 23.0741 22.0834 23.0727C22.0834 23.0713 22.0834 23.0698 22.0834 23.0684C22.0834 23.0669 22.0834 23.0655 22.0834 23.064C22.0834 23.0626 22.0834 23.0612 22.0834 23.0597C22.0834 23.0583 22.0834 23.0568 22.0834 23.0554C22.0834 23.054 22.0834 23.0525 22.0834 23.0511C22.0834 23.0496 22.0834 23.0482 22.0834 23.0468C22.0834 23.0453 22.0834 23.0439 22.0834 23.0424C22.0834 23.041 22.0834 23.0395 22.0834 23.0381C22.0834 23.0367 22.0834 23.0352 22.0834 23.0338C22.0834 23.0323 22.0834 23.0309 22.0834 23.0295C22.0834 23.028 22.0834 23.0266 22.0834 23.0252C22.0834 23.0237 22.0834 23.0223 22.0834 23.0208C22.0834 23.0194 22.0834 23.018 22.0834 23.0165C22.0834 23.0151 22.0834 23.0136 22.0834 23.0122C22.0834 23.0108 22.0834 23.0093 22.0834 23.0079C22.0834 23.0065 22.0834 23.005 22.0834 23.0036C22.0834 23.0021 22.0834 23.0007 22.0834 22.9993C22.0834 22.9978 22.0834 22.9964 22.0834 22.995C22.0834 22.9935 22.0834 22.9921 22.0834 22.9906C22.0834 22.9892 22.0834 22.9878 22.0834 22.9863C22.0834 22.9849 22.0834 22.9835 22.0834 22.982C22.0834 22.9806 22.0834 22.9792 22.0834 22.9777C22.0834 22.9763 22.0834 22.9749 22.0834 22.9734C22.0834 22.972 22.0834 22.9705 22.0834 22.9691C22.0834 22.9677 22.0834 22.9662 22.0834 22.9648C22.0834 22.9634 22.0834 22.9619 22.0834 22.9605C22.0834 22.9591 22.0834 22.9576 22.0834 22.9562C22.0834 22.9548 22.0834 22.9533 22.0834 22.9519C22.0834 22.9505 22.0834 22.949 22.0834 22.9476C22.0834 22.9462 22.0834 22.9447 22.0834 22.9433C22.0834 22.9419 22.0834 22.9404 22.0834 22.939C22.0834 22.9376 22.0834 22.9361 22.0834 22.9347C22.0834 22.9333 22.0834 22.9319 22.0834 22.9304C22.0834 22.929 22.0834 22.9276 22.0834 22.9261C22.0834 22.9247 22.0834 22.9233 22.0834 22.9218C22.0834 22.9204 22.0834 22.919 22.0834 22.9175C22.0834 22.9161 22.0834 22.9147 22.0834 22.9132C22.0834 22.9118 22.0834 22.9104 22.0834 22.909C22.0834 22.9075 22.0834 22.9061 22.0834 22.9047C22.0834 22.9032 22.0834 22.9018 22.0834 22.9004C22.0834 22.899 22.0834 22.8975 22.0834 22.8961C22.0834 22.8947 22.0834 22.8932 22.0834 22.8918C22.0834 22.8904 22.0834 22.889 22.0834 22.8875C22.0834 22.8861 22.0834 22.8847 22.0834 22.8832C22.0834 22.8818 22.0834 22.8804 22.0834 22.879C22.0834 22.8775 22.0834 22.8761 22.0834 22.8747C22.0834 22.8733 22.0834 22.8718 22.0834 22.8704C22.0834 22.869 22.0834 22.8675 22.0834 22.8661C22.0834 22.8647 22.0834 22.8633 22.0834 22.8618C22.0834 22.8604 22.0834 22.859 22.0834 22.8576C22.0834 22.8561 22.0834 22.8547 22.0834 22.8533C22.0834 22.8519 22.0834 22.8504 22.0834 22.849C22.0834 22.8476 22.0834 22.8462 22.0834 22.8447C22.0834 22.8433 22.0834 22.8419 22.0834 22.8405C22.0834 22.839 22.0834 22.8376 22.0834 22.8362C22.0834 22.8348 22.0834 22.8334 22.0834 22.8319C22.0834 22.8305 22.0834 22.8291 22.0834 22.8277C22.0834 22.8262 22.0834 22.8248 22.0834 22.8234C22.0834 22.822 22.0834 22.8205 22.0834 22.8191C22.0834 22.8177 22.0834 22.8163 22.0834 22.8149C22.0834 22.8134 22.0834 22.812 22.0834 22.8106C22.0834 22.8092 22.0834 22.8077 22.0834 22.8063C22.0834 22.8049 22.0834 22.8035 22.0834 22.8021C22.0834 22.8006 22.0834 22.7992 22.0834 22.7978C22.0834 22.7964 22.0834 22.795 22.0834 22.7935C22.0834 22.7921 22.0834 22.7907 22.0834 22.7893C22.0834 22.7879 22.0834 22.7864 22.0834 22.785C22.0834 22.7836 22.0834 22.7822 22.0834 22.7808C22.0834 22.7793 22.0834 22.7779 22.0834 22.7765C22.0834 22.7751 22.0834 22.7737 22.0834 22.7723C22.0834 22.7708 22.0834 22.7694 22.0834 22.768C22.0834 22.7666 22.0834 22.7652 22.0834 22.7637C22.0834 22.7623 22.0834 22.7609 22.0834 22.7595C22.0834 22.7581 22.0834 22.7567 22.0834 22.7552C22.0834 22.7538 22.0834 22.7524 22.0834 22.751C22.0834 22.7496 22.0834 22.7482 22.0834 22.7467C22.0834 22.7453 22.0834 22.7439 22.0834 22.7425C22.0834 22.7411 22.0834 22.7397 22.0834 22.7383C22.0834 22.7368 22.0834 22.7354 22.0834 22.734C22.0834 22.7326 22.0834 22.7312 22.0834 22.7298C22.0834 22.7284 22.0834 22.7269 22.0834 22.7255C22.0834 22.7241 22.0834 22.7227 22.0834 22.7213C22.0834 22.7199 22.0834 22.7185 22.0834 22.717C22.0834 22.7156 22.0834 22.7142 22.0834 22.7128C22.0834 22.7114 22.0834 22.71 22.0834 22.7086C22.0834 22.7071 22.0834 22.7057 22.0834 22.7043C22.0834 22.7029 22.0834 22.7015 22.0834 22.7001C22.0834 22.6987 22.0834 22.6973 22.0834 22.6959C22.0834 22.6944 22.0834 22.693 22.0834 22.6916C22.0834 22.6902 22.0834 22.6888 22.0834 22.6874C22.0834 22.686 22.0834 22.6846 22.0834 22.6832C22.0834 22.6817 22.0834 22.6803 22.0834 22.6789C22.0834 22.6775 22.0834 22.6761 22.0834 22.6747C22.0834 22.6733 22.0834 22.6719 22.0834 22.6705C22.0834 22.6691 22.0834 22.6676 22.0834 22.6662C22.0834 22.6648 22.0834 22.6634 22.0834 22.662C22.0834 22.6606 22.0834 22.6592 22.0834 22.6578C22.0834 22.6564 22.0834 22.655 22.0834 22.6536C22.0834 22.6522 22.0834 22.6508 22.0834 22.6493C22.0834 22.6479 22.0834 22.6465 22.0834 22.6451C22.0834 22.6437 22.0834 22.6423 22.0834 22.6409C22.0834 22.6395 22.0834 22.6381 22.0834 22.6367C22.0834 22.6353 22.0834 22.6339 22.0834 22.6325C22.0834 22.6311 22.0834 22.6297 22.0834 22.6282C22.0834 22.6268 22.0834 22.6254 22.0834 22.624C22.0834 22.6226 22.0834 22.6212 22.0834 22.6198C22.0834 22.6184 22.0834 22.617 22.0834 22.6156C22.0834 22.6142 22.0834 22.6128 22.0834 22.6114C22.0834 22.61 22.0834 22.6086 22.0834 22.6072C22.0834 22.6058 22.0834 22.6044 22.0834 22.603C22.0834 22.6016 22.0834 22.6002 22.0834 22.5988C22.0834 22.5974 22.0834 22.596 22.0834 22.5946C22.0834 22.5932 22.0834 22.5918 22.0834 22.5903C22.0834 22.5889 22.0834 22.5875 22.0834 22.5861C22.0834 22.5847 22.0834 22.5833 22.0834 22.5819C22.0834 22.5805 22.0834 22.5791 22.0834 22.5777C22.0834 22.5763 22.0834 22.5749 22.0834 22.5735C22.0834 22.5721 22.0834 22.5707 22.0834 22.5693C22.0834 22.5679 22.0834 22.5665 22.0834 22.5651C22.0834 22.5637 22.0834 22.5623 22.0834 22.5609C22.0834 22.5595 22.0834 22.5581 22.0834 22.5567C22.0834 22.5553 22.0834 22.5539 22.0834 22.5525C22.0834 22.5511 22.0834 22.5497 22.0834 22.5484C22.0834 22.547 22.0834 22.5456 22.0834 22.5442C22.0834 22.5428 22.0834 22.5414 22.0834 22.54C22.0834 22.5386 22.0834 22.5372 22.0834 22.5358C22.0834 22.5344 22.0834 22.533 22.0834 22.5316C22.0834 22.5302 22.0834 22.5288 22.0834 22.5274C22.0834 22.526 22.0834 22.5246 22.0834 22.5232C22.0834 22.5218 22.0834 22.5204 22.0834 22.519C22.0834 22.5176 22.0834 22.5162 22.0834 22.5148C22.0834 22.5134 22.0834 22.512 22.0834 22.5107C22.0834 22.5093 22.0834 22.5079 22.0834 22.5065C22.0834 22.5051 22.0834 22.5037 22.0834 22.5023C22.0834 22.5009 22.0834 22.4995 22.0834 22.4981C22.0834 22.4967 22.0834 22.4953 22.0834 22.4939C22.0834 22.4925 22.0834 22.4911 22.0834 22.4898C22.0834 22.4884 22.0834 22.487 22.0834 22.4856C22.0834 22.4842 22.0834 22.4828 22.0834 22.4814C22.0834 22.48 22.0834 22.4786 22.0834 22.4772C22.0834 22.4758 22.0834 22.4744 22.0834 22.4731C22.0834 22.4717 22.0834 22.4703 22.0834 22.4689C22.0834 22.4675 22.0834 22.4661 22.0834 22.4647C22.0834 22.4633 22.0834 22.4619 22.0834 22.4605C22.0834 22.4591 22.0834 22.4578 22.0834 22.4564C22.0834 22.455 22.0834 22.4536 22.0834 22.4522C22.0834 22.4508 22.0834 22.4494 22.0834 22.448C22.0834 22.4466 22.0834 22.4453 22.0834 22.4439C22.0834 22.4425 22.0834 22.4411 22.0834 22.4397C22.0834 22.4383 22.0834 22.4369 22.0834 22.4355C22.0834 22.4342 22.0834 22.4328 22.0834 22.4314C22.0834 22.43 22.0834 22.4286 22.0834 22.4272C22.0834 22.4258 22.0834 22.4245 22.0834 22.4231C22.0834 22.4217 22.0834 22.4203 22.0834 22.4189C22.0834 22.4175 22.0834 22.4161 22.0834 22.4148C22.0834 22.4134 22.0834 22.412 22.0834 22.4106C22.0834 22.4092 22.0834 22.4078 22.0834 22.4064C22.0834 22.4051 22.0834 22.4037 22.0834 22.4023C22.0834 22.4009 22.0834 22.3995 22.0834 22.3981C22.0834 22.3968 22.0834 22.3954 22.0834 22.394C22.0834 22.3926 22.0834 22.3912 22.0834 22.3898C22.0834 22.3885 22.0834 22.3871 22.0834 22.3857C22.0834 22.3843 22.0834 22.3829 22.0834 22.3815C22.0834 22.3802 22.0834 22.3788 22.0834 22.3774C22.0834 22.376 22.0834 22.3746 22.0834 22.3733C22.0834 22.3719 22.0834 22.3705 22.0834 22.3691C22.0834 22.3677 22.0834 22.3664 22.0834 22.365C22.0834 22.3636 22.0834 22.3622 22.0834 22.3608C22.0834 22.3595 22.0834 22.3581 22.0834 22.3567C22.0834 22.3553 22.0834 22.3539 22.0834 22.3526C22.0834 22.3512 22.0834 22.3498 22.0834 22.3484C22.0834 22.347 22.0834 22.3457 22.0834 22.3443C22.0834 22.3429 22.0834 22.3415 22.0834 22.3402C22.0834 22.3388 22.0834 22.3374 22.0834 22.336C22.0834 22.3346 22.0834 22.3333 22.0834 22.3319C22.0834 22.3305 22.0834 22.3291 22.0834 22.3278C22.0834 22.3264 22.0834 22.325 22.0834 22.3236C22.0834 22.3223 22.0834 22.3209 22.0834 22.3195C22.0834 22.3181 22.0834 22.3168 22.0834 22.3154C22.0834 22.314 22.0834 22.3126 22.0834 22.3113C22.0834 22.3099 22.0834 22.3085 22.0834 22.3071C22.0834 22.3058 22.0834 22.3044 22.0834 22.303C22.0834 22.3016 22.0834 22.3003 22.0834 22.2989C22.0834 22.2975 22.0834 22.2961 22.0834 22.2948C22.0834 22.2934 22.0834 22.292 22.0834 22.2906C22.0834 22.2893 22.0834 22.2879 22.0834 22.2865C22.0834 22.2852 22.0834 22.2838 22.0834 22.2824C22.0834 22.281 22.0834 22.2797 22.0834 22.2783C22.0834 22.2769 22.0834 22.2756 22.0834 22.2742C22.0834 22.2728 22.0834 22.2714 22.0834 22.2701C22.0834 22.2687 22.0834 22.2673 22.0834 22.266C22.0834 22.2646 22.0834 22.2632 22.0834 22.2618C22.0834 22.2605 22.0834 22.2591 22.0834 22.2577C22.0834 22.2564 22.0834 22.255 22.0834 22.2536C22.0834 22.2523 22.0834 22.2509 22.0834 22.2495C22.0834 22.2482 22.0834 22.2468 22.0834 22.2454C22.0834 22.2441 22.0834 22.2427 22.0834 22.2413C22.0834 22.2399 22.0834 22.2386 22.0834 22.2372C22.0834 22.2358 22.0834 22.2345 22.0834 22.2331C22.0834 22.2317 22.0834 22.2304 22.0834 22.229C22.0834 22.2276 22.0834 22.2263 22.0834 22.2249C22.0834 22.2235 22.0834 22.2222 22.0834 22.2208C22.0834 22.2195 22.0834 22.2181 22.0834 22.2167C22.0834 22.2154 22.0834 22.214 22.0834 22.2126C22.0834 22.2113 22.0834 22.2099 22.0834 22.2085C22.0834 22.2072 22.0834 22.2058 22.0834 22.2044C22.0834 22.2031 22.0834 22.2017 22.0834 22.2004C22.0834 22.199 22.0834 22.1976 22.0834 22.1963C22.0834 22.1949 22.0834 22.1935 22.0834 22.1922C22.0834 22.1908 22.0834 22.1894 22.0834 22.1881C22.0834 22.1867 22.0834 22.1854 22.0834 22.184C22.0834 22.1826 22.0834 22.1813 22.0834 22.1799C22.0834 22.1786 22.0834 22.1772 22.0834 22.1758C22.0834 22.1745 22.0834 22.1731 22.0834 22.1718C22.0834 22.1704 22.0834 22.169 22.0834 22.1677C22.0834 22.1663 22.0834 22.165 22.0834 22.1636C22.0834 22.1622 22.0834 22.1609 22.0834 22.1595C22.0834 22.1582 22.0834 22.1568 22.0834 22.1554C22.0834 22.1541 22.0834 22.1527 22.0834 22.1514C22.0834 22.15 22.0834 22.1486 22.0834 22.1473C22.0834 22.1459 22.0834 22.1446 22.0834 22.1432C22.0834 22.1419 22.0834 22.1405 22.0834 22.1391C22.0834 22.1378 22.0834 22.1364 22.0834 22.1351C22.0834 22.1337 22.0834 22.1324 22.0834 22.131C22.0834 22.1297 22.0834 22.1283 22.0834 22.1269C22.0834 22.1256 22.0834 22.1242 22.0834 22.1229C22.0834 22.1215 22.0834 22.1202 22.0834 22.1188C22.0834 22.1175 22.0834 22.1161 22.0834 22.1147C22.0834 22.1134 22.0834 22.112 22.0834 22.1107C22.0834 22.1093 22.0834 22.108 22.0834 22.1066C22.0834 22.1053 22.0834 22.1039 22.0834 22.1026C22.0834 22.1012 22.0834 22.0999 22.0834 22.0985C22.0834 22.0972 22.0834 22.0958 22.0834 22.0945C22.0834 22.0931 22.0834 22.0917 22.0834 22.0904C22.0834 22.089 22.0834 22.0877 22.0834 22.0863C22.0834 22.085 22.0834 22.0836 22.0834 22.0823C22.0834 22.0809 22.0834 22.0796 22.0834 22.0782C22.0834 22.0769 22.0834 22.0755 22.0834 22.0742C22.0834 22.0728 22.0834 22.0715 22.0834 22.0701C22.0834 22.0688 22.0834 22.0674 22.0834 22.0661C22.0834 22.0647 22.0834 22.0634 22.0834 22.062C22.0834 22.0607 22.0834 22.0594 22.0834 22.058C22.0834 22.0567 22.0834 22.0553 22.0834 22.054C22.0834 22.0526 22.0834 22.0513 22.0834 22.0499C22.0834 22.0486 22.0834 22.0472 22.0834 22.0459C22.0834 22.0445 22.0834 22.0432 22.0834 22.0418C22.0834 22.0405 22.0834 22.0391 22.0834 22.0378C22.0834 22.0365 22.0834 22.0351 22.0834 22.0338C22.0834 22.0324 22.0834 22.0311 22.0834 22.0297C22.0834 22.0284 22.0834 22.027 22.0834 22.0257C22.0834 22.0244 22.0834 22.023 22.0834 22.0217C22.0834 22.0203 22.0834 22.019 22.0834 22.0176C22.0834 22.0163 22.0834 22.0149 22.0834 22.0136C22.0834 22.0123 22.0834 22.0109 22.0834 22.0096C22.0834 22.0082 22.0834 22.0069 22.0834 22.0055C22.0834 22.0042 22.0834 22.0029 22.0834 22.0015C22.0834 22.0002 22.0834 21.9988 22.0834 21.9975C22.0834 21.9962 22.0834 21.9948 22.0834 21.9935C22.0834 21.9921 22.0834 21.9908 22.0834 21.9895C22.0834 21.9881 22.0834 21.9868 22.0834 21.9854C22.0834 21.9841 22.0834 21.9828 22.0834 21.9814C22.0834 21.9801 22.0834 21.9787 22.0834 21.9774C22.0834 21.9761 22.0834 21.9747 22.0834 21.9734C22.0834 21.972 22.0834 21.9707 22.0834 21.9694C22.0834 21.968 22.0834 21.9667 22.0834 21.9654C22.0834 21.964 22.0834 21.9627 22.0834 21.9613C22.0834 21.96 22.0834 21.9587 22.0834 21.9573C22.0834 21.956 22.0834 21.9547 22.0834 21.9533C22.0834 21.952 22.0834 21.9507 22.0834 21.9493C22.0834 21.948 22.0834 21.9466 22.0834 21.9453C22.0834 21.944 22.0834 21.9426 22.0834 21.9413C22.0834 21.94 22.0834 21.9386 22.0834 21.9373C22.0834 21.936 22.0834 21.9346 22.0834 21.9333C22.0834 21.932 22.0834 21.9306 22.0834 21.9293C22.0834 21.928 22.0834 21.9266 22.0834 21.9253C22.0834 21.924 22.0834 21.9226 22.0834 21.9213C22.0834 21.92 22.0834 21.9186 22.0834 21.9173C22.0834 21.916 22.0834 21.9146 22.0834 21.9133C22.0834 21.912 22.0834 21.9106 22.0834 21.9093C22.0834 21.908 22.0834 21.9067 22.0834 21.9053C22.0834 21.904 22.0834 21.9027 22.0834 21.9013C22.0834 21.9 22.0834 21.8987 22.0834 21.8973C22.0834 21.896 22.0834 21.8947 22.0834 21.8934C22.0834 21.892 22.0834 21.8907 22.0834 21.8894C22.0834 21.888 22.0834 21.8867 22.0834 21.8854C22.0834 21.8841 22.0834 21.8827 22.0834 21.8814C22.0834 21.8801 22.0834 21.8787 22.0834 21.8774C22.0834 21.8761 22.0834 21.8748 22.0834 21.8734C22.0834 21.8721 22.0834 21.8708 22.0834 21.8695C22.0834 21.8681 22.0834 21.8668 22.0834 21.8655C22.0834 21.8642 22.0834 21.8628 22.0834 21.8615C22.0834 21.8602 22.0834 21.8589 22.0834 21.8575C22.0834 21.8562 22.0834 21.8549 22.0834 21.8536C22.0834 21.8522 22.0834 21.8509 22.0834 21.8496C22.0834 21.8483 22.0834 21.8469 22.0834 21.8456C22.0834 21.8443 22.0834 21.843 22.0834 21.8416C22.0834 21.8403 22.0834 21.839 22.0834 21.8377C22.0834 21.8363 22.0834 21.835 22.0834 21.8337C22.0834 21.8324 22.0834 21.8311 22.0834 21.8297C22.0834 21.8284 22.0834 21.8271 22.0834 21.8258C22.0834 21.8245 22.0834 21.8231 22.0834 21.8218C22.0834 21.8205 22.0834 21.8192 22.0834 21.8178C22.0834 21.8165 22.0834 21.8152 22.0834 21.8139C22.0834 21.8126 22.0834 21.8112 22.0834 21.8099C22.0834 21.8086 22.0834 21.8073 22.0834 21.806C22.0834 21.8047 22.0834 21.8033 22.0834 21.802C22.0834 21.8007 22.0834 21.7994 22.0834 21.7981C22.0834 21.7967 22.0834 21.7954 22.0834 21.7941C22.0834 21.7928 22.0834 21.7915 22.0834 21.7902C22.0834 21.7888 22.0834 21.7875 22.0834 21.7862C22.0834 21.7849 22.0834 21.7836 22.0834 21.7823C22.0834 21.7809 22.0834 21.7796 22.0834 21.7783C22.0834 21.777 22.0834 21.7757 22.0834 21.7744C22.0834 21.7731 22.0834 21.7717 22.0834 21.7704C22.0834 21.7691 22.0834 21.7678 22.0834 21.7665C22.0834 21.7652 22.0834 21.7639 22.0834 21.7625C22.0834 21.7612 22.0834 21.7599 22.0834 21.7586C22.0834 21.7573 22.0834 21.756 22.0834 21.7547C22.0834 21.7534 22.0834 21.752 22.0834 21.7507C22.0834 21.7494 22.0834 21.7481 22.0834 21.7468C22.0834 21.7455 22.0834 21.7442 22.0834 21.7429C22.0834 21.7415 22.0834 21.7402 22.0834 21.7389C22.0834 21.7376 22.0834 21.7363 22.0834 21.735C22.0834 21.7337 22.0834 21.7324 22.0834 21.7311C22.0834 21.7298 22.0834 21.7284 22.0834 21.7271C22.0834 21.7258 22.0834 21.7245 22.0834 21.7232C22.0834 21.7219 22.0834 21.7206 22.0834 21.7193C22.0834 21.718 22.0834 21.7167 22.0834 21.7154C22.0834 21.7141 22.0834 21.7127 22.0834 21.7114C22.0834 21.7101 22.0834 21.7088 22.0834 21.7075C22.0834 21.7062 22.0834 21.7049 22.0834 21.7036C22.0834 21.7023 22.0834 21.701 22.0834 21.6997C22.0834 21.6984 22.0834 21.6971 22.0834 21.6958C22.0834 21.6945 22.0834 21.6932 22.0834 21.6918C22.0834 21.6905 22.0834 21.6892 22.0834 21.6879C22.0834 21.6866 22.0834 21.6853 22.0834 21.684C22.0834 21.6827 22.0834 21.6814 22.0834 21.6801C22.0834 21.6788 22.0834 21.6775 22.0834 21.6762C22.0834 21.6749 22.0834 21.6736 22.0834 21.6723C22.0834 21.671 22.0834 21.6697 22.0834 21.6684C22.0834 21.6671 22.0834 21.6658 22.0834 21.6645C22.0834 21.6632 22.0834 21.6619 22.0834 21.6606C22.0834 21.6593 22.0834 21.658 22.0834 21.6567C22.0834 21.6554 22.0834 21.6541 22.0834 21.6528C22.0834 21.6515 22.0834 21.6502 22.0834 21.6489C22.0834 21.6476 22.0834 21.6463 22.0834 21.645C22.0834 21.6437 22.0834 21.6424 22.0834 21.6411C22.0834 21.6398 22.0834 21.6385 22.0834 21.6372C22.0834 21.6359 22.0834 21.6346 22.0834 21.6333C22.0834 21.632 22.0834 21.6307 22.0834 21.6294C22.0834 21.6281 22.0834 21.6268 22.0834 21.6255C22.0834 21.6242 22.0834 21.6229 22.0834 21.6216C22.0834 21.6203 22.0834 21.619 22.0834 21.6177C22.0834 21.6165 22.0834 21.6152 22.0834 21.6139C22.0834 21.6126 22.0834 21.6113 22.0834 21.61C22.0834 21.6087 22.0834 21.6074 22.0834 21.6061C22.0834 21.6048 22.0834 21.6035 22.0834 21.6022C22.0834 21.6009 22.0834 21.5996 22.0834 21.5983C22.0834 21.597 22.0834 21.5958 22.0834 21.5945C22.0834 21.5932 22.0834 21.5919 22.0834 21.5906C22.0834 21.5893 22.0834 21.588 22.0834 21.5867C22.0834 21.5854 22.0834 21.5841 22.0834 21.5828C22.0834 21.5815 22.0834 21.5803 22.0834 21.579C22.0834 21.5777 22.0834 21.5764 22.0834 21.5751C22.0834 21.5738 22.0834 21.5725 22.0834 21.5712C22.0834 21.5699 22.0834 21.5686 22.0834 21.5674C22.0834 21.5661 22.0834 21.5648 22.0834 21.5635C22.0834 21.5622 22.0834 21.5609 22.0834 21.5596C22.0834 21.5583 22.0834 21.5571 22.0834 21.5558C22.0834 21.5545 22.0834 21.5532 22.0834 21.5519C22.0834 21.5506 22.0834 21.5493 22.0834 21.548C22.0834 21.5468 22.0834 21.5455 22.0834 21.5442C22.0834 21.5429 22.0834 21.5416 22.0834 21.5403C22.0834 21.539 22.0834 21.5378 22.0834 21.5365C22.0834 21.5352 22.0834 21.5339 22.0834 21.5326C22.0834 21.5313 22.0834 21.5301 22.0834 21.5288C22.0834 21.5275 22.0834 21.5262 22.0834 21.5249C22.0834 21.5236 22.0834 21.5224 22.0834 21.5211C22.0834 21.5198 22.0834 21.5185 22.0834 21.5172C22.0834 21.5159 22.0834 21.5147 22.0834 21.5134C22.0834 21.5121 22.0834 21.5108 22.0834 21.5095C22.0834 21.5083 22.0834 21.507 22.0834 21.5057C22.0834 21.5044 22.0834 21.5031 22.0834 21.5019C22.0834 21.5006 22.0834 21.4993 22.0834 21.498C22.0834 21.4967 22.0834 21.4955 22.0834 21.4942C22.0834 21.4929 22.0834 21.4916 22.0834 21.4903C22.0834 21.4891 22.0834 21.4878 22.0834 21.4865C22.0834 21.4852 22.0834 21.4839 22.0834 21.4827C22.0834 21.4814 22.0834 21.4801 22.0834 21.4788C22.0834 21.4776 22.0834 21.4763 22.0834 21.475C22.0834 21.4737 22.0834 21.4725 22.0834 21.4712C22.0834 21.4699 22.0834 21.4686 22.0834 21.4674C22.0834 21.4661 22.0834 21.4648 22.0834 21.4635C22.0834 21.4623 22.0834 21.461 22.0834 21.4597H20.5834ZM18.1334 19.0103C19.4866 19.0103 20.5834 20.1068 20.5834 21.4597H22.0834C22.0834 19.278 20.3147 17.5103 18.1334 17.5103V19.0103ZM11.4167 21.4597C11.4167 20.1068 12.5135 19.0103 13.8667 19.0103V17.5103C11.6854 17.5103 9.91672 19.278 9.91672 21.4597H11.4167Z" fill="#87D40E"/>
</svg>
