<svg width="24" height="24" viewBox="0 0 24 24" fill="none" xmlns="http://www.w3.org/2000/svg">
<path d="M4.50004 12.5L12.5 4.49998C13.4283 3.57172 14.6873 3.05023 16 3.05023C17.3128 3.05023 18.5718 3.57172 19.5 4.49998C20.4283 5.42824 20.9498 6.68722 20.9498 7.99998C20.9498 9.31273 20.4283 10.5717 19.5 11.5L11.5 19.5C10.5718 20.4282 9.31279 20.9497 8.00004 20.9497C6.68729 20.9497 5.4283 20.4282 4.50004 19.5C3.57178 18.5717 3.05029 17.3127 3.05029 16C3.05029 14.6872 3.57178 13.4282 4.50004 12.5" stroke="#0DB1A1" stroke-width="1.5" stroke-linecap="round" stroke-linejoin="round"/>
<path d="M8.5 8.5L15.5 15.5" stroke="#0DB1A1" stroke-width="1.5" stroke-linecap="round" stroke-linejoin="round"/>
</svg>
