<svg width="24" height="24" viewBox="0 0 24 24" fill="none" xmlns="http://www.w3.org/2000/svg">
<path d="M15.5 15.5L8.49997 8.5L3.3333 14C2.88886 15.1111 2.39997 17.6 3.99997 18.6667C5.99997 20 8.66673 21.3333 12.0001 18.6667C14.6667 16.5333 15.4444 15.6667 15.5 15.5Z" fill="white" fill-opacity="0.3"/>
<path d="M4.50004 12.5L12.5 4.50004C13.4283 3.57178 14.6873 3.05029 16 3.05029C17.3128 3.05029 18.5718 3.57178 19.5 4.50004C20.4283 5.4283 20.9498 6.68729 20.9498 8.00004C20.9498 9.3128 20.4283 10.5718 19.5 11.5L11.5 19.5C10.5718 20.4283 9.3128 20.9498 8.00004 20.9498C6.68729 20.9498 5.4283 20.4283 4.50004 19.5C3.57178 18.5718 3.05029 17.3128 3.05029 16C3.05029 14.6873 3.57178 13.4283 4.50004 12.5" stroke="white" stroke-width="1.5" stroke-linecap="round" stroke-linejoin="round"/>
<path d="M8.50006 8.5L15.5001 15.5" stroke="white" stroke-width="1.5" stroke-linecap="round" stroke-linejoin="round"/>
</svg>
