<svg width="50" height="50" viewBox="0 0 50 50" fill="none" xmlns="http://www.w3.org/2000/svg">
<rect width="50" height="50" rx="25" fill="#EEFBF4"/>
<path d="M20.5726 24.2306L24.2306 16C24.9582 16 25.6561 16.2891 26.1706 16.8036C26.6851 17.3181 26.9741 18.0159 26.9741 18.7435V22.4016H32.1503C32.4154 22.3986 32.678 22.4533 32.9199 22.5618C33.1618 22.6704 33.3772 22.8302 33.5512 23.0303C33.7251 23.2304 33.8535 23.4659 33.9275 23.7205C34.0014 23.9752 34.0191 24.2428 33.9793 24.505L32.7173 32.7356C32.6511 33.1717 32.4296 33.5692 32.0935 33.8549C31.7574 34.1406 31.3293 34.2952 30.8882 34.2902H20.5726M20.5726 24.2306V34.2902M20.5726 24.2306H17.829C17.3439 24.2306 16.8787 24.4233 16.5357 24.7663C16.1927 25.1093 16 25.5745 16 26.0596V32.4612C16 32.9463 16.1927 33.4115 16.5357 33.7545C16.8787 34.0975 17.3439 34.2902 17.829 34.2902H20.5726" stroke="#21B867" stroke-width="2" stroke-linecap="round" stroke-linejoin="round"/>
</svg>
