<svg width="24" height="24" viewBox="0 0 24 24" fill="#0D2573" xmlns="http://www.w3.org/2000/svg">
<path d="M22.1621 5.65593C21.3992 5.99343 20.5903 6.2152 19.7621 6.31393C20.6348 5.79072 21.2879 4.96845 21.6001 3.99993C20.7792 4.48747 19.8809 4.83077 18.9441 5.01493C18.3147 4.34151 17.4804 3.89489 16.571 3.74451C15.6616 3.59413 14.728 3.74842 13.9153 4.18338C13.1026 4.61834 12.4564 5.30961 12.0772 6.14972C11.6979 6.98983 11.6068 7.93171 11.8181 8.82893C10.1555 8.74531 8.52911 8.31304 7.04443 7.56019C5.55975 6.80734 4.24996 5.75073 3.20005 4.45893C2.66547 5.37979 2.50172 6.46969 2.7421 7.50698C2.98247 8.54427 3.60893 9.45106 4.49405 10.0429C3.83006 10.022 3.18069 9.84271 2.60005 9.51993V9.57193C2.60044 10.5373 2.93457 11.4729 3.54583 12.2201C4.15709 12.9673 5.00789 13.4802 5.95405 13.6719C5.33799 13.8388 4.69204 13.8634 4.06505 13.7439C4.33164 14.575 4.8514 15.302 5.5516 15.8231C6.2518 16.3441 7.0974 16.6332 7.97005 16.6499C7.10253 17.3313 6.10923 17.8349 5.04693 18.1321C3.98464 18.4293 2.87418 18.5142 1.77905 18.3819C3.69075 19.6114 5.91615 20.264 8.18905 20.2619C9.75479 20.2727 11.3071 19.9722 12.7557 19.378C14.2043 18.7838 15.5205 17.9077 16.6276 16.8005C17.7348 15.6933 18.6109 14.3772 19.2052 12.9286C19.7994 11.4799 20.0998 9.92766 20.0891 8.36193C20.0891 8.18193 20.0891 7.99993 20.0761 7.82193C20.8949 7.23003 21.6016 6.49689 22.1631 5.65693L22.1621 5.65593Z" fill="#0D2573"/>
</svg>
