<svg width="50" height="50" viewBox="0 0 50 50" fill="none" xmlns="http://www.w3.org/2000/svg">
<rect width="50" height="50" rx="25" fill="#FFECEB"/>
<path d="M23.575 18.2167L16.5167 30C16.3711 30.252 16.2941 30.5377 16.2933 30.8288C16.2925 31.1198 16.3679 31.4059 16.512 31.6588C16.6561 31.9116 16.8639 32.1223 17.1147 32.2699C17.3656 32.4175 17.6507 32.4968 17.9417 32.5H32.0583C32.3493 32.4968 32.6344 32.4175 32.8852 32.2699C33.136 32.1223 33.3439 31.9116 33.488 31.6588C33.6321 31.4059 33.7075 31.1198 33.7067 30.8288C33.7058 30.5377 33.6288 30.252 33.4833 30L26.425 18.2167C26.2764 17.9717 26.0673 17.7693 25.8176 17.6287C25.568 17.4882 25.2864 17.4144 25 17.4144C24.7135 17.4144 24.4319 17.4882 24.1823 17.6287C23.9327 17.7693 23.7235 17.9717 23.575 18.2167V18.2167Z" stroke="#FF3C30" stroke-width="2" stroke-linecap="round" stroke-linejoin="round"/>
<path d="M25 22.5V25.8333" stroke="#FF3C30" stroke-width="2" stroke-linecap="round" stroke-linejoin="round"/>
<path d="M25 29.1667H25.01" stroke="#FF3C30" stroke-width="2" stroke-linecap="round" stroke-linejoin="round"/>
</svg>
